<?xml version="1.0" standalone="no"?>
<!DOCTYPE svg PUBLIC "-//W3C//DTD SVG 1.1//EN" "http://www.w3.org/Graphics/SVG/1.1/DTD/svg11.dtd" >
<svg xmlns="http://www.w3.org/2000/svg" xmlns:xlink="http://www.w3.org/1999/xlink" version="1.1">
<metadata>
Created by FontForge 20170731 at Fri Jun  8 06:40:20 2018
 By Aleksey,,,
Copyright (c) 2018 by Typhoon Type - Suthi Srisopha. All rights reserved.
</metadata>
<defs>
<font id="CandleMustard" horiz-adv-x="1076" >
  <font-face 
    font-family="Candle Mustard"
    font-weight="400"
    font-stretch="normal"
    units-per-em="1000"
    panose-1="0 0 0 0 0 0 0 0 0 0"
    ascent="750"
    descent="-250"
    x-height="389"
    cap-height="629"
    bbox="-348.5 -469.333 1495.33 766.818"
    underline-thickness="50"
    underline-position="-150"
    unicode-range="U+000D-2212"
  />
<missing-glyph horiz-adv-x="250" 
 />
    <glyph glyph-name=".notdef" horiz-adv-x="250" 
 />
    <glyph glyph-name=".null" horiz-adv-x="0" 
 />
    <glyph glyph-name="nonmarkingreturn" unicode="&#xd;" horiz-adv-x="250" 
 />
    <glyph glyph-name="NULL" horiz-adv-x="0" 
 />
    <glyph glyph-name="NULL" horiz-adv-x="0" 
 />
    <glyph glyph-name="space" unicode=" " horiz-adv-x="250" 
 />
    <glyph glyph-name="quotedbl" unicode="&#x22;" horiz-adv-x="180" 
d="M70 766q20 -4 21.5 -27t-15.5 -49q-7 -11 -15 -14.5t-16 -5.5q-9 -2 -17 0q-10 2 -8 8q0 1 4 3q2 0 4 1q11 3 9.5 20t-1.5 34t10 25t24 5zM134 730q19 -4 21 -27.5t-15 -48.5q-7 -11 -15 -15t-16 -6q-9 -2 -18 0t-7 9q0 1 4 3q2 1 3 1q6 1 8 6.5t2 13.5t-1 17t-1 17
q0 16 10.5 24t24.5 6z" />
    <glyph glyph-name="dollar" unicode="$" horiz-adv-x="410" 
d="M376 536q4 -11 4 -31q-2 -23 -11.5 -32.5t-18.5 -9.5q-6 0 -9 5t-5 10q-2 8 -4.5 15t-4.5 13l-45 -98q11 -34 24 -74.5t21 -82.5q2 -14 3.5 -43t-6.5 -64q-2 -10 -4 -17q-8 -28 -23 -51t-44 -40q-20 -11 -39.5 -16.5t-54.5 -3.5q-7 0 -10 1q-5 1 -10.5 2t-10.5 3
q-5 1 -8.5 2t-7.5 3l-9 -20q-4 -7 -10 -7q-2 0 -6 2q-11 9 -4 22l6 15q-25 17 -39 40.5t-21 45.5q-9 26 -11 52t-1 46.5t4 37.5q2 9 7 24t14 30.5t23.5 29t35.5 18.5q16 3 29.5 1.5t22.5 -5.5q11 -4 19 -11q7 -5 13 -13q5 -7 10.5 -16.5t9.5 -22.5l26 59q-8 28 -13 54.5
t-5 52.5q0 33 6.5 54.5t16.5 35t21 20.5t21 11l10.5 3.5t17.5 2.5h2h2q11 0 24 -5l7 17q2 5 7 6.5t9 -1.5q11 -9 4 -22l-6 -13q5 -5 11 -13.5t10 -21.5zM83 228q-4 -91 34 -128l50 113q-4 -1 -7.5 -1h-6.5q-10 2 -10.5 9.5t1.5 11.5q4 13 6 28t0 27.5t-9 20.5t-21 8
q-9 0 -17 -10q-7 -8 -12.5 -26.5t-7.5 -52.5zM266 236q-5 20 -11 40.5t-13 41.5l-104 -233q13 -7 26 -8q29 -5 49 6t32 26q14 18 23 41q6 26 3 51t-5 35zM267 455q1 -2 1.5 -5t2.5 -6l39 87q-9 5 -19 3t-15 -12.5t-7 -14.5q-2 -6 -2 -8l-2 -14q-1 -6 -0.5 -14t2.5 -16z" />
    <glyph glyph-name="quotesingle" unicode="'" horiz-adv-x="128" 
d="M78 759q22 -5 24.5 -31.5t-17.5 -55.5q-8 -12 -18 -17t-18 -7q-10 -2 -20 0q-11 2 -8 10q0 1 4 3q2 0 4 1q7 1 9.5 7.5t2.5 15.5t-1 19.5t-1 19.5q-1 19 11.5 28.5t27.5 6.5z" />
    <glyph glyph-name="parenright" unicode=")" horiz-adv-x="921" 
d="M27 239q3 3 7 4.5t4 -3.5q2 -7 9.5 -20.5t18.5 -21.5q15 -10 38 -19t53 -14.5t67.5 -6t80.5 5.5q66 10 128.5 21t121 15.5t111.5 -1.5t100 -31q45 -24 69.5 -51.5t35 -54t11.5 -49t0 -36.5q-1 -17 -7.5 -33.5t-18 -30t-27.5 -23t-35 -11.5q-6 -1 -9 4t1 10q6 7 12 18.5
t9.5 27t3 35t-7.5 43.5q-11 35 -35 66t-59.5 53.5t-83 34t-104.5 7.5q-45 -3 -79.5 -7t-61.5 -8.5t-47.5 -8.5t-38.5 -6q-17 -3 -52 -9t-74.5 -8t-76.5 4.5t-58 30.5q-11 13 -15 24t-3.5 20t4.5 16.5t8 12.5z" />
    <glyph glyph-name="asterisk" unicode="*" horiz-adv-x="166" 
d="M76 651q-8 1 -12 11q-5 -5 -11.5 -8t-9.5 7q-3 12 4 26h-7.5t-7.5 1.5t-4.5 4t0.5 7.5q6 13 19 18q-4 5 -5.5 11.5t6.5 11.5q7 5 13 4.5t11 -2.5q0 2 0.5 2.5t0.5 1.5q2 7 6.5 14t12.5 2q4 -2 6 -5l4 -6q5 5 11 8t10 -3q4 -7 2 -14t-6 -14h7q6 0 11.5 -3t-0.5 -13
q-7 -9 -16 -15q0 -1 1 -2q3 -5 4 -11t-10 -11q-11 -6 -22 -2q-2 -7 -5.5 -15t-12.5 -6z" />
    <glyph glyph-name="plus" unicode="+" horiz-adv-x="207" 
d="M187 283q-5 -20 -20 -28t-27 -10q-6 -1 -11.5 -1.5t-10.5 0.5h-1q-2 -5 -6 -13q-6 -13 -16.5 -30.5t-26.5 -20.5q-9 -2 -13 1.5t-4.5 9.5t0.5 13.5t3 13.5q3 13 9 27h-19q-10 2 -18.5 8.5t-0.5 23.5q7 15 18 23.5t22 10.5q7 1 14 1.5t14 0.5q2 6 5 12t5 12
q6 12 17.5 26.5t25.5 13.5q11 -1 14 -10t0 -21l-6 -18t-7 -17q3 -1 9 -1q5 0 11.5 -1t11.5 -4t7.5 -8t0.5 -14z" />
    <glyph glyph-name="comma" unicode="," horiz-adv-x="128" 
d="M85 76q15 -8 18 -25.5t-16 -46.5q-8 -11 -18 -16t-18 -7q-11 -2 -20 -1q-11 2 -9 10q0 1 5 4q2 1 4 1q6 1 8.5 7.5t2.5 15.5t-1 19.5t-1 19.5t5 14.5t12.5 7t15 1t12.5 -3.5z" />
    <glyph glyph-name="hyphen" unicode="-" horiz-adv-x="252" 
d="M208 218q-3 -20 -17.5 -28t-25.5 -10q-6 -1 -11.5 -1.5t-10.5 0.5q-18 0 -36.5 0.5t-37.5 0.5q-10 2 -19.5 8.5t-2.5 23.5q5 15 15.5 23.5t21.5 10.5q23 3 45.5 2t45.5 -3q11 -1 23.5 -5t9.5 -22z" />
    <glyph glyph-name="period" unicode="." horiz-adv-x="140" 
d="M74 80q14 0 22.5 -10t6.5 -24t-12 -24t-24 -10t-22.5 10t-6.5 24t12 24t24 10z" />
    <glyph glyph-name="slash" unicode="/" horiz-adv-x="338" 
d="M326 522q-13 -43 -38 -105t-53.5 -126t-55.5 -120.5t-44 -89.5q-10 -20 -27.5 -58t-40.5 -83q-12 -22 -22.5 -36t-31.5 -6q-6 3 -7 18.5t2 26.5q8 33 20 59.5t20 41.5q2 4 3 6.5t3 4.5q22 45 53.5 111t63.5 136.5t61 138.5t48 116q2 4 3.5 12t3.5 14.5t6.5 10.5t13.5 0
q10 -4 15 -12t7 -17.5t1.5 -19.5t-2.5 -18q0 -1 -2 -5z" />
    <glyph glyph-name="zero" unicode="0" horiz-adv-x="599" 
d="M507 547q32 -14 48.5 -38.5t21.5 -56t0.5 -66.5t-14.5 -68q-28 -90 -74 -160q-20 -30 -45 -59t-57 -51.5t-70.5 -36t-83.5 -13.5l-1 1q-34 0 -68 10t-63.5 30.5t-50.5 51t-29 71.5t1 92t40 113q26 53 57 91.5t63.5 66t64.5 46.5t61 33q14 6 38 11.5t47 -2.5q2 -1 5.5 -3
t3.5 -6q0 -1 -4 -5q-25 -9 -59 -27t-71.5 -49.5t-75.5 -79t-70 -115.5q-29 -60 -34.5 -104t3 -75t27.5 -50.5t40 -30.5t39.5 -15t26.5 -5q9 -1 26.5 0t41 7.5t51 20t57.5 38.5q29 25 50.5 56t34.5 54q11 21 20.5 44.5t12.5 31.5q11 34 18 67.5t6.5 62.5t-8.5 51t-27 32
q-18 9 -37.5 8.5t-38.5 -8.5t-37 -21.5t-34 -28.5q-38 -36 -74 -88q-22 -33 -34 -60.5t-17.5 -49.5t-5 -40t4.5 -31q9 -32 35 -50q5 -4 9 -8q3 -4 5.5 -7.5t0.5 -7.5q-2 -5 -6 -5t-9 1t-12 4q-29 15 -46 34.5t-25 41t-8.5 44.5t3.5 45q9 50 40 105q25 42 51 71.5t51 48.5
t48 29t44 14q48 10 92 -7z" />
    <glyph glyph-name="one" unicode="1" horiz-adv-x="248" 
d="M238 589q5 -14 5.5 -35t-9.5 -51q-9 -26 -29.5 -69.5t-43.5 -94t-44 -102t-29.5 -93.5t-0.5 -70t42 -30q5 -1 9 0q9 2 18 7q1 1 2 1h3q2 -2 -1 -8q-4 -8 -11.5 -18t-18.5 -17.5t-27 -10.5t-37 2q-29 7 -41.5 34.5t-12.5 66t11.5 84t30.5 89.5q13 31 31.5 67t37.5 72
t36 70.5t28 62.5q-37 -25 -62.5 -25t-41.5 11q-1 0 -2 1q-3 2 -2 3l1 1q2 2 4 2q20 0 48.5 21.5t62.5 53.5q3 3 8 4q4 1 9 0t11 -6q2 -2 3.5 -4t3.5 -4q5 -7 8 -15z" />
    <glyph glyph-name="two" unicode="2" horiz-adv-x="445" 
d="M367 301q-5 -7 -22 -27.5t-43 -43.5q-18 -17 -43 -38t-53 -44.5t-56 -48.5t-53 -50q40 -3 84 -5t83 -0.5t68 9.5t40 26q0 1 1 2t4 1l3 -3v-3q0 -9 -3.5 -19.5t-12 -20.5t-23.5 -18t-39 -12t-54 -5t-62 -0.5t-65.5 2t-64.5 2.5v-1v1q-18 0 -28.5 4.5t-15 11.5t-5 15
t0.5 14q2 8 6 14.5t7 10.5q11 12 22.5 23.5t24.5 22.5q22 20 49.5 41.5l55 43t54.5 42.5t50 41l18 18q39 45 60 87t30 75t9.5 55t-0.5 28q-1 9 -4 15t-6 10q-4 4 -8 7q-13 6 -35 -3q-19 -8 -50 -31t-78 -74q-3 -3 -6 -5q-7 -4 -12 2q-10 12 -10.5 24t2.5 21q4 11 11 21
q54 52 94.5 67t67.5 12q32 -4 55 -26q16 -17 21 -42t5 -48q0 -27 -5 -56q-5 -30 -23 -68.5t-46 -76.5z" />
    <glyph glyph-name="three" unicode="3" horiz-adv-x="431" 
d="M422 253q0 -14 -3 -31q-3 -14 -9 -33t-17 -41q-14 -26 -36.5 -52.5t-57.5 -51.5q0 -1 -1 -1q-37 -25 -79 -37t-89 -4h-1q-1 0 -1 0.5t-1 0.5q-2 1 -3.5 1t-3.5 1q-10 3 -27 9.5t-33.5 18.5t-30.5 29.5t-18 43.5q-1 3 -1 8q0 2 -0.5 3t-0.5 3q0 11 1.5 23t5.5 26
q3 9 6.5 18t8.5 19q5 11 10.5 19t9.5 13q4 6 9 10q8 7 25 15t39 1q2 0 3 -1q8 -3 4 -11q-2 -4 -5 -7q-5 -6 -9.5 -11.5t-9.5 -11.5q-1 -1 -1 -1.5t-1 -1.5q-12 -16 -22 -34q-8 -15 -15 -34.5t-6 -38.5h1q-1 0 -1 -1q1 -15 8 -28.5t24 -24.5q11 -8 23 -12q1 0 1.5 -0.5
t2.5 -0.5q4 -2 7.5 -3t8.5 -2t8.5 -1.5t7.5 -1.5q35 -3 67 14.5t58 43.5q3 3 15 17.5t26 35.5t26 46.5t15 50.5q4 34 -12 63q-2 4 -6 10q-7 -5 -17.5 -8t-21 -4t-19.5 1t-13 7q-8 10 -3.5 16.5t5.5 7.5q16 9 28 21t21 25t15.5 24.5t9.5 19.5q1 2 1.5 5t1.5 5h1
q17 45 18.5 75.5t0.5 38.5q-1 9 -4 15t-6 10q-4 4 -8 7q-14 6 -36 -3q-20 -8 -50.5 -31t-77.5 -74q-3 -3 -6 -5q-2 -2 -5.5 -2t-5.5 4q-10 12 -10.5 24t2.5 21q4 11 11 21q54 52 94.5 67t67.5 12q32 -4 55 -26q16 -17 21 -42t5 -48q0 -27 -6 -56q-2 -16 -8.5 -34t-15.5 -38
l-1 -1q-4 -10 -7 -14q20 -20 31.5 -45.5t11.5 -60.5z" />
    <glyph glyph-name="four" unicode="4" horiz-adv-x="390" 
d="M373 593q8 -14 10 -37t-10 -59q-5 -15 -13.5 -35t-20 -44.5t-24 -51.5t-25.5 -55q25 -10 33.5 -25.5t10.5 -29.5v-3q0 -4 -2 -4q-1 -1 -3 1l-2 2q-7 10 -20.5 16t-31.5 8q-18 -43 -32 -83.5t-17.5 -73t6.5 -53t40 -22.5q4 -1 8 0q10 2 19 7q0 1 1 1h3q3 -1 0 -8
q-5 -8 -12.5 -18t-18.5 -17.5t-27 -10.5t-37 2q-29 7 -41.5 34.5t-12.5 66t11.5 84t30.5 89.5q0 2 0.5 2.5t0.5 1.5q-44 -3 -90.5 -10t-86.5 -13q-11 2 -15.5 9t-5 14.5t1 13.5t2.5 8q25 15 56.5 51.5t66 80.5t70 87.5t67.5 71.5q25 21 45 25.5t35 0.5q5 -2 14 -7.5
t16 -16.5zM217 320q18 37 39 76t39 76t31 68.5t16 54.5q-18 -6 -39 -23t-42.5 -41t-42.5 -52t-41 -55t-38 -51t-32 -39q-14 -16 -26 -25q36 5 71 8t65 3z" />
    <glyph glyph-name="five" unicode="5" horiz-adv-x="424" 
d="M454 630q1 -1 1 -3q0 -1 -1 -3q-3 -11 -10.5 -21.5t-21 -18.5t-34.5 -13.5t-52 -5.5q-20 0 -47 2.5t-58 5.5q2 -14 0.5 -32t-9.5 -41q-4 -14 -11.5 -31.5t-17.5 -39.5q33 -3 72 -13t72.5 -30t56.5 -52t23 -81q1 -14 -3 -31q-3 -14 -9.5 -33t-17.5 -41q-14 -26 -36 -52.5
t-57 -51.5q0 -1 -1 -1q-38 -25 -79.5 -37t-88.5 -4h-1q-1 0 -1.5 0.5t-1.5 0.5q-2 1 -3.5 1t-3.5 1q-10 3 -27 9.5t-33.5 18.5t-30.5 29.5t-18 43.5q0 5 -1 8v6q-2 23 7 49q2 9 5.5 18t8.5 19q5 11 10.5 19t10.5 13q5 6 9 10q8 7 25 15t38 1q3 0 4 -1q8 -3 4 -11
q-2 -4 -5 -7q-5 -6 -9.5 -11.5t-9.5 -11.5l-3 -3q-12 -16 -22 -34q-8 -15 -15 -34.5t-5 -38.5v-1q1 -15 8 -28.5t24 -24.5q9 -7 23 -12q1 0 1.5 -0.5t1.5 -0.5q9 -4 17 -5q4 -1 8 -1.5t8 -1.5q35 -3 66.5 14.5t58.5 43.5q3 3 14.5 17.5t25.5 35.5t26.5 46.5t15.5 50.5
q4 32 -9 57.5t-37.5 44.5t-58 32t-71.5 20q-7 1 -13.5 2t-13.5 2q-12 3 -16.5 11t-4.5 16.5t2 16.5t4 11q17 34 30.5 64.5t19.5 54.5q2 6 3 11.5t2 10.5t6 12.5t18 8.5q38 -3 75 -5.5t68.5 -2.5t55 3.5t34.5 12.5q1 2 4 2h1v0z" />
    <glyph glyph-name="six" unicode="6" horiz-adv-x="389" 
d="M377 613q28 -15 41 -44q11 -25 9 -68.5t-36 -110.5q-7 -10 -17 -17q-8 -6 -19.5 -9t-26.5 3q-6 2 -4 10q1 4 3 8q34 60 46.5 96.5t14.5 56.5q2 24 -7 35q-4 3 -9 6q-10 5 -27 2q-6 -2 -29.5 -10t-56 -30t-69 -60.5t-68.5 -100.5q32 14 75 11.5t100 -32.5q28 -15 47 -38
t29.5 -50t13 -56.5t-2.5 -58.5t-17 -54t-32 -45l-4 -4l-4.5 -4.5l-5.5 -5.5q-13 -10 -35 -22.5t-51 -17.5q-38 -8 -81 2t-78.5 37t-56.5 72.5t-16 110.5q2 26 9 56t21 63q21 52 45.5 92.5t50 70t51.5 49.5t51 33q26 14 52 22q23 7 48 9.5t46 -7.5zM285 326q-48 25 -90 23
q-18 -1 -36.5 -7.5t-36 -21.5t-32 -41t-23.5 -66q-5 -47 6.5 -79t29.5 -51.5t38 -28t34 -8.5q11 -3 32.5 1t45 17.5t45 37.5t32.5 61q13 45 7 76t-17 51q-14 23 -35 36z" />
    <glyph glyph-name="seven" unicode="7" horiz-adv-x="426" 
d="M414 599q2 -5 3 -10.5t2 -11.5q1 -15 -5.5 -35t-24.5 -46q-12 -17 -36 -44.5t-54 -61t-62.5 -71.5t-62.5 -76t-53.5 -74t-35.5 -66t-9 -52t27 -31l8 -2q9 -2 20 1h2h3q2 -3 -3 -8q-7 -6 -17 -13.5t-23 -11t-29 -2t-35 12.5q-26 15 -30 45t7.5 67t36 77t55.5 76
q26 30 65 71.5t79.5 85t76.5 85t56 72.5q-55 -2 -109 -7t-88 -4q-31 1 -52 6.5t-34.5 14.5t-20 19.5t-9.5 21.5q-1 2 -1 3q0 2 1 3h1l4 -2q14 -12 47 -16t76 -3t92 4t95 3q8 -1 19.5 -4.5t17.5 -15.5z" />
    <glyph glyph-name="eight" unicode="8" horiz-adv-x="443" 
d="M422 394q-2 -1 -4 -3q-3 -3 -9 -6q-8 -6 -21 -12t-30 -11q1 -1 5 -3q29 -15 46.5 -38t25 -50t5 -56.5t-13.5 -58.5t-29 -54t-44 -45q-2 -2 -5 -4q-2 -2 -5.5 -4.5t-8.5 -5.5q-16 -10 -42.5 -22.5t-61.5 -17.5q-31 -5 -65 -2.5t-64 14t-53.5 32.5t-34.5 51q-2 7 -7 24
t-4 42.5t10.5 58.5t36.5 71q11 15 25.5 29t30.5 25t32.5 19.5t31.5 12.5q11 4 22.5 6.5t23.5 3.5q-13 13 -19 31q-2 4 -5 15.5t-2.5 28.5t6.5 39t24 47q15 21 38 36.5t42 20.5q26 10 58.5 10t71.5 -20q19 -10 30.5 -25.5t16.5 -34.5t3 -39.5t-9 -39.5q-16 -40 -48 -65z
M272 393q5 -2 10.5 -3t10.5 -2q2 -1 5 -1q8 -1 21.5 0t30 10t33 27.5t30.5 52.5q12 29 11.5 48.5t-7 32t-17 18.5t-17.5 9q-6 1 -12.5 2t-13.5 1q-18 -1 -42.5 -13.5t-48.5 -53.5q-14 -28 -19 -53q-5 -21 -1 -42.5t26 -32.5zM354 168q23 45 24 75.5t-7 48.5q-9 21 -27 34
q-51 24 -99 22q-21 -1 -43 -7.5t-43.5 -21.5t-41.5 -41t-36 -66q-14 -47 -10 -78t18.5 -49.5t36.5 -27t45 -11.5q12 -3 35 2t50 19t53.5 39t44.5 62z" />
    <glyph glyph-name="nine" unicode="9" horiz-adv-x="464" 
d="M370 603q7 -3 19.5 -12t26.5 -25t26.5 -40.5t17.5 -58.5t0.5 -79t-24.5 -103q-5 -14 -17.5 -43t-32 -63.5t-46 -69.5t-60 -62t-73 -40.5t-85.5 -4.5h-1q-1 0 -1 0.5t-1 0.5q-7 1 -23.5 7t-35 17.5t-35 30.5t-22.5 48q-2 4 -2 7q-3 19 -0.5 41.5t12.5 49.5q9 22 16 32
q4 6 8 10q8 8 23.5 16t37.5 0q4 -2 4.5 -5t-0.5 -6q-1 -4 -4 -7q-5 -7 -9 -13.5t-8 -12.5q-10 -16 -18 -34q-7 -15 -11.5 -34.5t-1.5 -38.5v1v-2q3 -19 15.5 -36t40.5 -28q5 -2 10 -3t10 -3q24 -6 45.5 -0.5t40.5 18.5t35 31.5t30 38.5q32 48 57 113q-35 -14 -79.5 -11.5
t-101.5 32.5q-28 15 -46.5 37.5t-27.5 49.5t-9 57t8 59q8 28 22.5 53.5t36.5 45.5l4 4q2 2 5 4.5t8 5.5q14 10 37.5 22t55.5 17q62 12 123 -14zM406 408q9 47 -0.5 78.5t-26.5 51t-37.5 28.5t-35.5 9q-12 3 -35 -1t-48.5 -17.5t-50 -37.5t-38.5 -61q-17 -46 -14 -76.5
t14 -50.5q12 -23 34 -37q48 -25 93 -23q19 1 39 7.5t39.5 22t36.5 41.5t30 66z" />
    <glyph glyph-name="equal" unicode="=" horiz-adv-x="249" 
d="M151 271q9 -1 20.5 -4.5t8.5 -19.5q-3 -18 -15.5 -25t-22.5 -9q-5 -1 -10 -1.5t-10 -0.5q-17 1 -33 1.5t-33 0.5q-9 1 -17.5 7t-2.5 22q5 13 14 20.5t19 9.5q21 3 41.5 2t40.5 -3zM187 349q4 0 10 -1t10.5 -3t7 -7t1.5 -13q-3 -18 -15.5 -25t-23.5 -9q-5 -1 -9.5 -1h-9.5
q-17 1 -33.5 1t-33.5 1q-8 1 -16.5 6.5t-2.5 21.5q5 14 14 21.5t18 9.5q22 2 42.5 1t40.5 -3z" />
    <glyph glyph-name="at" unicode="@" horiz-adv-x="434" 
d="M263 156q-6 2 -10 8q-3 5 -3.5 14t4.5 25q-2 -4 -5.5 -11.5t-10 -15t-16 -13t-21.5 -5.5q-14 1 -21 11t-8 22q-1 13 2 28q2 10 6 19.5t6 15.5q6 11 12 20t12 16q9 11 20 18q10 6 22.5 9.5t29.5 -1.5q8 -2 12 -8q4 -5 6 -14.5t-3 -25.5q6 -2 6.5 -7.5t-2 -13t-6.5 -15
t-7 -12.5v-1q-2 -4 -3.5 -7.5t-3.5 -7.5q-5 -11 -7.5 -22t3.5 -12l1 1q1 0 4.5 0.5t6.5 2.5q9 3 20 10.5t20 21t15 34.5t6 51q-1 38 -14.5 59t-30.5 30q-19 11 -44 12q-38 -1 -62.5 -26.5t-37.5 -55.5q-16 -35 -24 -80q-8 -62 4 -95.5t30 -49.5q21 -18 50 -21
q27 -1 45.5 6.5t31 19.5t19.5 26.5t11 27.5q2 5 7 10.5t13 1.5q10 -5 9 -16t-3 -16q-19 -40 -43.5 -59t-47.5 -27q-26 -9 -54 -7q-35 4 -59.5 15t-41 26.5t-26 33.5t-13.5 36q-11 42 0 94q3 28 16.5 61t36.5 60.5t57 45t79 15.5q37 -2 64.5 -17.5t42.5 -40t17 -55.5t-11 -62
q-13 -32 -30 -50t-33 -26q-18 -11 -38 -12v1q-2 -1 -3.5 -0.5t-3.5 0.5zM252 230q4 8 10.5 18t16.5 16q5 20 2 27q-2 4 -4 4q-11 2 -26.5 -12.5t-33.5 -52.5q-9 -19 -11.5 -29.5t-1.5 -15.5q1 -6 6 -7q6 0 12 5t11 12t9.5 15t6.5 13q0 1 2 5q0 1 1 1v1z" />
    <glyph glyph-name="A" unicode="A" 
d="M1102 232q8 -4 4 -11l-4.5 -9t-12.5 -23.5t-18.5 -33t-23.5 -37.5q-38 -61 -73 -93q-7 -8 -15 -13q-7 -5 -16 -8.5t-19 -2.5q-31 3 -47.5 20.5t-23.5 42.5t-6 53t6 54q-23 8 -48 17.5t-50 19.5q-53 -50 -112 -97t-121 -84q-77 -46 -136.5 -76.5t-107.5 -43.5t-88 -7.5
t-77 32.5q-37 26 -48.5 65.5t-6 83.5t23 87.5t38.5 76.5q28 46 68 86.5t84.5 68t90.5 37.5t86 -5q15 -8 22 -27q6 -17 6 -47t-16 -81q33 6 70.5 5t79.5 -10q34 -8 69.5 -18t70.5 -21q17 16 52.5 52.5t76 84t79.5 101t62 103.5q0 3 3.5 12t11.5 9q5 0 15 -13.5t17.5 -35.5
t8 -50t-14.5 -58q-20 -35 -39 -70q-17 -30 -35 -66.5t-31 -68.5q-1 -6 -3 -12q-2 -5 -4.5 -12.5t-4.5 -16.5q33 1 57 15q3 2 6 -0.5t1 -5.5q-2 -6 -6.5 -14t-13 -15t-21.5 -12t-32 -5q-6 -27 -8 -54.5t4 -47.5q3 -13 9 -16.5t12 -1.5q7 1 14 7q27 25 66 85q12 19 22.5 37.5
t18.5 32.5q9 17 16 31q3 8 12 4zM163 -61q19 -20 60 -15.5t94.5 25.5t114.5 53.5t118.5 70t106 75.5t78.5 68q-39 16 -76 28.5t-66 15.5q-35 3 -71 1t-71 -12q-20 -52 -44 -89t-47 -60t-42 -31.5t-29 -3.5q-6 3 -13.5 15t-9.5 29.5t4.5 39.5t28.5 45q23 24 55 44.5t74 31.5
q16 30 21.5 54t5 41.5t-5 27.5t-9.5 12t-26.5 1t-55 -20t-77 -63t-94.5 -128q-30 -47 -44 -94q-6 -20 -10 -41.5t-2.5 -42.5t9 -41t23.5 -37zM405 232q-31 -14 -56 -36t-43 -53q13 3 29 14q14 9 31.5 26.5t38.5 48.5zM773 226q23 -7 44.5 -13t41.5 -11q2 9 4 17t4 13
q2 6 4 11q17 47 37 91t42 84q-26 -32 -72 -83.5t-105 -108.5z" />
    <glyph glyph-name="B" unicode="B" horiz-adv-x="1279" 
d="M1032 335q7 0 28 5.5t46 18t49 32.5t36 49q9 20 9 41.5t-8 41t-23.5 34t-37.5 19.5q-19 3 -35 2q-31 -42 -69 -111.5t-79 -154.5q-47 -97 -70.5 -166t-31.5 -116t-5 -74.5t9 -41.5q3 -7 -2 -13t-13 -4q-30 9 -43.5 33t-15.5 57.5t5 73t19 80.5q28 94 84 209
q29 60 51.5 103t39.5 70q5 9 11 16.5t12 15.5q-23 -4 -63 -2.5t-114 7.5q-58 5 -104 5t-78 -2q-38 -2 -67 -6q-63 -7 -114.5 -24.5t-93 -41.5t-72.5 -53.5t-54 -60.5q-27 -36 -43.5 -70.5t-25.5 -62.5q-11 -33 -15 -62q-7 -50 -4 -87.5t13 -65.5t24.5 -47.5t31.5 -32.5
q39 -30 92 -34q60 -4 108 11t84.5 40.5t61 58t36.5 63.5q17 42 13 70.5t-12 42.5q-3 5 0.5 10.5t10.5 4.5q16 -2 34 -12.5t28 -31.5t5 -53t-36 -75q-23 -32 -49 -54.5t-53.5 -38.5t-55.5 -26t-53 -16q-60 -13 -121 -9q-49 3 -86.5 18t-66 38.5t-48 53.5t-31.5 62
q-17 48 -17.5 92t7.5 79q8 40 25 76q30 70 84.5 117t121.5 77t142 45t147.5 20.5t136 4t108.5 -4.5q42 -3 80 -3q32 0 66 3.5t56 13.5q25 18 46.5 24t34.5 7q5 0 6.5 -4.5t-2.5 -8.5q-2 -2 -5 -5.5t-6 -6.5q7 1 14.5 2t15.5 1q22 1 46.5 -4t43.5 -20.5t29 -42.5t4 -69
q-7 -47 -39.5 -76t-69.5 -46q-43 -19 -95 -28q54 -7 93 -28q16 -9 31 -22t24 -31.5t11 -42.5t-7 -54q-12 -41 -35.5 -69.5t-53.5 -47t-63.5 -26.5t-64 -6.5t-55.5 12t-38 28.5q-10 13 -12.5 27.5t0.5 29t11 27t19 22.5q24 21 55.5 26.5t52.5 -8.5q4 -4 8 -9q3 -5 4.5 -12
t-1.5 -16q-2 -5 -6 -6t-8 1q-5 2 -13 4.5t-19 2.5q-14 0 -29.5 -6t-26.5 -21t-11 -30t7 -27t20 -20t28 -10q25 -3 51 8q22 9 46.5 32t46.5 71q17 39 12 71.5t-22 57.5t-40.5 42t-42.5 24q-7 3 -9 10t3 13q1 0 2 1q2 2 4 2z" />
    <glyph glyph-name="C" unicode="C" horiz-adv-x="1260" 
d="M922 -101q-18 1 -34 7.5t-27 14.5q-13 9 -24 20q-21 22 -30.5 50.5t-10.5 60t5.5 64.5t15.5 64q22 73 65 152q19 32 37.5 59.5t36.5 50.5q-10 -3 -23.5 -3.5t-34.5 1t-50.5 5.5t-70.5 10q-54 8 -97 10.5t-73 2.5q-35 0 -62 -2q-60 -3 -109 -16.5t-89 -33.5t-70.5 -45.5
t-53.5 -53.5q-27 -32 -44.5 -63t-27.5 -57q-12 -30 -18 -57q-9 -46 -8 -81.5t8.5 -62.5t20 -45.5t27.5 -31.5q34 -30 84 -38q55 -7 101 4.5t81 33.5t59.5 51t38.5 56q18 38 15.5 65t-8.5 41q-2 5 1.5 10t9.5 3q15 -3 31.5 -14t24.5 -31t1.5 -49t-37.5 -68q-46 -56 -101 -81
t-103 -32q-56 -9 -114 -2q-45 5 -79.5 21.5t-60 40t-42 52.5t-25.5 60q-14 45 -11.5 86t11.5 73q10 37 28 70q32 63 85.5 104t118 65t135.5 34t138.5 11t126.5 -4t101 -10q40 -6 76 -8q31 -2 63 -0.5t52 10.5q48 54 89.5 79t73.5 35q36 11 67 8q9 -2 21 -8t21.5 -22.5
t12.5 -45.5t-7 -76q-12 -54 -21.5 -82.5t-16.5 -41.5q-4 -7 -12 -8t-13 6q-14 17 -15.5 39t0.5 31q0 4 1 6q3 7 12 30t16 48.5t8.5 48t-10.5 30.5q-13 9 -43 -4.5t-68.5 -51.5t-82 -101.5t-83.5 -154.5q-28 -67 -44 -125q-7 -25 -12 -50t-5.5 -47.5t3.5 -40.5t15 -28
q33 -15 74 -11q18 1 38.5 7t44.5 18t50 32t55 49q13 13 29 33.5t36 51.5q12 19 22.5 37.5t18.5 32.5q9 17 16 31q5 8 12 4q8 -4 4 -11l-4.5 -9t-12.5 -23.5t-18.5 -33t-22.5 -37.5q-20 -32 -39 -54.5t-35 -38.5q-42 -44 -78.5 -69.5t-66.5 -38.5t-52.5 -16t-37.5 -2z" />
    <glyph glyph-name="D" unicode="D" horiz-adv-x="1330" 
d="M1266 547q17 -17 31 -43t20.5 -60.5t4.5 -78.5t-18 -96q-23 -77 -53 -128.5t-62 -83.5t-64.5 -47.5t-60.5 -21t-49.5 -4.5t-31.5 3q-26 4 -46 15t-31 26q-10 13 -12.5 27.5t0.5 29t10.5 27t19.5 22.5t26 17t29 9.5t28.5 0.5t24.5 -9q4 -4 8 -9q3 -5 4.5 -12t-1.5 -16
q-2 -5 -6 -6t-8 1q-5 2 -13 4.5t-19 2.5q-14 0 -29.5 -6t-26.5 -21t-11 -30t7 -27t20 -20t28 -10q23 -3 51.5 3t60 33t64.5 81.5t65 149.5q15 46 20 85t3 70.5t-10.5 55t-20.5 39.5q-13 18 -27.5 29t-27.5 17q-15 7 -29 10q-16 3 -36 0q-30 -42 -68 -111t-78 -153
q-47 -97 -70.5 -166t-32 -116t-5.5 -74.5t10 -41.5q3 -7 -2.5 -13t-13.5 -4q-30 9 -43.5 33t-15.5 57.5t5.5 73t19.5 80.5q28 94 84 209q29 60 51.5 103t39.5 70q10 17 22 32q-22 -4 -62 -2.5t-114 7.5q-59 5 -105 5t-78 -2q-38 -2 -66 -6q-63 -7 -115 -24.5t-93 -41.5
t-72.5 -53.5t-54.5 -60.5q-26 -36 -42.5 -70.5t-25.5 -62.5q-11 -33 -15 -62q-7 -50 -4 -87.5t13 -65.5t24.5 -47.5t31.5 -32.5q39 -30 92 -34q60 -4 108 11t84 40.5t60.5 58t37.5 63.5q16 42 12 70.5t-11 42.5q-3 5 0.5 10.5t9.5 4.5q16 -2 34.5 -12.5t28.5 -31.5t5 -53
t-36 -75q-23 -32 -49 -54.5t-53.5 -38.5t-55.5 -26t-53 -16q-60 -13 -121 -9q-49 3 -86.5 18t-66 38.5t-48 53.5t-31.5 62q-18 48 -18 92t8 79q9 40 25 76q30 70 84.5 117t121.5 77t142 45t147.5 20.5t136 4t108.5 -4.5q42 -3 80 -3q32 0 66 3.5t56 13.5q25 18 46.5 24
t34.5 7q5 0 6.5 -4.5t-2.5 -8.5l-10 -10q6 1 13 1.5t15 -0.5q21 -2 42 -8q18 -5 39 -15.5t41 -30.5z" />
    <glyph glyph-name="E" unicode="E" horiz-adv-x="1181" 
d="M1205 232q7 -3 3 -11l-4.5 -9t-12 -23.5t-18.5 -33t-23 -37.5q-20 -32 -38.5 -54.5t-34.5 -38.5q-42 -44 -78.5 -69.5t-66.5 -38t-53 -15.5t-38 -3q-26 0 -45.5 5.5t-33.5 12.5q-16 8 -27 18q-37 31 -52 77q-6 19 -8.5 43.5t2 54.5t18 65t39.5 76q18 29 40.5 50.5t46 36
t47.5 24t47 14.5q53 12 107 8q-26 13 -37 30t-13 34q-1 -1 -2 -1t-2 -1q-9 -4 -22 -6t-34.5 -1t-54 5t-80.5 11q-54 8 -97 10.5t-73 2.5q-35 0 -62 -2q-60 -3 -109 -16.5t-89 -33.5t-71 -45.5t-54 -53.5q-27 -32 -44 -63t-27 -57q-11 -30 -18 -57q-9 -46 -8 -81.5t8.5 -62.5
t20 -45.5t27.5 -31.5q34 -30 84 -38q55 -7 100.5 4.5t81 33.5t60 51t38.5 56q18 38 15.5 65t-8.5 41q-2 5 1.5 10t9.5 3q15 -3 31.5 -14t24.5 -31t1.5 -49t-37.5 -68q-46 -56 -101 -81t-103 -32q-56 -9 -114 -2q-45 5 -79.5 21.5t-60 40t-42 52.5t-25.5 60q-14 45 -11.5 86
t11.5 73q10 37 28 70q32 63 85.5 104t118 65t135.5 34t138.5 11t126.5 -4t101 -10q36 -5 69 -7q29 -2 60 -1.5t53 7.5q2 11 5.5 21.5t7.5 18.5q4 9 10 17q21 32 45 47t44 20q24 5 47 1q9 -2 21 -8t21.5 -22.5t12 -45.5t-7.5 -76q-11 -54 -21 -82.5t-16 -41.5q-4 -7 -12 -8
t-13 6q-14 17 -15.5 39t-0.5 31q1 2 1 3t1 3q2 5 7.5 18.5t11 31t11 37.5t7.5 38t0.5 31.5t-9.5 19.5q-19 7 -39 4q-17 -2 -38.5 -13.5t-42.5 -40.5q-20 -27 -21 -49t8 -39t23.5 -28t26.5 -16q2 -1 4 -3q4 -4 5 -7q4 -14 -3 -22.5t-21 -10.5q-20 -2 -51 -9.5t-64.5 -26
t-66 -51t-54.5 -83.5q-30 -67 -32 -110.5t8 -69.5q11 -31 35 -47q34 -15 75 -11q18 1 38.5 7t44.5 18t50 32t54 49q13 13 29.5 33.5t36.5 51.5q12 19 22 37.5t18 32.5q9 17 17 31q3 8 12 4z" />
    <glyph glyph-name="F" unicode="F" horiz-adv-x="752" 
d="M523 278q8 2 18 3q8 1 17.5 1.5t18.5 0.5q27 78 48 144t35 99q3 7 6 13.5t7 12.5q-14 2 -24 3.5t-17 3.5q-18 2 -39 6t-48 8.5t-61 9t-79 8.5q-57 4 -104 -7.5t-83 -34t-60 -53.5t-35 -65q-15 -47 -5.5 -78t21.5 -47q3 -5 0 -9.5t-8 -4.5q-20 2 -35.5 11.5t-27 23.5
t-18 30.5t-7.5 33.5q-1 14 0 36.5t12 48.5t35.5 53.5t69.5 51.5q46 25 99.5 31t112 1.5t121 -16.5t128.5 -22q33 -5 63 -6q25 36 51 47.5t43 13.5q5 0 7 -4t-1 -8q-14 -17 -27 -45q35 5 61 14.5t42 20.5q11 8 19 21.5t9 20.5q1 4 5 2.5t6 -4.5q4 -5 8 -12t4.5 -16.5
t-3.5 -20.5t-15 -23q-12 -13 -28.5 -20.5t-36.5 -11.5t-42 -4t-43 2q-12 -30 -24.5 -66t-24.5 -76q-5 -17 -9 -35q-4 -15 -8.5 -33t-8.5 -35q35 10 63 25t44 37q2 3 5.5 2t3.5 -4q1 -7 0 -17t-7 -20.5t-18.5 -21t-33.5 -19.5q-14 -5 -30.5 -8.5t-35.5 -5.5
q-14 -48 -30 -89.5t-30 -73.5q-17 -37 -33 -69q-32 -57 -73 -89.5t-84 -47t-83.5 -14.5t-70.5 8q-20 5 -34.5 11.5t-24.5 12.5q-11 6 -20 13q-37 26 -48.5 66.5t-6.5 85.5t22.5 89t38.5 77q28 46 68 86.5t84.5 68t90.5 37.5t86 -5q15 -7 22 -26q6 -17 6 -47t-16 -81z
M312 -99q41 2 77.5 34.5t68.5 83t59.5 113.5t50.5 127q-14 -2 -27.5 -4t-27.5 -6q-20 -52 -44 -89t-47 -60t-42 -31.5t-29 -3.5q-6 3 -13.5 15t-9.5 29.5t4.5 39.5t28.5 45q23 24 55 44.5t74 31.5q16 30 21.5 54t4.5 41.5t-5.5 27.5t-9.5 12t-26 1t-54.5 -20t-77 -63
t-94.5 -128q-27 -45 -40 -91q-6 -20 -9.5 -41t-2.5 -42.5t7.5 -42.5t20.5 -39q13 -17 27.5 -25t28.5 -11q15 -4 31 -2zM467 232q-31 -14 -56.5 -36t-42.5 -53q13 3 29 14q14 9 31.5 26.5t38.5 48.5z" />
    <glyph glyph-name="G" unicode="G" horiz-adv-x="825" 
d="M1140 -204q4 1 5 -2t-2 -5q-11 -8 -30 -14.5t-49 -6t-72.5 11.5t-98.5 39q-20 9 -42 20q-19 9 -42.5 19.5t-46.5 20.5q-14 5 -34.5 12.5t-46.5 14.5q-29 -60 -67 -123.5t-82.5 -117t-94.5 -90.5t-102 -44q-16 -1 -32 1q-14 2 -29.5 6.5t-28.5 14.5q-20 15 -31 41
q-9 22 -10.5 57t18.5 88q21 54 63 94.5t95 67t112.5 39t114.5 11.5q14 32 26.5 63.5t22.5 56.5q-44 -39 -91.5 -55.5t-88.5 -19t-72 6t-43 20.5q-8 8 -20.5 26t-19.5 46.5t-5 69t22 93.5h-1q-55 -17 -94.5 -45.5t-64.5 -62.5t-36 -71.5t-8 -73.5q1 -25 8 -43.5t16 -31.5
t19 -21.5t18 -13.5q5 -3 4 -8.5t-6 -7.5q-19 -5 -37.5 -2t-34 11.5t-28 21.5t-19.5 28q-6 13 -13 34t-6.5 49.5t13 63t45.5 73.5q42 49 102 77t132 46q8 19 19 39t25 42q50 79 102 126.5t100 73t89.5 34t71.5 8.5t47.5 -9.5t26.5 -21.5q11 -14 15 -32q3 -19 -1.5 -37
t-10.5 -32q-8 -17 -18 -32q-27 -37 -63.5 -60t-73.5 -36.5t-68.5 -20.5t-48.5 -11q-20 -5 -44.5 -9.5t-57.5 -12.5q-42 -81 -61 -131.5t-24 -78.5q-6 -33 0 -47q24 -17 55 -16.5t64 12t66.5 31t63 40.5t52.5 41t35 32l11 14q3 3 11 -1q6 -4 12.5 -13t11.5 -21t7 -26t-2 -28
q-5 -20 -20.5 -62.5t-41.5 -97.5q64 -15 129 -42.5t124 -52t108 -40t82 -7.5zM528 408q-9 -12 -20 -29t-20 -33q-11 -18 -22 -38q19 4 38 7.5t39 8.5q63 14 107.5 35.5t73.5 42.5q33 25 55 52q19 25 27 45t10 34q3 17 -1 30q-8 13 -36.5 12t-69 -18.5t-88 -54t-93.5 -94.5z
M281 -445q7 -1 20 -1t32.5 8.5t46 29t59 61.5t71 106t83.5 162q-59 4 -126.5 -8.5t-136.5 -58.5q-23 -16 -42 -37q-17 -19 -34 -46t-26 -64q-11 -42 -8 -70.5t13.5 -46t24 -26t23.5 -9.5z" />
    <glyph glyph-name="H" unicode="H" horiz-adv-x="1085" 
d="M866 202q9 36 25.5 76t33.5 75q19 40 41 79q13 25 25 51q10 22 20.5 46t16.5 44q1 6 3 11q2 4 4.5 7.5t7.5 3.5t15 -13.5t17.5 -35.5t8 -50t-14.5 -58q-20 -35 -39 -70q-17 -30 -35 -66.5t-31 -68.5q-1 -6 -3 -12q-2 -5 -4.5 -12.5t-4.5 -16.5q33 1 57 15q3 2 6 -0.5
t2 -5.5q-2 -6 -7 -14t-13.5 -15t-21.5 -12t-32 -5q-6 -27 -8 -54.5t4 -47.5q3 -13 9 -16.5t12 -1.5q7 1 14 7q27 25 66 85q12 19 22.5 37.5t18.5 32.5q9 17 16 31q3 8 12 4q8 -4 4 -11l-4.5 -9t-12.5 -23.5t-18.5 -33t-23.5 -37.5q-38 -61 -73 -93q-7 -8 -15 -13
q-7 -5 -16 -8.5t-19 -2.5q-31 3 -47.5 20.5t-23.5 42.5t-6 53t6 54q-35 11 -74.5 27.5t-77.5 30.5q-34 -58 -72.5 -109.5t-80.5 -94t-88.5 -73t-95.5 -46.5q-57 -19 -103.5 -17t-79.5 12q-39 11 -68 31q-37 26 -48.5 65.5t-6 83.5t23 87.5t38.5 76.5q28 46 68 86.5t84.5 68
t90.5 37.5t86 -5q15 -8 22 -27q6 -17 6 -47t-16 -81q33 6 70.5 5t79.5 -10q18 -4 36.5 -9t37.5 -10q40 88 50.5 146.5t5.5 94.5t-18 53t-20 22q-5 2 -2 7q8 10 15.5 13.5t14.5 4.5q8 1 15 -1q19 -6 34 -26t18 -56t-9.5 -88t-48.5 -122q-7 -14 -14.5 -28t-15.5 -28
q38 -11 76 -23t73 -20zM306 -89q51 5 97.5 27.5t86.5 55.5t73.5 71t58.5 73t41 62t22 38q-23 8 -44.5 14t-40.5 8q-35 3 -71 1t-71 -12q-20 -52 -44 -89t-47 -60t-42 -31.5t-29 -3.5q-6 3 -13.5 15t-9.5 29.5t4.5 39.5t28.5 45q23 24 55 44.5t74 31.5q16 30 21.5 54t5 41.5
t-5 27.5t-9.5 12t-26.5 1t-55 -20t-77 -63t-94.5 -128q-28 -44 -41 -88q-12 -38 -11.5 -80.5t30.5 -77.5q15 -18 37.5 -26t44.5 -11q25 -4 52 -1zM412 232q-31 -14 -56 -36t-43 -53q13 3 29 14q14 9 31.5 26.5t38.5 48.5z" />
    <glyph glyph-name="I" unicode="I" horiz-adv-x="574" 
d="M691 629q5 0 7 -4t-2 -8q-14 -15 -29 -43t-31.5 -66t-34.5 -85t-37 -100q-26 -71 -52 -124.5t-48 -90.5q-26 -43 -49 -74q-49 -66 -101 -96t-101 -37q-8 -1 -11 7t4 12q38 23 76 70t74 107t68 126t59.5 126.5t48.5 109.5t35 75q18 35 39 55q-11 -2 -19.5 -2.5t-14.5 -1.5
q-17 -3 -38 -5.5t-48 -6.5t-61.5 -9.5t-77.5 -15.5q-56 -13 -97.5 -38t-69.5 -57t-42 -68.5t-14 -72.5q0 -25 5.5 -44t13.5 -33t17 -23t17 -15q5 -3 3.5 -8.5t-7.5 -6.5q-19 -4 -37 0.5t-33 14t-26 23.5t-17 30q-5 13 -10.5 35t-3 50t17.5 61.5t51 69.5q37 37 86.5 59
t106.5 35t120 20.5t129 17.5q51 6 92 22q12 5 23 7t19 2z" />
    <glyph glyph-name="J" unicode="J" horiz-adv-x="654" 
d="M770 637q5 1 7 -3t-2 -8q-14 -16 -30 -47t-32.5 -71.5t-33.5 -88t-34 -96.5q-23 -68 -45.5 -120t-40.5 -88q-21 -42 -40 -73q-38 -59 -84 -91.5t-92 -47t-88 -14t-72 8.5q-20 5 -34.5 11.5t-23.5 12.5q-11 6 -18 13q-35 26 -43 66.5t1 85t30 89t45 77.5q32 45 75.5 86
t90.5 68.5t94 37.5t86 -5q15 -9 20 -29q5 -17 1 -50t-27 -87q-24 -57 -52.5 -97.5t-55 -65.5t-48 -34.5t-31.5 -4.5q-4 3 -8 9.5t-7 16.5t-3 22.5t5 27.5q2 8 8 4q4 -2 11 -3.5t19 2.5q15 4 33 16q16 11 37 31.5t47 55.5q25 35 36.5 63.5t13.5 49t-2 32.5t-9 14t-26 1
t-56 -20t-82.5 -63t-105.5 -128q-30 -45 -48 -91q-8 -20 -13 -41t-6 -42.5t3.5 -42.5t16.5 -39q11 -17 25.5 -25t27.5 -11q15 -4 31 -2q46 2 89 41t82.5 98.5t74.5 131.5t64.5 140.5t52.5 126t39 87.5q23 42 45 62q-52 -17 -87 -39t-52 -42q-9 -11 -14.5 -26.5t-4.5 -22.5
q0 -4 -4 -3.5t-7 2.5q-5 3 -10.5 9t-8 14.5t-1 20t9.5 26.5q14 27 46.5 44.5t70 29t74 18t59.5 9.5q4 1 11 1z" />
    <glyph glyph-name="K" unicode="K" horiz-adv-x="1202" 
d="M1374 -80q9 -28 -4 -57t-43.5 -42.5t-76 -4t-100.5 57.5q-47 41 -82 89t-59 94.5t-38 86t-21 63.5q-35 -71 -64 -145t-34 -141q-1 -11 -10.5 -15t-17.5 2q-12 9 -25.5 24t-20.5 37.5t-4.5 53t20.5 69.5q9 20 20 42.5t23 46.5q-27 -5 -58.5 -1.5t-61 10t-54.5 14t-38 10.5
q-17 4 -37 10.5t-46.5 14t-60.5 16t-78 16.5q-56 10 -104 4t-86.5 -24.5t-65.5 -46.5t-42 -61q-10 -23 -12.5 -42.5t-0.5 -35t6.5 -28t9.5 -20.5q3 -5 -0.5 -10t-9.5 -3q-19 4 -33.5 15t-24.5 26t-14.5 32.5t-3.5 33.5q0 15 3.5 37.5t17 47t41 49t75.5 43.5
q49 19 102.5 19.5t111 -10.5t118.5 -29.5t125 -35.5q42 -11 79.5 -14.5t68 -1.5t54.5 8t39 15q4 2 7.5 5t7.5 6q22 45 44.5 92t41 91t31 83t16.5 69q1 9 9.5 13t16.5 -1q12 -8 25 -21.5t21.5 -32.5t9 -44t-12.5 -56q-16 -36 -43.5 -86t-58.5 -108q21 5 50.5 15.5t61.5 30
t64 49t59 73.5q28 46 35.5 76.5t3 49t-16.5 27.5t-23 12q-7 2 -9.5 9t2.5 13q6 7 14 15t18.5 13.5t23.5 8t28 -1.5q7 -2 11 -6q7 -5 18 -18.5t17.5 -36.5t4 -56.5t-23.5 -78.5t-62 -82t-90 -64t-99 -45t-88 -25q28 -100 63.5 -163.5t73 -99t75.5 -48t71.5 -12t59 9
t39.5 15.5q7 3 13 0.5t8 -9.5z" />
    <glyph glyph-name="L" unicode="L" horiz-adv-x="538" 
d="M864 -92q21 -26 16.5 -44.5t-13.5 -28.5q-3 -3 -7 -4t-4 3q-1 7 -8.5 21t-18.5 22q-28 22 -88.5 37.5t-148.5 6.5q-66 -8 -129 -16.5t-121.5 -10.5t-111.5 6.5t-99 35.5q-44 26 -67 54.5t-32.5 55t-10 49t1.5 36.5q2 16 9 32.5t19 30t28 22t36 10.5q6 0 9 -5t-1 -10
q-6 -7 -12.5 -18.5t-11 -27t-4.5 -35t6 -43.5q17 -67 80 -116q37 26 73 72t69.5 101.5t63.5 115.5t55.5 114.5t45 98.5t32.5 67q16 27 34 47q-49 -17 -81.5 -39t-48.5 -42q-8 -11 -12 -26.5t-2 -22.5q1 -4 -3.5 -3.5t-7.5 2.5q-6 3 -11.5 9t-9 14.5t-3 20t7.5 26.5
q12 27 42.5 44.5t67.5 29t72.5 18t58.5 9.5q6 2 11 2h9q5 0 7 -4t-1 -8q-28 -29 -60.5 -103t-70.5 -174q-26 -67 -52.5 -117.5t-47.5 -85.5q-25 -40 -48 -71q-38 -49 -78.5 -76t-79.5 -39q32 -18 73 -28t90 -8q89 3 141 10.5t87 11.5q17 1 52.5 6t74.5 5.5t76 -7.5t57 -33z
" />
    <glyph glyph-name="M" unicode="M" horiz-adv-x="1379" 
d="M1406 232q8 -4 4 -11l-4.5 -9t-12.5 -23.5t-18.5 -33t-22.5 -37.5q-40 -62 -74 -93q-7 -8 -15 -13q-7 -5 -16 -8.5t-19 -2.5q-25 3 -40.5 14.5t-24 29.5t-10.5 39.5t-1 43.5q3 52 23 115q18 51 40.5 99t47.5 90q2 5 5 11q2 5 5.5 12t8.5 16q-68 -66 -122 -130.5
t-95 -121.5t-69.5 -104t-45.5 -78q-8 -14 -23.5 -17t-29.5 5q-15 9 -24 23t-13 31.5t-4.5 36t1.5 36.5q4 42 20 91q15 44 34 85t40 79q-28 -33 -72.5 -81.5t-99.5 -102t-118.5 -105.5t-129.5 -91q-77 -46 -136.5 -76.5t-107.5 -43.5t-88 -7.5t-77 32.5q-37 26 -48.5 65.5
t-6 83.5t23 87.5t38.5 76.5q28 46 68 86.5t84.5 68t90.5 37.5t86 -5q16 -8 23 -28q6 -17 5 -50t-19 -87q-20 -57 -45 -97.5t-49 -65.5t-44.5 -35t-30.5 -4q-5 2 -10 9.5t-9 18.5t-4.5 25t5.5 30q1 4 4.5 4.5t5.5 -2.5q3 -4 9 -6.5t17 -0.5q14 4 31 16q14 11 33.5 31.5
t42.5 55.5q22 35 31 63.5t9.5 49t-4.5 32.5t-10 14t-26.5 1t-54.5 -19.5t-77 -63t-94 -128.5q-29 -47 -44 -94q-6 -20 -10 -41.5t-2.5 -42.5t8.5 -41t23 -37q19 -20 61.5 -15t97 26.5t116 55t119.5 71.5t106.5 76t76.5 68q55 53 106 110q22 24 45 51.5t45 56.5t41.5 58.5
t34.5 58.5q2 5 3 8.5t3 8.5q1 6 3 11q2 4 5 7.5t8 3.5q4 0 14.5 -13.5t17.5 -35.5t7.5 -50t-14.5 -58q-20 -35 -39 -70q-17 -30 -34.5 -66.5t-30.5 -68.5q-17 -47 -28 -85q-5 -16 -8 -32t-3.5 -29.5t2.5 -22.5t11 -11q46 86 97 161.5t98.5 138t88.5 109.5t67 75q24 26 31 36
t8 12h1q4 10 12 10q4 0 14.5 -13.5t17.5 -35.5t7.5 -50t-14.5 -58q-20 -35 -39 -70q-17 -30 -34.5 -66.5t-30.5 -68.5q-12 -36 -20 -69q-7 -29 -10 -59.5t4 -51.5q3 -13 9 -16.5t12 -1.5q7 1 15 7q13 13 29 33.5t36 51.5q12 19 22.5 37.5t18.5 32.5q9 17 16 31q2 4 5.5 5
t6.5 -1z" />
    <glyph glyph-name="N" unicode="N" horiz-adv-x="1168" 
d="M1447 551q1 -5 -1 -8.5t-5 -1.5q-6 4 -21.5 6.5t-28.5 0.5q-14 -2 -33.5 -10t-42 -24.5t-47 -42.5t-49.5 -64q-39 -63 -72 -129q-28 -57 -54 -123.5t-34 -129.5q-2 -6 -5.5 -12.5t-11.5 -10.5q-8 -3 -16.5 -2.5t-16.5 3.5q-17 6 -28 18.5t-18.5 28.5t-11.5 35t-6 37
q-4 43 2 95q7 53 19.5 104.5t28.5 97.5q3 10 6 21q2 10 5 22.5t7 26.5l-22 -33q-66 -83 -141 -162q-32 -34 -69 -70t-78 -71t-84.5 -67.5t-87.5 -58.5q-77 -46 -136.5 -76.5t-107.5 -43.5t-88 -7.5t-77 32.5q-37 26 -48.5 65.5t-6 83.5t23 87.5t38.5 76.5q28 46 68 86.5
t84.5 68t90.5 37.5t86 -5q16 -8 23 -28q6 -17 5 -50t-19 -87q-20 -57 -45 -97.5t-49 -65.5t-44.5 -35t-30.5 -4q-5 2 -10 9.5t-9 18.5t-4.5 25t5.5 30q1 4 4.5 4.5t5.5 -2.5q3 -4 9 -6.5t16 -0.5q14 4 32 16q15 11 34 31.5t42 55.5q22 35 31 63.5t9.5 49t-4.5 32.5t-10 14
t-26.5 1t-55 -19.5t-77 -63t-94.5 -128.5q-30 -47 -44 -94q-6 -20 -10 -41.5t-2.5 -42.5t9 -41t23.5 -37q19 -20 61.5 -15t97 26.5t116 55t119.5 71.5t106.5 76t76.5 68q55 53 106 110q22 24 45 51.5t45 56t41.5 58t34.5 58.5q4 8 5.5 13.5t1.5 7.5q0 5 2.5 11.5t8.5 7.5
q5 0 17.5 -11t24 -31.5t17.5 -48t-3 -59.5q-14 -37 -25 -76q-10 -33 -20.5 -72t-16.5 -73q-8 -51 -11 -91q-2 -35 1.5 -63.5t20.5 -30.5q14 74 39.5 141.5t51.5 120.5q30 62 63 115q12 19 32.5 49.5t46 59t54.5 49t58 20.5q33 0 44.5 -15t13.5 -28z" />
    <glyph glyph-name="O" unicode="O" horiz-adv-x="783" 
d="M301 229q-17 -8 -31 -16t-25 -16q-12 -9 -22 -17q-61 -51 -83 -113t-9 -119q5 -24 14.5 -41t20 -29t21.5 -19t20 -11q5 -2 5 -8t-5 -8q-18 -8 -36.5 -7.5t-35 6.5t-31 17t-23.5 25q-8 12 -18 32t-13.5 48.5t4 64t35.5 79.5q35 55 91.5 91t126.5 65q9 36 19 61q5 13 10 24
q39 85 83.5 139t88.5 86t84 46t70 19q29 4 48 -3t30 -18q12 -12 19 -29q6 -20 4 -39t-7 -35q19 -30 22.5 -80.5t-8.5 -107.5t-38 -115t-65.5 -104t-93 -73t-118.5 -23q-62 4 -96.5 26.5t-49.5 55.5t-15 71.5t7 74.5zM488 438q-15 -22 -28 -47t-22 -47q-11 -26 -20 -50
q18 7 36.5 13.5t37.5 13.5q49 18 85.5 40t62 43.5t40.5 40t22 28.5q-22 21 -55 25q-5 2 -7 6t1 8q6 9 18 17.5t33 9.5q20 1 37 -8q4 16 4 28t-1 20q-2 10 -4 16q-9 11 -33.5 7.5t-58 -22t-72.5 -54t-76 -88.5zM727 253q16 56 16.5 106t-18.5 85q-24 -32 -55.5 -54.5t-62 -38
t-57 -25t-41.5 -15.5q-19 -8 -42.5 -15.5t-55.5 -19.5q-6 -17 -12.5 -41t-11 -51.5t-5 -55t6 -50t21.5 -38.5t43 -20q39 -6 73.5 4.5t63 30.5t52 47t40.5 54.5t28.5 53t16.5 43.5z" />
    <glyph glyph-name="P" unicode="P" horiz-adv-x="848" 
d="M812 592q39 -12 59.5 -50t21.5 -88t-18 -105.5t-59 -103.5q-29 -34 -67 -55t-79.5 -30t-83.5 -6t-78 18q-17 -34 -32 -60t-26 -43q-13 -20 -25 -35q-49 -66 -101.5 -96t-100.5 -37q-8 -1 -11.5 7t4.5 12q28 16 56 46.5t55 69.5t52.5 84t49.5 92q-30 21 -39 46
q-9 28 0.5 42t20.5 19q3 2 6.5 1.5t2.5 -3.5q-2 -6 -1 -23.5t6 -31.5q3 -14 15 -26q23 47 43.5 92.5t38 85t31.5 71t23 49.5q19 35 39 55q-10 -2 -18.5 -2.5t-14.5 -1.5q-17 -3 -38 -5.5t-48 -6.5t-61.5 -9.5t-78.5 -15.5q-56 -13 -97.5 -38t-69.5 -57t-41.5 -68.5
t-13.5 -72.5q0 -25 5.5 -44t13.5 -33t17 -23t17 -15q5 -3 3.5 -8.5t-7.5 -6.5q-19 -4 -37 0.5t-33 14t-26 23.5t-17 30q-5 13 -11 35t-3.5 50t18 61.5t51.5 69.5q37 37 86 59t106.5 35t120.5 20.5t129 17.5q24 3 48 8.5t43 13.5q13 5 24 7t19 2q5 0 7 -4t-2 -8
q-17 -18 -34.5 -53t-37.5 -83q18 20 40 42.5t46 39.5t47.5 26t44.5 3zM800 380q4 12 8.5 32t7 42t2 44.5t-5.5 39t-15.5 25t-28.5 3.5q-27 -7 -52 -26t-46 -42t-37 -45t-24 -35q-8 -23 -17 -46.5t-18 -48.5q-14 -38 -28.5 -71.5t-28.5 -62.5q41 -15 76.5 -11t65 19.5
t54 39.5t42 50t29 51t16.5 42z" />
    <glyph glyph-name="Q" unicode="Q" horiz-adv-x="785" 
d="M419 6q15 -8 27 -14q11 -5 21 -10t15 -7q64 -26 114 -30t79 5q13 4 25 14.5t16 16.5q2 3 5 0.5t5 -6.5q5 -12 2.5 -30.5t-31.5 -35.5q-28 -16 -65 -10t-74 20.5t-68 32t-47 24.5q-53 24 -94 33.5t-71 9.5t-50 -6t-31 -12q-5 -2 -9 1t-2 8q9 22 27 32t39.5 11.5t46 -3.5
t47.5 -13q-22 17 -33.5 39.5t-15.5 48t-2.5 52.5t6.5 52q-13 -5 -26.5 -13.5t-25.5 -16.5q-14 -10 -27 -20q-61 -50 -82 -112t-9 -119q5 -24 14.5 -41t20 -29t21.5 -19t20 -11q5 -2 5 -8t-5 -8q-18 -8 -36.5 -7.5t-35 6.5t-31 17t-23.5 25q-8 12 -18 32t-13.5 48.5t4 64
t35.5 79.5q35 55 91.5 91t126.5 65q9 36 19 61q5 13 11 24q39 85 83.5 139t88 86t83.5 46t70 19q29 4 48 -3t30 -18q12 -12 19 -29q6 -20 4 -39t-7 -35q17 -27 21.5 -71t-3.5 -94.5t-27.5 -103.5t-50.5 -99t-73.5 -80.5t-94.5 -47.5q-14 -4 -32.5 -5t-35.5 0q-20 1 -41 3z
M457 385q-7 -13 -14 -28q-6 -13 -13 -29.5t-12 -33.5q18 7 36.5 13.5t37.5 13.5q49 18 85.5 40t62 43.5t40.5 40t22 28.5q-22 21 -55 25q-5 2 -7 6t1 8q6 9 18 17.5t34 9.5q19 1 36 -8q4 16 4 28t-1 20q-2 10 -4 16q-10 12 -40 7t-69 -30t-82.5 -71t-79.5 -116zM509 311
q-19 -8 -42.5 -15.5t-55.5 -19.5q-6 -17 -12.5 -41t-11 -51.5t-5 -55t6 -50t21.5 -38.5t43 -20q39 -6 73.5 4.5t63 30.5t52 47t40.5 54.5t28.5 53t16.5 43.5q16 56 16.5 106t-18.5 85q-24 -32 -55.5 -54.5t-62 -38t-57 -25t-41.5 -15.5z" />
    <glyph glyph-name="R" unicode="R" horiz-adv-x="845" 
d="M817 -34q6 2 12 -1t8 -10q6 -29 -10.5 -56t-48 -37.5t-76 3.5t-94.5 67q-46 49 -76.5 105t-49.5 108q-15 -28 -27.5 -48.5t-21.5 -34.5q-11 -17 -20 -28q-50 -66 -102 -96t-101 -37q-8 -1 -11 7t5 12q38 23 76 70t73.5 107t68 126t59.5 126.5t48.5 109.5t34.5 75
q9 18 19 31.5t20 23.5q-11 -2 -19 -2.5t-14 -1.5q-35 -6 -87 -12t-139 -25q-56 -13 -97.5 -38t-69.5 -57t-41.5 -68.5t-13.5 -72.5q0 -25 5 -44t13 -33t17 -23t17 -15q5 -3 3.5 -8.5t-7.5 -6.5q-19 -4 -37 0.5t-33 14t-26 23.5t-17 30q-5 13 -10.5 35t-3 50t18 61.5
t51.5 69.5q37 37 86 59t106 35t120.5 20.5t128.5 17.5q25 3 49 8.5t43 13.5q13 5 23.5 7t18.5 2q5 0 7 -4t-1 -8q-17 -18 -34.5 -53t-37.5 -83q18 20 40 42.5t45.5 39.5t47 26t44.5 3q39 -12 59.5 -50t22 -88t-17.5 -105.5t-59 -103.5q-29 -34 -67 -55t-79 -30t-82.5 -6
t-77.5 17q22 -67 51 -110t60.5 -67.5t63 -33.5t59.5 -9.5t50 5t35 10.5zM597 418q-8 -23 -17 -46.5t-18 -48.5q-14 -38 -29 -71.5t-29 -62.5q41 -15 76.5 -11t65.5 19.5t54 39.5t42 50t29 51t16 42q4 12 8.5 32t7 42t2 44.5t-5.5 39t-15.5 25t-28.5 3.5q-27 -7 -51.5 -26
t-45.5 -42t-37 -45t-24 -35z" />
    <glyph glyph-name="S" unicode="S" horiz-adv-x="1098" 
d="M1126 670q13 -15 22 -31t11 -36t-4 -44.5t-24 -55.5q-15 -26 -29 -53t-26 -51.5t-21 -45t-15 -32.5q-2 -5 -8.5 -5.5t-9.5 4.5q-5 11 -10 23t-8 21q-4 11 -3 21t3 18q3 9 7 17q2 5 4.5 9.5t5.5 9.5q5 14 11.5 36.5t10 45.5t2.5 42t-11 26q-10 6 -22 4q-11 -2 -26 -10
t-32 -31q-18 -23 -24 -51.5t-4 -58.5t11 -59t22 -51q5 -11 12 -26q6 -13 14 -31t19 -40q14 -29 21.5 -65.5t-0.5 -71.5q-14 -61 -41 -99.5t-60 -61t-68.5 -31.5t-66.5 -12q-20 -2 -37 -0.5t-29 3.5q-14 3 -25 7q-44 13 -69 41.5t-35.5 63t-9.5 71t7 65.5q8 40 27 79.5
t46 72.5q-29 -5 -54 -6.5t-39 -3.5q-18 -2 -39 -3.5t-48 -4t-61.5 -7t-78.5 -12.5q-57 -11 -99.5 -34t-71.5 -53.5t-44.5 -67t-16.5 -72.5q-2 -25 2.5 -44t12 -33t16 -23.5t16.5 -15.5q5 -4 3.5 -9.5t-7.5 -6.5q-20 -3 -37.5 2t-32 15.5t-25 25t-15.5 30.5q-5 13 -9.5 35.5
t-1 50.5t20 60.5t54.5 67.5q39 36 89 55t108 29.5t121 15.5t129 12q52 6 93 18.5t70 29.5q26 17 53.5 25.5t56.5 5.5q19 -3 34 -16q13 -11 23.5 -35.5t11.5 -67.5q1 -48 -8 -86t-22.5 -64.5t-28.5 -39.5t-27 -12q-10 2 -26 14.5t-20 36.5q0 7 6 5q5 0 12 1t17 7q13 8 24 22
q10 12 21 33t19 54t6 57t-8.5 39.5t-15.5 23.5t-15 8q-5 0 -24.5 -7t-44 -31t-50 -70t-42.5 -124q-9 -43 -5 -81q3 -33 18.5 -66t54.5 -53q17 -9 34 -10.5t31 0.5q16 2 30 7q25 9 43 28.5t30.5 46.5t20.5 59.5t13 68.5t0.5 76t-12.5 74q-10 40 -23 78q-11 36 -12 68t4 59
t14.5 49t20.5 39q22 31 43 46q13 8 24.5 11.5t20.5 5.5q11 2 19 1q8 -2 21.5 -8t24.5 -22q7 20 12 35.5t9 26.5q2 6 8 7.5t11 -3.5z" />
    <glyph glyph-name="T" unicode="T" horiz-adv-x="690" 
d="M902 695q4 -5 8 -12.5t4.5 -16.5t-3.5 -20t-15 -24q-22 -25 -60.5 -31t-79.5 -4q-22 -45 -43.5 -111.5t-38.5 -139.5q-14 -56 -32 -107t-35 -90q-19 -46 -39 -86q-38 -59 -80 -91.5t-83.5 -46.5t-80 -13.5t-68.5 8.5q-20 5 -34.5 11.5t-24.5 12.5q-11 6 -20 13
q-37 26 -48.5 66.5t-6 85.5t22.5 89t38 77q28 46 68 86.5t84.5 68t90.5 37.5t86 -5q16 -9 23 -29q6 -17 5 -49.5t-19 -86.5q-20 -57 -45 -97.5t-49 -65.5t-44.5 -35t-30.5 -4q-9 4 -18.5 25.5t-2.5 50.5q2 6 9 3q4 -2 11 -3.5t18 2.5q14 4 32 16q15 11 34 31.5t42 55.5
q22 35 31 63.5t9.5 49t-4.5 32.5t-10 14t-26.5 1t-55 -20t-77 -63t-94.5 -128q-27 -45 -40 -91q-6 -20 -9 -41t-2.5 -42.5t7 -42.5t20.5 -39q13 -17 27.5 -25t28.5 -11q15 -4 31 -2q46 2 86 41t74 98.5t63 131.5t52.5 140.5t41.5 126t31 87.5q14 30 28 49q-17 2 -31 4.5
t-23 4.5q-18 2 -39 6t-48 8.5t-61 8.5t-79 7q-57 4 -104 -7.5t-83 -34t-60 -53.5t-34 -66q-8 -24 -8.5 -43.5t3 -35t9.5 -27t12 -18.5q4 -5 1 -10t-9 -4q-20 2 -35.5 11.5t-27 23t-18 30t-7.5 33.5q-1 14 0 36.5t11.5 49t35 54t69.5 51.5q46 25 99.5 31t112 1.5t121 -15.5
t128.5 -21q23 -3 43 -4.5t39 -0.5q21 20 40.5 26.5t32.5 8.5q5 0 7 -4t-1 -8l-6 -8t-6 -9q30 5 53 14t37 19q11 8 19 21.5t9 20.5q1 5 5 3.5t6 -4.5z" />
    <glyph glyph-name="U" unicode="U" horiz-adv-x="1119" 
d="M694 416q6 10 10 18.5t7 14.5q4 7 6 13q13 25 27 57t22 58q0 7 3 12q2 5 5.5 8.5t8.5 3.5t16.5 -14.5t19.5 -39t8 -55.5t-16 -64q-22 -38 -43 -77q-18 -33 -38 -73t-34 -75q-24 -53 -37 -97q-6 -19 -10 -37.5t-5 -34t2 -26.5t12 -15q27 -13 55 -2.5t55 36t51.5 60
t44.5 69t34 64t21 44.5q17 45 37.5 87.5t42.5 80.5q13 25 25 51q10 22 20.5 46t16.5 44q1 6 3 11q2 4 5 7.5t8 3.5t15 -13.5t17.5 -35.5t8 -50t-14.5 -58q-20 -36 -38 -72q-16 -32 -34 -68.5t-31 -68.5q-13 -34 -21 -67q-7 -28 -10.5 -58t4.5 -51q3 -13 9 -16.5t12 -1.5
q7 1 14 7q13 13 29.5 33t36.5 52q12 19 22 37.5t18 32.5q9 17 17 31q3 8 11 4q8 -3 4 -11l-4.5 -9t-12 -23.5t-18.5 -33t-23 -37.5q-40 -63 -73 -94q-8 -7 -16 -12q-7 -5 -16 -8.5t-18 -2.5q-30 3 -46.5 19t-23.5 39t-7 50t4 52q-27 -52 -52.5 -88t-49.5 -59t-46 -35
t-40 -16q-44 -11 -81 11q-17 10 -26.5 25.5t-14 34.5t-5 39.5t1.5 40.5q4 47 22 100q14 38 30 75t33 72q-35 -12 -67 -19t-48 -11q-17 -5 -38 -9t-47.5 -10.5t-60 -15.5t-76.5 -23q-54 -18 -93 -47t-63.5 -63.5t-35 -72.5t-7.5 -74q5 -49 26 -74t37 -34q5 -3 4.5 -9t-6.5 -8
q-19 -5 -37 -2.5t-34 11t-28.5 21t-19.5 27.5q-6 13 -14 34.5t-8 49.5t12 62.5t45 74.5q33 41 80 67t102.5 44.5t118 32t126.5 29.5q54 14 94.5 33.5t67.5 40.5z" />
    <glyph glyph-name="V" unicode="V" horiz-adv-x="868" 
d="M691 412l6 20t5 18q3 10 5 18q6 25 13 56.5t9 56.5q0 7 1 12t3.5 9t7.5 5q4 0 18 -10t26.5 -29.5t18 -47.5t-6.5 -63q-16 -44 -31 -87q-13 -37 -25.5 -80t-19.5 -79q-12 -58 -16 -104q-2 -20 -2.5 -39t1 -34.5t6 -25.5t12.5 -11q17 84 47.5 161.5t59.5 137.5
q34 70 71 132q12 19 32.5 49.5t46 59t54.5 49t58 20.5q16 0 27 -4t17.5 -10.5t9.5 -14.5t4 -14q1 -5 -1 -8.5t-5 -1.5q-6 4 -21.5 6.5t-28.5 0.5q-14 -2 -33.5 -10t-42 -24.5t-47 -42.5t-49.5 -64q-44 -74 -82 -150q-16 -32 -32 -68t-30 -73t-24.5 -74t-15.5 -70
q-2 -7 -5.5 -13.5t-11.5 -9.5q-7 -3 -16 -2.5t-17 3.5q-17 6 -27.5 20t-17 33.5t-9.5 41.5t-3 45q-1 53 9 117q7 37 16.5 73.5t20.5 71.5q-38 -14 -73.5 -21t-52.5 -12t-37.5 -9t-47.5 -10.5t-60.5 -15.5t-75.5 -23q-54 -18 -93.5 -47t-64 -63.5t-34.5 -72.5t-7 -74
q5 -49 25.5 -74t37.5 -34q5 -3 4 -9t-6 -8q-19 -5 -37 -2.5t-34 11t-28.5 21t-19.5 27.5q-6 13 -14 34.5t-8 49.5t12 62.5t45 74.5q33 41 80 67t102.5 44.5t117.5 32t127 29.5q51 13 90 31.5t67 38.5z" />
    <glyph glyph-name="W" unicode="W" horiz-adv-x="1145" 
d="M813 197q14 40 32 80.5t35 72.5q19 38 39 72q-54 -62 -92.5 -124t-66 -119t-47 -106.5t-36.5 -85.5q-8 -16 -26 -19t-33 6q-16 10 -25.5 25.5t-14 34.5t-5 39.5t1.5 40.5q4 47 22 100q13 38 29 74t33 70q-34 -11 -64 -17t-45 -10q-17 -5 -37.5 -9t-47.5 -10.5
t-60.5 -15.5t-75.5 -23q-54 -18 -93.5 -47t-64 -63.5t-34.5 -72.5t-7 -74q5 -49 25.5 -74t37.5 -34q5 -3 4 -9t-6 -8q-19 -5 -37 -2.5t-34 11t-28.5 21t-19.5 27.5q-6 13 -14 34.5t-8 49.5t11.5 62.5t44.5 74.5q34 41 81 67t102.5 44.5t117.5 32t127 29.5q49 12 87 29.5
t65 37.5q8 13 15 27.5t13 26.5q7 14 13 28q10 22 19.5 44.5t14.5 41.5q1 7 4 12q2 5 5.5 8.5t8.5 3.5t16.5 -14.5t19.5 -39t8 -55.5t-16 -64q-22 -38 -43 -77q-18 -33 -38 -73t-34 -75q-20 -52 -31 -94q-5 -18 -8.5 -35.5t-3.5 -32t3 -24t12 -12.5q34 100 74.5 182.5t80 148
t75.5 113.5t62 78q2 2 4 5q2 2 3.5 4.5t3.5 4.5q5 7 11 7q5 0 15 -13.5t17.5 -35.5t7.5 -50t-15 -58q-20 -35 -39 -70q-17 -30 -34.5 -66.5t-30.5 -68.5q-21 -52 -32 -100q-10 -41 -13 -83.5t12 -68.5q52 37 91 86.5t66 94.5q31 53 54 107q32 77 37.5 139t-3 108.5t-25 77.5
t-27.5 46q-4 5 -1.5 11t9.5 7q34 2 61.5 -22.5t37.5 -74.5t-2 -124.5t-57 -170.5q-35 -75 -70.5 -127.5t-67 -87.5t-56.5 -54.5t-38 -27.5q-14 -8 -29 -3q-22 7 -35.5 22.5t-20 36t-7.5 45t2 48.5q5 57 28 126z" />
    <glyph glyph-name="X" unicode="X" horiz-adv-x="844" 
d="M678 407q2 10 2.5 20t1.5 18q1 10 2 18q2 25 3.5 54.5t-0.5 52.5q0 1 -1 2q0 1 -0.5 5t0 8t2 8t5.5 5q5 1 20.5 -6.5t31 -24.5t25.5 -43.5t4 -63.5q-8 -37 -14 -76q-5 -33 -11 -73t-8 -76q21 23 38 43.5t30 36.5q14 18 26 33q27 37 42 69.5t22.5 59.5t7.5 47.5t-3 34.5
q-3 13 -11 26.5t-14 17.5q-3 2 0 5t7 4q6 1 14.5 1.5t17 -3t16.5 -12t14 -24.5q10 -27 1.5 -61.5t-26 -68.5t-38.5 -64t-34 -49q-13 -18 -30 -38q-14 -17 -34.5 -40.5t-46.5 -50.5q-1 -9 -1.5 -37t2 -63t10 -71t22.5 -62q3 -5 0.5 -10t-8.5 -6q-9 -2 -17 0q-26 6 -42.5 25.5
t-26.5 46.5t-15 56.5t-6 55.5q-26 -29 -41 -57.5t-21.5 -52.5t-8 -43.5t-0.5 -30.5q0 -5 -4 -7.5t-8 -0.5q-21 11 -29 34t0 54t35 67.5t76 74.5v18q0 4 1 6q1 42 5 83.5t9 82.5q-38 -14 -74 -21.5t-53 -12.5t-38 -9t-47.5 -10.5t-60 -15.5t-76.5 -23q-54 -18 -93 -47
t-63.5 -63.5t-35 -72.5t-7.5 -74q5 -49 26 -74t37 -34q5 -3 4.5 -9t-6.5 -8q-19 -5 -37 -2.5t-34 11t-28.5 21t-19.5 27.5q-6 13 -14 34.5t-8 49.5t12 62.5t45 74.5q33 41 80 67t102.5 44.5t118 32t126.5 29.5q48 12 85.5 29t64.5 36z" />
    <glyph glyph-name="Y" unicode="Y" horiz-adv-x="1117" 
d="M695 416q5 8 9.5 17l8.5 17l8 18q12 25 25 55t21 54q0 7 3 12q2 5 5.5 8.5t8.5 3.5t16.5 -14.5t19.5 -39t8 -55.5t-16 -64q-22 -38 -43 -77q-18 -33 -38 -73t-34 -75q-24 -53 -37 -97q-6 -19 -10 -37.5t-5 -34t2 -26.5t12 -15q27 -13 55 -2.5t55 36t51.5 60t44 69t34 64
t21.5 44.5q17 45 37.5 87.5t42.5 80.5q13 25 25 51q10 22 20.5 46t16.5 44q1 6 3 11q2 4 5 7.5t8 3.5t15 -13.5t17.5 -35.5t7.5 -50t-15 -58q-19 -36 -37 -73q-16 -32 -33 -69t-30 -69q-13 -34 -22 -66q-8 -28 -11.5 -57.5t3.5 -50.5q4 -13 10 -16.5t12 -1.5q7 1 14 7
q13 13 29 33t36 52q12 19 22.5 37.5t18.5 32.5q9 17 17 31q3 8 11 4t4 -11l-4.5 -9t-12 -23.5t-18.5 -33t-23 -37.5q-20 -32 -38.5 -55t-35.5 -39q-7 -7 -15 -12q-7 -5 -16 -8.5t-18 -2.5q-10 1 -17.5 3.5t-14.5 5.5q-6 -14 -12.5 -29t-13.5 -32q43 -10 86 -26t85 -34
t81.5 -35t74.5 -29t64 -18t51 0q4 1 5 -2t-2 -5q-11 -8 -30.5 -14.5t-49.5 -5.5t-72 12t-98 39q-20 9 -42 20q-19 8 -42.5 18.5t-46.5 20.5q-14 5 -33.5 12.5t-45.5 14.5q-29 -62 -67.5 -126.5t-83 -118t-94.5 -89.5t-103 -40q-16 -1 -32 1q-14 2 -29.5 6t-28.5 14
q-20 15 -31 41q-9 22 -10.5 57.5t18.5 88.5q21 54 62.5 94.5t95 66.5t112.5 38.5t114 11.5q12 27 24.5 58.5t23 60t18 49.5t10.5 29q-27 -52 -52.5 -87.5t-49.5 -58t-45.5 -34.5t-39.5 -16q-43 -11 -81 11q-17 10 -26.5 25.5t-14 34.5t-5 39.5t1.5 40.5q4 47 22 100
q28 78 63 146q-35 -11 -67 -18t-48 -11q-17 -5 -38 -9t-47.5 -10.5t-60 -15.5t-76.5 -23q-54 -18 -93 -47t-63.5 -63.5t-35 -72.5t-7.5 -74q5 -49 26 -74t37 -34q5 -3 4.5 -9t-6.5 -8q-19 -5 -37 -2.5t-34 11t-28.5 21t-19.5 27.5q-6 13 -14 34.5t-8 49.5t12 62.5t45 74.5
q33 41 80 67t102.5 44.5t118 32t126.5 29.5q54 14 94.5 33.5t67.5 40.5zM491 -434q6 -1 20 -1t34.5 8.5t47.5 30t59.5 62.5t70.5 105.5t80 160.5q-59 5 -126.5 -8t-136.5 -58q-23 -15 -42 -37q-17 -19 -34 -46.5t-26 -64.5q-11 -42 -8 -70.5t13 -46t23.5 -26t24.5 -9.5z" />
    <glyph glyph-name="Z" unicode="Z" horiz-adv-x="387" 
d="M410 -57q40 -24 58.5 -49t24 -48t2.5 -42t-7 -31q-9 -28 -38 -51.5t-68 -24.5q-6 0 -8 4.5t3 8.5q7 6 15 15t14.5 22t10 29.5t0.5 36.5q-4 30 -21.5 58t-48.5 50t-75.5 35.5t-101.5 14.5q-42 1 -75 0t-59 -2q-3 -1 -9 1q-9 5 -14 14q-8 13 -5 27t14 24q48 42 96 100.5
t93 121.5q-34 10 -48 31q-15 21 -10 35t13 21q2 2 5 2.5t3 -2.5q1 -5 5.5 -16.5t12.5 -18.5q7 -6 16.5 -12.5t22.5 -11.5q27 38 51 75t45 68.5t37.5 56.5t28.5 40q15 21 33 37q-30 -6 -62 -10.5t-62.5 -5t-56.5 4.5t-43 18q-15 10 -20.5 20.5t-5.5 20t3.5 17t8.5 13.5
q3 3 7 5t6 -2q2 -7 12.5 -19.5t24.5 -18.5q30 -13 86 -18t133 7q11 2 19 -5q7 -4 13 -13q12 -20 -1 -37q-28 -38 -60.5 -92t-70.5 -120q-11 -17 -20.5 -33.5t-19.5 -31.5q13 -2 26.5 -2.5t28.5 0.5q2 0 5 -1q6 -2 6 -5t-3.5 -4t-7.5 -2t-10 0q-8 0 -23 -1t-32 -1
q-30 -45 -56 -78t-46 -56q-23 -26 -42 -45q-32 -32 -64 -53t-63 -33q55 3 107 5.5t100 -0.5t90 -12.5t77 -30.5z" />
    <glyph glyph-name="bracketleft" unicode="[" horiz-adv-x="436" 
d="M384 593q12 -5 20 -12q6 -6 8.5 -15t-7.5 -22q-7 -9 -15 -8.5t-19.5 -3.5t-26.5 -19.5t-36 -55.5q-17 -35 -37.5 -77t-41 -86.5t-39.5 -88t-33.5 -82t-23 -69.5t-8.5 -49q1 -34 15 -50t30 -23q2 -2 6 -5.5t3 -8.5q0 -6 -9 -15q-3 -2 -8 -4.5t-13 -3.5h-2v-1h-12
q-13 1 -22.5 7t-16.5 13t-11.5 13.5t-6.5 10.5q-17 42 -14 93t17.5 105.5t38 109t48.5 102.5t48 86t37 61q0 1 1 2l4 6q1 1 3 5q7 11 18.5 26t25.5 29q15 14 36 25.5t43 4.5z" />
    <glyph glyph-name="backslash" unicode="\" horiz-adv-x="833" 
d="M11 522q-2 4 -2 5q-2 8 -2.5 18t1.5 19.5t7 17.5t15 12q9 4 13.5 0t6.5 -10.5t3.5 -14.5t3.5 -12q19 -48 48 -116t61 -138.5t63 -136.5t54 -111q2 -2 3 -4.5t3 -6.5q8 -15 20 -41.5t20 -59.5q3 -11 2 -26.5t-7 -18.5q-21 -8 -31.5 6t-22.5 36q-23 45 -40.5 83t-27.5 58
q-17 33 -44 89.5t-55.5 120.5t-53.5 126t-38 105z" />
    <glyph glyph-name="bracketright" unicode="]" horiz-adv-x="435" 
d="M52 -104q-13 5 -20 12q-7 6 -9 15t8 22q7 9 15 8.5t19 3.5t26.5 19.5t36.5 56.5q17 35 37.5 77t41 86t39.5 87.5t33.5 82t23 69.5t8.5 49q-1 34 -15 50t-30 23q-2 2 -6 5.5t-4 8.5q2 8 10 15q2 2 7.5 4.5t13.5 3.5q1 0 2 1h12q12 -2 22 -7.5t17 -12.5t11.5 -13.5
t6.5 -10.5q16 -42 13.5 -93t-17.5 -105.5t-38.5 -109t-48.5 -102.5t-47.5 -86.5t-36.5 -60.5q0 -1 -1 -2q-2 -2 -4 -6q-1 -1 -3 -5q-7 -11 -18.5 -26t-25.5 -29q-15 -14 -36 -25.5t-43 -4.5z" />
    <glyph glyph-name="grave" unicode="`" horiz-adv-x="156" 
d="M69 678q11 -6 18.5 -15.5t20.5 -18.5q12 -9 22.5 -7.5t15.5 -4.5q3 -5 1 -8t-6 -5q-4 -3 -11 -4q-29 -6 -51 0t-36 16.5t-19.5 22t-1.5 17.5q6 9 13.5 11.5t15.5 1.5q9 -1 18 -6z" />
    <glyph glyph-name="a" unicode="a" horiz-adv-x="328" 
d="M181 -2q-5 -2 -10.5 -1.5t-10.5 1.5t-11 3q-14 5 -25.5 25t-5.5 58q-28 -36 -51.5 -55t-43.5 -24q-8 -2 -14 0q-4 0 -7 1q-13 2 -23 13q-8 9 -14 26.5t-4 49.5q2 27 16.5 64.5t37.5 75.5t52.5 73.5t61 59.5t62.5 32t57 -8q22 -14 34 -33q11 -17 14 -43t-14 -61
q-12 -25 -30.5 -60.5t-35 -71t-26 -64t-3.5 -40.5q14 8 37.5 31.5t57.5 76.5q12 19 22 37.5t18 32.5q9 17 17 31q4 8 11 4q8 -3 4 -11l-4.5 -9t-12 -23.5t-18.5 -33t-23 -37.5q-67 -106 -115 -120zM134 137q13 30 29.5 55.5t31.5 51t26.5 55t15.5 68.5q0 2 -1 7.5t-6 7.5
q-9 2 -19 -4q-8 -6 -26.5 -28.5t-41 -55.5t-46.5 -73t-44 -81q-18 -36 -26 -58.5t-9.5 -35t1 -17.5t7.5 -6q13 4 28 17t29.5 29.5t27.5 34.5t23 33z" />
    <glyph glyph-name="b" unicode="b" horiz-adv-x="298" 
d="M267 373q17 -9 21 -31.5t-0.5 -52t-16 -61t-24.5 -56.5q-23 -42 -51 -74t-57.5 -52t-58 -26.5t-51.5 2.5q-14 6 -20 18t-7 26q-12 -26 -13 -45q0 -6 -5 -9t-11 -1q-8 3 -16.5 9.5t-14 17t-5.5 26t10 36.5q14 31 38.5 79.5t50 99t47.5 95t32 68.5q16 38 26.5 73.5
t10.5 59.5q0 6 6 9.5t11 0.5q10 -5 21 -13.5t18.5 -20.5t10 -28t-5.5 -36q-12 -31 -33 -75t-44 -89q10 11 19 18.5t17 13.5q2 2 11 8t22 11t29 6t33 -7zM169 331q-32 -31 -54.5 -63.5t-36.5 -58.5q-17 -31 -27 -60q-6 -16 -10 -32.5t-5 -30.5t1 -23.5t10 -12.5
q16 -6 37.5 10.5t42 42.5t37.5 54t23 46q4 10 11.5 31.5t13.5 44t7.5 42t-6.5 26.5q-4 4 -10 3t-12.5 -4t-12 -7t-9.5 -8z" />
    <glyph glyph-name="c" unicode="c" horiz-adv-x="237" 
d="M180 323q2 7 3 15.5t-2 16.5q-21 -15 -41 -41q-17 -22 -36.5 -57t-33.5 -88q-15 -53 -14 -84t9 -46.5t18 -19t15 -0.5q15 8 38 31.5t57 76.5q12 19 22.5 37.5t18.5 32.5q9 17 16 31q4 7 12 4q8 -4 4 -11l-4.5 -9t-12.5 -23.5t-18.5 -33t-23.5 -37.5q-67 -106 -115 -120
q-11 -3 -24 0q-11 2 -25.5 8.5t-28.5 22.5q-15 16 -25 42t-8.5 60t18 73t53.5 81t66.5 66t50.5 34t35 8t22 -12q4 -8 6 -17q1 -8 -1 -17.5t-12 -19.5q-4 -4 -12 -7.5t-19 -5.5q-4 0 -7 2.5t-1 6.5z" />
    <glyph glyph-name="d" unicode="d" horiz-adv-x="329" 
d="M182 -2q-5 -2 -10.5 -1.5t-10.5 1.5t-10 3q-14 5 -26 25t-6 58q-53 -71 -95 -79q-2 -1 -6 -1h-7t-8 2q-13 2 -23 13q-8 9 -14 26.5t-4 49.5q2 27 16.5 64.5t37.5 75.5t52.5 73.5t61 59.5t62.5 32t57 -8q2 -2 6 -4q3 -2 6.5 -4.5t7.5 -6.5q10 20 17.5 37t12.5 28
q16 38 27 73.5t11 59.5q0 6 5.5 9.5t11.5 0.5q9 -5 20 -13.5t19 -20.5t10.5 -28t-5.5 -36q-9 -22 -22 -50t-28 -59.5t-31.5 -63.5t-31.5 -61t-27.5 -52.5t-19.5 -37.5q-3 -6 -6.5 -12t-6.5 -12q-10 -20 -18.5 -38.5t-13.5 -34.5t-7 -28.5t2 -18.5q15 8 38 31.5t57 76.5
q12 19 22 37.5t18 32.5q9 17 17 31q4 7 12 4q7 -3 3 -11l-4.5 -9t-12 -23.5t-18.5 -33t-23 -37.5q-68 -108 -115 -120zM27 23q13 4 28 17t29.5 29.5t28 34.5t23.5 33q39 63 60 106.5t31 71.5q11 33 12 52q0 2 -1.5 7.5t-6.5 7.5q-9 2 -19 -4q-8 -6 -26.5 -28.5t-41 -55.5
t-46.5 -73t-44 -81q-18 -36 -26 -58.5t-9.5 -35t1 -17.5t7.5 -6z" />
    <glyph glyph-name="e" unicode="e" horiz-adv-x="237" 
d="M75 187q-3 -14 -7 -27q-3 -11 -6 -24t-4 -23q-4 -33 0 -53t11.5 -29.5t16 -11.5t12.5 0q14 8 37.5 31.5t57.5 76.5q12 19 22 37.5t18 32.5q9 17 17 31q4 8 11 4q8 -3 4 -11l-4.5 -9t-12 -23.5t-18.5 -33t-23 -37.5q-67 -106 -115 -120q-12 -3 -25 0q-11 2 -25.5 8.5
t-28.5 22.5q-15 16 -24.5 42t-8 60t18 73t53.5 81t66.5 66t50.5 34t35 8t22 -12q5 -7 9.5 -21t4 -32t-8 -38t-26 -39.5t-50 -36t-80.5 -27.5zM181 355q-17 -13 -34 -32q-15 -17 -32 -44t-32 -68q9 4 22.5 11.5t27 19.5t25.5 29t19 40q2 9 3 18q1 8 1.5 14.5t-0.5 11.5z" />
    <glyph glyph-name="f" unicode="f" horiz-adv-x="191" 
d="M267 581q12 -26 13 -52.5t-4 -51.5t-13.5 -46.5t-17.5 -37.5q-23 -42 -56 -87.5t-69 -87.5h15q9 0 9 -9q0 -8 -9 -8h-22q6 -30 7 -69t-3.5 -79t-15 -78t-26.5 -67t-37.5 -45.5t-48.5 -13.5q-22 2 -32.5 22t-12 51t4 68.5t14 76t18.5 74t18 60.5h-10q-8 0 -8 8q0 9 8 9h16
q3 12 6 18q2 4 3 7q18 53 42 103t50 93.5t51.5 77.5t47.5 53.5t38.5 23.5t23.5 -13zM259 488q-2 7 -11 3.5t-25 -22t-37.5 -53.5t-47.5 -90q-11 -25 -19.5 -47t-16.5 -42q1 -2 1.5 -5t1.5 -5q42 46 72 89.5t49 78.5t27 60t6 33zM99 42q8 48 5.5 86t-7.5 64l-19 -19
q-15 -46 -29 -96t-24 -91t-14 -68.5t-1 -28.5q8 -3 20.5 3.5t25 24.5t24.5 48.5t19 76.5z" />
    <glyph glyph-name="g" unicode="g" horiz-adv-x="326" 
d="M182 -2q-3 -1 -10 -1h-6q-9 -20 -19 -42.5t-22 -45.5q14 -3 27 -6q11 -2 24 -5.5t22 -5.5q28 -8 56.5 -8t54.5 2q30 3 48.5 9t29 11t15 7t5.5 -4t-2.5 -16.5t-15.5 -19.5t-34 -15t-57 -3q-17 1 -35 4.5t-34 7.5q-18 4 -36 9q-21 6 -40 10t-36 7q-20 -39 -43 -76t-48 -66
t-52 -47.5t-54 -19.5q-9 0 -15.5 0.5t-11.5 1.5t-9 2q-40 12 -49 47q-9 29 -1 62q9 33 36 62q43 43 119 54q35 5 76 3q17 44 30.5 83.5t21.5 67.5q0 4 0.5 8t1.5 9q-27 -36 -51 -55t-44 -24q-9 -2 -15 0q-4 0 -6 1q-13 2 -23 13q-8 9 -14 26.5t-4 49.5q2 27 16.5 64.5
t37.5 75.5t52.5 73.5t61 59.5t62.5 32t57 -8q22 -14 34 -33q11 -17 14 -43t-14 -61q-8 -16 -18.5 -36.5t-22 -43t-22.5 -45t-19 -43.5q-2 -4 -4 -10.5t-5 -15.5q-11 -30 -4 -42q14 8 37.5 31.5t57.5 76.5q12 19 22 37.5t18 32.5q9 17 17 31q4 8 11 4q8 -3 4 -11l-4.5 -9
t-12 -23.5t-18.5 -33t-23 -37.5q-34 -54 -63 -83t-52 -37zM27 23q13 4 28 17t29.5 29.5t28 34.5t23.5 33q13 30 29 55.5t31 51t26.5 55t15.5 68.5q1 2 -0.5 7.5t-6.5 7.5q-9 2 -19 -4q-8 -6 -26.5 -28.5t-41 -55.5t-46.5 -73t-44 -81q-18 -36 -26 -58.5t-9.5 -35t1 -17.5
t7.5 -6zM-93 -299q21 -1 41 15.5t39.5 44.5t37.5 64t34 74q-38 2 -67 -2.5t-50 -12.5t-36 -18t-24 -19q-24 -25 -31 -54q-8 -28 0 -53q7 -26 37 -35q5 -2 10 -2.5t9 -1.5z" />
    <glyph glyph-name="h" unicode="h" horiz-adv-x="323" 
d="M345 232q8 -4 4 -11l-4.5 -9t-12 -23.5t-18.5 -33t-23 -37.5q-67 -106 -116 -120q-8 -2 -12 -2q-9 0 -19 5q-9 3 -17.5 12.5t-12.5 25t-2 38t14 52.5q9 23 20.5 42.5t23 38.5t22.5 38t20 40q10 20 14 37q4 14 2.5 25.5t-12.5 13.5q-15 1 -35 -16.5t-39 -42t-34.5 -48.5
t-21.5 -35q-10 -18 -18 -33t-14 -26q-10 -18 -20.5 -37.5t-20 -38.5t-15.5 -36t-7 -30q-1 -6 -6 -9t-10 -1q-8 3 -17 9.5t-14.5 17t-5.5 26t10 36.5q14 31 38.5 79.5t50 99t47.5 95t32 68.5q16 38 26.5 73.5t11.5 59.5q0 6 5.5 9.5t11.5 0.5q9 -5 20 -13.5t18.5 -20.5
t10 -28t-5.5 -36q-12 -30 -32 -72t-42 -87q13 14 27 27.5t28 23.5t28 15t26 2q32 -8 41 -30.5t6 -47.5q-4 -29 -19 -63q-11 -26 -29.5 -61.5t-35.5 -70.5t-27 -63.5t-4 -40.5q15 8 38.5 31.5t57.5 76.5q12 19 22 37.5t18 32.5q9 17 17 31q4 8 11 4z" />
    <glyph glyph-name="i" unicode="i" horiz-adv-x="152" 
d="M174 232q-7 4 -11 -4q-8 -14 -17 -31q-8 -14 -18 -32.5t-22 -37.5q-34 -53 -57.5 -76.5t-37.5 -31.5q-6 12 4 40.5t26.5 63.5t35 70.5t29.5 61.5q12 27 11.5 49t-7 38.5t-16 27.5t-14.5 16q-6 5 -11 3q-3 -2 -5 -6q-1 -2 -1 -4q-3 -44 -15.5 -75.5t-28 -59.5t-33 -55
t-31.5 -60q-12 -30 -14 -52.5t2.5 -38t13 -25t17.5 -12.5q8 -5 18 -5q3 0 6 0.5t7 1.5q48 14 115 120q12 19 23 37.5t18.5 33t12 23.5l4.5 9q4 8 -4 11zM121 408q-8 -4 -18 -1q-6 2 -11.5 8t-3.5 19q1 10 4.5 27.5t8.5 33.5t11.5 27t14.5 7q7 -3 18 -11t19 -18.5t10 -23.5
t-8 -26q-15 -19 -26.5 -28t-18.5 -14z" />
    <glyph glyph-name="j" unicode="j" horiz-adv-x="151" 
d="M103 407q-6 2 -11.5 8t-3.5 19q2 10 5 27.5t8 33.5t11.5 27t15.5 7q7 -3 17.5 -11t18.5 -18.5t10 -23.5t-8 -26q-14 -19 -25.5 -28t-19.5 -14t-18 -1zM228 -91q1 -6 -2.5 -16.5t-15.5 -19.5t-34 -15t-57 -3q-12 0 -27 3q-13 2 -30.5 5.5t-37.5 9.5q-11 3 -25.5 6.5
t-27.5 6.5q-16 4 -31 7q-20 -39 -43.5 -76t-49 -66t-52.5 -47.5t-54 -19.5q-5 -1 -10 -1t-11.5 1t-14.5 4q-39 14 -49 47q-9 30 0 62q9 35 36 62q43 43 118 54q36 4 77 3q20 51 34 97t21 72q5 21 9 32q3 7 5 12q13 33 30.5 60t33 55t28 59.5t15.5 75.5q0 2 1 4q2 4 5 6
q6 2 12 -3q5 -5 14 -16t15.5 -27.5t7.5 -38.5t-11 -49q-11 -26 -30 -61.5t-35.5 -70.5t-26.5 -63.5t-4 -40.5q15 8 38.5 31.5t56.5 76.5q12 19 22.5 37t18.5 32.5t12.5 23l4.5 8.5q4 8 11 4q8 -4 4 -11l-4.5 -9t-12 -23.5t-18.5 -33t-23 -37.5q-70 -109 -116 -120
q-5 -1 -7.5 -1h-4.5h-4q-9 -20 -19.5 -43t-21.5 -46q14 -3 27 -6q11 -2 23.5 -5t21.5 -5q28 -6 56.5 -7t54.5 1q30 3 48 9t28.5 11t15 7t5.5 -4zM-271 -299q21 -1 41 16t39.5 44.5t37.5 63.5t33 74q-38 2 -67 -2.5t-50 -12.5t-35.5 -18t-23.5 -19q-23 -25 -32 -54
q-6 -28 0 -53q7 -26 38 -35q5 -2 9.5 -2.5t9.5 -1.5z" />
    <glyph glyph-name="k" unicode="k" horiz-adv-x="315" 
d="M339 232q8 -4 4 -11l-4.5 -9t-12 -23.5t-18.5 -33t-23 -37.5q-67 -106 -116 -120q-39 -6 -67 8q-12 6 -23 17t-18.5 29.5t-10.5 45t1 62.5q-10 -18 -20.5 -37.5t-19 -37.5t-14.5 -34.5t-7 -29.5q-1 -6 -6 -9t-10 -1q-8 3 -17 9.5t-14.5 17t-5.5 26t10 36.5
q14 31 38.5 79.5t50 99t47.5 95t32 68.5q16 38 26.5 73.5t11.5 59.5q0 6 5.5 9.5t11.5 0.5q9 -5 20 -13.5t18.5 -20.5t10 -28t-5.5 -36q-11 -30 -31.5 -72t-42.5 -87q13 14 27 27.5t28 23.5t28 15t26 2q32 -8 40.5 -31t4.5 -48q-4 -29 -20 -63q-12 -25 -32 -43
q-17 -17 -46 -30t-73 -12q-2 -13 -4.5 -34.5t-2 -43.5t5.5 -41.5t18 -28.5q16 -10 36 -2q15 8 38.5 31.5t57.5 76.5q12 19 22 37.5t18 32.5q9 17 17 31q4 8 11 4zM215 364q-15 1 -35 -16.5t-39 -42t-34.5 -48.5t-21.5 -35q-5 -8 -9 -16t-8 -15q38 -2 65 13t44 34
q20 22 34 50q10 20 14 37q4 14 2.5 25.5t-12.5 13.5z" />
    <glyph glyph-name="l" unicode="l" horiz-adv-x="219" 
d="M241 232q8 -3 4 -11l-4.5 -9t-12 -23.5t-18.5 -33t-23 -37.5q-40 -63 -73 -94q-8 -7 -16 -12q-7 -5 -16 -8.5t-18 -2.5q-25 3 -40.5 14.5t-24 29.5t-10.5 39.5t-1 43.5q3 52 23 115q18 53 42 103t50 93.5t51.5 77.5t47.5 53.5t38.5 23.5t23.5 -13q12 -26 13 -52.5
t-4 -51.5t-13.5 -46.5t-17.5 -37.5q-28 -52 -71.5 -109.5t-89.5 -104.5q-8 -31 -12.5 -66.5t3.5 -59.5q3 -13 9 -16.5t12 -1.5q7 1 14 7q14 13 30 33t36 52q12 19 22 37.5t18 32.5q9 17 17 31q4 8 11 4zM135 326q-7 -18 -15 -37q-7 -17 -14.5 -36.5t-14.5 -37.5
q45 47 77 92.5t52.5 82.5t29 63t6.5 35q-2 7 -11 3.5t-25 -22t-37.5 -53.5t-47.5 -90z" />
    <glyph glyph-name="m" unicode="m" horiz-adv-x="488" 
d="M511 232q8 -4 4 -11l-4.5 -9t-12.5 -23.5t-18.5 -33t-23.5 -37.5q-67 -106 -115 -120q-8 -2 -13 -2q-8 0 -18 5q-9 3 -17.5 12.5t-13 25t-2.5 38t14 52.5q10 23 21.5 42.5t23 38.5t22 38t19.5 40q10 20 14 37q4 14 3 25.5t-13 13.5q-14 1 -31.5 -15t-35 -39t-32.5 -47.5
t-24 -39.5q-12 -24 -26.5 -52t-27 -54.5t-21 -49.5t-8.5 -37q0 -11 -12 -11q-32 3 -42.5 20.5t-9.5 37.5q1 23 12 51q9 23 20.5 43t22.5 38.5t22 38t20 40.5q9 20 13 37q4 14 3 25.5t-13 13.5q-15 1 -34 -17t-37.5 -43.5t-33.5 -51t-22 -37.5q-14 -27 -29.5 -57.5
t-28.5 -59.5q-9 -18 -15 -36q-5 -15 -9.5 -30.5t-3.5 -25.5q1 -3 -0.5 -6t-5.5 -3q-12 0 -24 6q-8 4 -16 12t-11.5 22.5t-1 35.5t14.5 51q14 33 31 60.5t32 56.5t27 61.5t15 76.5q0 2 1 4q1 3 6 6q4 2 11 -3q4 -3 11 -11t13 -19.5t10 -27t2 -34.5q14 18 30.5 37.5t34 34.5
t35 24t32.5 6q19 -5 29.5 -15t14.5 -23t3.5 -28t-3.5 -29q13 18 29.5 36t33 32t33 22t30.5 5q32 -8 41 -30.5t6 -47.5q-4 -29 -19 -63q-11 -26 -30 -61.5t-35.5 -70.5t-26.5 -63.5t-4 -40.5q15 8 38 31.5t57 76.5q12 19 22.5 37.5t18.5 32.5q9 17 16 31q4 8 12 4z" />
    <glyph glyph-name="n" unicode="n" horiz-adv-x="320" 
d="M343 232q8 -4 4 -11l-4.5 -9t-12 -23.5t-18.5 -33t-23 -37.5q-67 -106 -116 -120q-8 -2 -12 -2q-9 0 -19 5q-9 3 -17.5 12.5t-12.5 25t-2 38t14 52.5q9 23 20.5 42.5t23 38.5t22.5 38t20 40q10 20 14 37q4 14 2.5 25.5t-12.5 13.5q-15 1 -34.5 -17t-38 -43.5t-33.5 -51
t-22 -37.5q-14 -27 -29.5 -57.5t-28.5 -59.5q-9 -18 -15 -36q-5 -15 -9.5 -30.5t-3.5 -25.5q1 -3 -0.5 -6t-5.5 -3q-12 0 -24 6q-8 4 -16 12t-11.5 22.5t-1 35.5t14.5 51q14 33 31 60.5t32 56.5t27 61.5t15 76.5q0 2 1 4q1 3 6 6q4 2 11 -3q4 -3 11 -11t13 -19.5t10 -27
t3 -34.5q13 18 30 37.5t34 34.5t34.5 24t32.5 6q32 -8 41 -30.5t6 -47.5q-4 -29 -19 -63q-11 -26 -29.5 -61.5t-35.5 -70.5t-27 -63.5t-4 -40.5q15 8 38.5 31.5t57.5 76.5q12 19 22 37.5t18 32.5q9 17 17 31q4 8 11 4z" />
    <glyph glyph-name="o" unicode="o" horiz-adv-x="294" 
d="M234 391q19 -16 29 -45q8 -25 6.5 -66t-24.5 -102q-25 -65 -53.5 -101.5t-53.5 -53.5q-29 -21 -59 -25q-11 -3 -23 0q-11 2 -23.5 8.5t-25.5 22.5t-20 46t-2.5 68t22.5 80.5t56 84.5q30 33 52.5 53t40.5 29.5t32 11.5t25 -1q13 -3 21 -10zM211 181q12 32 20 63.5
t10.5 57.5t0 43.5t-10.5 21.5q-8 3 -16 1.5t-16 -4.5q-9 -4 -17 -9q-21 -15 -41 -41q-17 -22 -37 -57t-37 -88q-16 -50 -17.5 -80.5t4.5 -46t16 -20t16 -3.5q21 2 38.5 16t32.5 35.5t28 50t26 60.5z" />
    <glyph glyph-name="p" unicode="p" horiz-adv-x="300" 
d="M252 373q18 -9 24.5 -31.5t4.5 -52t-10.5 -61t-20.5 -56.5q-19 -42 -44.5 -74t-53 -52t-55.5 -26.5t-52 2.5q-14 5 -20.5 15.5t-8.5 24.5q-13 -31 -23 -56t-15 -41q-12 -38 -20 -73.5t-6 -59.5q1 -6 -4.5 -9.5t-11.5 -0.5q-10 5 -21.5 13.5t-20.5 20.5t-12.5 28t2.5 36
q6 19 16 47t22.5 59t26 63.5t26.5 62.5t23.5 54t16.5 38q8 18 17.5 37.5t17 38.5t12.5 35.5t5 30.5q0 6 4.5 9t10.5 1q8 -3 17 -9.5t15.5 -16t8 -24t-4.5 -34.5q22 30 41 43q2 2 10.5 8t21.5 11t28.5 6t32.5 -7zM158 331q-31 -38 -51 -71t-31 -58q-13 -29 -20 -53
q-4 -16 -7 -32.5t-3 -30.5t3.5 -23.5t11.5 -12.5q16 -6 36 10.5t38.5 42.5t32.5 54t19 46q3 10 9 31.5t10 44t4 42t-9 26.5t-22.5 -0.5t-20.5 -15.5z" />
    <glyph glyph-name="q" unicode="q" horiz-adv-x="326" 
d="M349 232q8 -4 4 -11l-4.5 -9t-12 -23.5t-18.5 -33t-23 -37.5q-69 -107 -116 -120q-8 -2 -13 -2q-8 0 -14 3q-18 -35 -32.5 -65t-21.5 -48q-16 -39 -27 -74t-11 -59q0 -7 -5.5 -10t-11.5 0q-9 5 -20 13t-18.5 20t-10 28t4.5 37q7 19 17 44t21.5 52.5t24.5 56.5t26 56
q-39 -41 -66 -45q-2 0 -4.5 -0.5t-4.5 -0.5q-5 0 -13 2q-12 2 -22 13q-8 9 -14.5 26.5t-4.5 49.5q2 27 16.5 64.5t38 75.5t53 73.5t60.5 59.5t62 32t58 -8q22 -14 34 -33q11 -17 14 -43t-14 -61q-12 -25 -31 -60.5t-35.5 -71t-26 -64t-3.5 -40.5q15 8 38.5 31.5t56.5 76.5
q12 19 22.5 37t18.5 32.5t12.5 23l4.5 8.5q4 8 11 4zM25 23q13 4 27.5 16t28.5 28t26.5 33.5t22.5 32.5q4 7 7.5 14l6.5 13q13 25 27.5 47.5t27.5 46t23 51t14 62.5q0 2 -1 7.5t-7 7.5q-8 2 -18 -4q-9 -6 -27 -28.5t-40.5 -55.5t-46.5 -73t-45 -81q-18 -36 -26 -58.5
t-9.5 -35t1.5 -17.5t8 -6z" />
    <glyph glyph-name="r" unicode="r" horiz-adv-x="220" 
d="M243 232q8 -4 4 -11l-4.5 -9t-12 -23.5t-18.5 -33t-23 -37.5q-67 -106 -116 -120q-8 -2 -12 -2q-9 0 -19 5q-9 3 -17.5 12.5t-12.5 25t-2 38t14 52.5q17 41 37 69.5t37 64.5q4 8 3 17q-1 8 -7 16.5t-23 16.5q-9 -21 -18 -40.5t-16.5 -34t-12.5 -23l-5 -8.5q-4 -8 -11 -4
q-7 5 -4 12l7 13t16.5 32.5t20 43t19.5 44.5q-4 11 -7 22q-2 10 -2.5 22t4.5 26q4 13 14 20.5t21.5 8t23 -5t17.5 -17.5q4 -10 4 -15q1 -5 -3 -9l-13.5 -13.5t-15.5 -19t-10 -21t5 -17.5q2 -3 6 -7q6 -6 18 -15q20 -17 25.5 -36t3.5 -36q-2 -19 -11 -38q-13 -26 -27 -53.5
t-25 -52.5t-16 -44t0 -28q15 8 38.5 31.5t56.5 76.5q12 19 22.5 37.5t18.5 32.5q9 17 17 31q4 8 11 4z" />
    <glyph glyph-name="s" unicode="s" horiz-adv-x="184" 
d="M205 179q0 -8 -7 -10q-29 -8 -53.5 -16.5t-44.5 -17.5q8 -30 12.5 -63t0.5 -68q-5 -47 -19.5 -77t-35 -46t-44 -20t-47.5 2q-17 6 -29 17q-11 10 -19 27t-5 46q3 27 17 55q11 24 35 53t67 58q-3 36 -11.5 74t-16.5 79q-9 44 -5.5 74t13.5 48.5t24 28.5t28 15t25 4t19 -4
q9 -4 16 -10q8 -9 12 -23q3 -12 0.5 -30.5t-16.5 -45.5q-15 -29 -30 -52.5t-28 -41.5q8 -19 16 -39.5t16 -43.5q22 9 47 17.5t54 15.5q3 1 6 -1t3 -5zM89 369q-16 -1 -27 -8q-10 -6 -16.5 -19t-3.5 -39q2 -12 6 -25t9 -28q12 18 24.5 41t21.5 50q3 11 1.5 16t-5.5 8t-10 4z
M-6 -43q25 33 33.5 68t7.5 73q-35 -25 -54 -49t-27 -44q-11 -23 -11 -44q-2 -24 15 -27q7 -2 16 3t20 20z" />
    <glyph glyph-name="t" unicode="t" horiz-adv-x="159" 
d="M377 501q2 -6 0.5 -16t-11 -21t-29.5 -21t-56 -16q-11 -1 -24 -2q-23 -2 -61 0q-17 -39 -35.5 -77.5t-37 -73t-35 -63.5t-28.5 -48q-8 -13 -15 -27t-15 -28q-16 -32 -16.5 -55t4.5 -34q15 8 38.5 31.5t56.5 76.5q12 19 22.5 37t18.5 32.5t12.5 23l4.5 8.5q4 8 11 4
q8 -4 4 -11l-4.5 -9t-12 -23.5t-18.5 -33t-23 -37.5q-70 -109 -116 -120q-26 -6 -39 2t-20 20q-8 14 -9 35q0 8 1.5 23t9.5 35q13 33 35.5 75.5t46.5 86.5t46 85.5t36 74.5q-25 5 -52 8.5t-54 2.5q-22 0 -35.5 -3l-22.5 -5q-4 -2 -7.5 0.5t-4.5 6.5q0 5 5 7q10 4 21 5.5
t21 3.5l22 2q23 0 52 -3.5t62 -6.5q14 37 23.5 68t10.5 54q0 6 5.5 9.5t11.5 0.5q9 -5 20 -13.5t18.5 -20.5t9.5 -27.5t-5 -36.5q-3 -10 -6.5 -19.5t-7.5 -18.5q21 0 41 2.5t38 8.5q29 9 46 18.5t26.5 16.5t13.5 9.5t6 -3.5z" />
    <glyph glyph-name="u" unicode="u" horiz-adv-x="312" 
d="M336 232q8 -4 4 -11l-4.5 -9t-12 -23.5t-18.5 -33t-23 -37.5q-69 -107 -116 -120q-8 -2 -12 -2q-9 0 -19 5q-14 5 -26 26.5t-5 59.5q-55 -78 -98 -89q-8 -2 -13 -2q-8 0 -18 5q-9 3 -17.5 12.5t-12.5 25t-2 38t14 52.5q13 33 30.5 60t33 55t28 59.5t15.5 75.5q0 2 1 4
q2 4 5 6q6 2 12 -3q5 -5 14 -16t15.5 -27.5t7.5 -38.5t-11 -49q-11 -26 -30 -61.5t-35.5 -70.5t-26.5 -63.5t-4 -40.5q15 8 40 31.5t59 76.5q8 13 15 25t13 23q13 23 27 44.5t26 45t20.5 51t11.5 63.5q0 2 1 4q2 4 5 6q6 2 12 -3q5 -5 14 -16t15.5 -27.5t7.5 -38.5t-11 -49
q-11 -26 -30 -61.5t-35.5 -70.5t-26.5 -63.5t-4 -40.5q15 8 38.5 31.5t56.5 76.5q12 19 22.5 37t18.5 32.5t12.5 23l4.5 8.5q4 8 11 4z" />
    <glyph glyph-name="v" unicode="v" horiz-adv-x="247" 
d="M218 415q8 -9 14 -21t8 -31t-1 -47t-13 -67q-18 -61 -46 -112q-24 -44 -63 -84t-95 -54q-11 -4 -21 0q-9 3 -18 11t-15 23.5t-7 38t7 53.5q9 34 23 63t26 58t20 62t6 77q-1 2 0 4q0 4 5 7t11 -2q5 -3 15 -13t18.5 -26t12 -38t-4.5 -50q-8 -26 -22 -63.5t-26 -74.5
t-18.5 -66.5t1.5 -40.5q22 6 47 29q20 20 45.5 59t50.5 109q13 37 19 67t7.5 53.5t0 40t-2.5 25.5q-1 8 5 11.5t11 -1.5z" />
    <glyph glyph-name="w" unicode="w" horiz-adv-x="400" 
d="M366 415q8 -9 14 -21t8 -31t-1 -47t-13 -67q-18 -62 -46 -114q-12 -22 -27.5 -44t-34 -40.5t-41.5 -32t-50 -19.5q-11 -4 -21 0q-14 4 -26.5 22t-10.5 55q-20 -32 -43 -53.5t-52 -23.5q-5 -1 -11 -1.5t-10 1.5q-9 3 -18.5 11t-15.5 23.5t-7 38t8 53.5q9 34 22.5 63
t25.5 58t20 62t6 77q0 2 1 4t1.5 3.5t2.5 3.5q2 1 4.5 1t7.5 -3t15 -13t18.5 -26t11.5 -38t-5 -50q-8 -26 -21.5 -63.5t-26 -74.5t-19 -66.5t1.5 -40.5q10 -1 26 15q13 14 33 45t48 91q11 29 23 55t20 55q3 9 6 19q2 8 4 17t3 17q1 6 5.5 9.5t9.5 1.5q8 -2 17 -7t16 -14.5
t9.5 -23.5t-2.5 -35q-6 -27 -20 -64.5t-26.5 -74t-19.5 -66t1 -40.5q20 5 43 27q20 19 44 58t50 109q13 37 19 67.5t8 54.5t0.5 41t-2.5 26q-1 8 5.5 11.5t11.5 -1.5z" />
    <glyph glyph-name="x" unicode="x" horiz-adv-x="161" 
d="M-22 88v10.5t1 10.5q0 5 1 11q-16 -16 -28 -34q-5 -9 -10 -17.5t-9 -16.5q-7 -15 -6 -27t3 -19q1 -2 -1.5 -4t-4.5 -1q-11 4 -16 12t-5.5 18t2 20.5t6.5 19.5q11 25 34.5 47.5t40.5 36.5q6 28 14.5 54t14 53t7 57.5t-5.5 68.5v3q0 4 4 7q4 5 11 1q6 -3 17.5 -11.5t22 -23
t17 -35.5t2.5 -50q-2 -14 -5.5 -32t-7.5 -38q8 7 15 14.5t13 15.5q23 32 34.5 58.5t17 47.5t6 37t1.5 27q1 7 8 9t11 -4q8 -16 9.5 -45t-15.5 -66q-6 -15 -12.5 -26.5t-15.5 -24.5q-8 -11 -19 -23q-10 -11 -24.5 -25.5t-35.5 -30.5q-10 -48 -16 -93t-1 -66q2 -10 -8 -12
q-11 -2 -19.5 0t-13.5 5q-6 4 -11 9q-9 11 -15.5 28.5t-7.5 43.5z" />
    <glyph glyph-name="y" unicode="y" horiz-adv-x="314" 
d="M109 -92q14 -2 27 -5q11 -2 23 -5.5t22 -5.5q28 -7 56.5 -7.5t54.5 1.5q30 3 48.5 9t29 11t15 7t5.5 -4t-2.5 -16.5t-15.5 -19.5t-34 -15t-57 -3q-12 0 -27 3q-13 2 -30.5 5.5t-37.5 9.5q-11 3 -25 6.5t-28 6.5q-16 4 -32 7q-20 -39 -43 -76t-48.5 -66t-52.5 -47.5
t-54 -19.5h-11q-13 0 -25 4q-40 12 -49 47q-9 30 0 62q9 34 35 62q43 43 119 54q35 5 76 3q20 51 34 96.5t21 71.5q-27 -38 -51.5 -59.5t-44.5 -26.5q-8 -2 -12 -2q-9 0 -19 5q-9 3 -17.5 12.5t-12.5 25t-2 38t14 52.5q14 33 31 60t33 55t28 59.5t15 75.5q0 2 1 4q1 3 6 6
q4 2 11 -3q5 -5 14 -16t15.5 -27.5t7.5 -38.5t-11 -49q-11 -26 -29.5 -61.5t-35.5 -70.5t-27 -63.5t-4 -40.5q15 8 40 31.5t59 76.5q8 13 15 25t14 23q13 23 27 44.5t25.5 45t20 51t11.5 63.5q0 2 1 4q1 3 6 6q5 2 11 -3q5 -5 14.5 -16t16 -27.5t7 -38.5t-11.5 -49
q-11 -26 -29.5 -61.5t-35 -70.5t-26.5 -63.5t-4 -40.5q14 8 37.5 31.5t57.5 76.5q12 19 22 37.5t18 32.5q9 17 17 31q4 8 11 4q8 -3 4 -11l-4.5 -9t-12 -23.5t-18.5 -33t-23 -37.5q-67 -106 -115 -120q-4 -1 -7 -1.5t-6 -0.5q-2 0 -2.5 0.5t-2.5 0.5q-8 -20 -18.5 -43
t-22.5 -46zM-110 -299q21 -1 41.5 16t40 44.5t37.5 63.5t33 74q-38 2 -67 -2.5t-50 -12.5t-36 -18t-24 -19q-24 -25 -31 -54q-8 -28 0 -53q7 -26 37 -35q5 -2 10 -2.5t9 -1.5z" />
    <glyph glyph-name="z" unicode="z" horiz-adv-x="218" 
d="M-191 -316q-8 -1 -14.5 0t-11.5 2q-6 1 -10 2q-40 13 -49 47q-9 30 0 62q9 35 36 62q42 43 118 54q35 5 76 3q20 51 34.5 97t21.5 72q2 8 3 12.5t2 6.5q3 14 9 25q8 21 17.5 37.5t19 32l19 31t18.5 33.5q4 8 3 17q-1 8 -7 16.5t-23 16.5q-9 -22 -18 -41t-17 -33
q-9 -17 -17 -32q-4 -8 -12 -4q-7 5 -3 12l6.5 13t16 32.5t20.5 43t20 44.5q-5 11 -8 22q-2 10 -2.5 22t4.5 26q4 13 14.5 20.5t22 8t22.5 -5t17 -17.5q2 -4 3 -7.5t2 -7.5q0 -6 -3 -9l-13.5 -13.5t-15.5 -19t-10 -21t5 -17.5q2 -3 6 -7q6 -6 18 -15q20 -17 25 -36t3 -36
q-2 -19 -10 -38q-14 -26 -28 -53.5t-24.5 -52.5t-15.5 -44t0 -28q15 8 38 31.5t57 76.5q12 19 22.5 37.5t18.5 32.5q9 17 16 31q5 7 12 4q8 -4 4 -11l-4.5 -9t-12.5 -23.5t-18.5 -33t-22.5 -37.5q-69 -106 -116 -120q-1 -1 -4 -1q-2 0 -5.5 -0.5t-7.5 0.5q-8 -20 -18.5 -43
t-22.5 -46q14 -2 27 -5q11 -2 23.5 -5.5t22.5 -5.5q27 -7 55.5 -7.5t54.5 1.5q30 3 48.5 9t29 11t15 7t5.5 -4t-2.5 -16.5t-15.5 -19.5t-34 -15t-57 -3q-12 0 -27 3q-13 2 -30.5 5.5t-37.5 9.5q-13 4 -27.5 7.5t-27.5 6.5q-15 4 -30 6q-20 -39 -43 -76t-48.5 -66
t-52.5 -47.5t-54 -19.5zM-203 -299q21 -1 41 16t39.5 44.5t37.5 63.5t33 74q-38 2 -67 -2.5t-50 -12.5t-35.5 -18t-23.5 -19q-25 -25 -32 -54q-8 -28 0 -53q7 -26 37 -35q5 -2 10 -2.5t10 -1.5z" />
    <glyph glyph-name="cent" unicode="&#xa2;" horiz-adv-x="388" 
d="M329 541q10 -17 15 -37q4 -17 3.5 -40t-12.5 -50q-4 -9 -10.5 -17t-14 -12.5t-16 -5t-15.5 6.5q-7 6 -8.5 14t-0.5 15t3.5 12.5t3.5 7.5q1 1 1 2q12 20 19 38q6 15 9 29t-3 20l-2 2l-188 -419q11 -29 30 -42.5t44 -8.5q5 2 20.5 11t30.5 41q4 7 8 11q9 9 19 2q1 -1 3 -5
q5 -12 -5.5 -36.5t-36.5 -42.5q-3 -3 -6.5 -5t-7.5 -4q-10 -5 -20 -8t-21 -4q-11 -2 -18 0q-20 2 -33 8.5t-21 12.5t-12 12l-19 -42q-4 -7 -10 -7q-2 0 -6 2q-9 9 -4 22l22 49q-17 31 -22 67.5t-5 60.5q-1 49 7.5 92.5t18.5 75.5q11 38 27 70q11 24 26.5 48t34 44.5t40 35
t45.5 19.5q11 2 24.5 0.5t28.5 -10.5l11 25q7 12 17 5q9 -9 4 -22l-12 -25q4 -4 7 -8.5t7 -9.5zM121 318q-15 -51 -19 -94.5t1 -77.5l168 376q-17 -8 -38 -26.5t-42 -44.5t-39.5 -60t-30.5 -73z" />
    <glyph glyph-name="sterling" unicode="&#xa3;" horiz-adv-x="448" 
d="M349 588q18 -2 32 -14q12 -11 20.5 -34.5t6.5 -66.5q-2 -23 -10.5 -52t-31.5 -61q-9 -11 -15 -11t-8 2q-4 2 -11 11v1q-6 10 -4.5 22.5t5.5 23.5q4 12 12 25q12 21 20 39q7 15 10 29t-4 19q-12 7 -31 -3t-40.5 -33t-43.5 -56.5t-39 -72.5v-1q0 -1 -0.5 -1.5t-0.5 -1.5h27
q12 0 12 -16t-11 -16h-41q-2 -6 -5 -13.5t-5 -15.5h38q12 0 12 -16q1 -7 -2.5 -11.5t-8.5 -4.5h-48q-7 -27 -9 -52t-1.5 -47t3 -40t5.5 -30q2 0 10 -1.5t10 -1.5q26 -7 52.5 -9t34.5 9q2 4 4 10q4 6 7 6q6 2 8 -12q3 -14 0 -34q-3 -18 -12 -28.5t-20 -16.5q-2 -1 -4.5 -2
t-5.5 -2q-9 -2 -19 -2.5t-18 0.5q-2 0 -5 0.5t-5 0.5t-2 1h-6q-1 0 -2 1h-1l-18 3q-20 5 -41.5 11t-45.5 6q-15 -1 -25.5 -8t-16.5 -17q-5 -5 -10 -9t-13 -4q-12 1 -15.5 11t-3.5 18q0 10 1 13q0 3 1 4q5 29 16.5 43t25.5 20q5 2 17.5 5.5t31.5 1.5q2 -1 5 -1t6 -1
q0 2 6.5 1.5t5.5 1.5q-2 8 -3.5 15.5t-3.5 13.5l-2 12q-1 4 -1 8v6v5q-2 20 -1 39t3 37q0 6 2 14h-51q-5 0 -8.5 5t-3.5 11q0 16 12 16h56q3 16 6 31h-49q-5 0 -8.5 4.5t-3.5 11.5q0 6 3.5 11t8.5 5h57q1 1 1 2t1 3q7 22 13 38t10 27q2 3 4 9q12 25 27 49.5t34 45.5
q9 10 21 21t26 20t30.5 15t33.5 5z" />
    <glyph glyph-name="dieresis" unicode="&#xa8;" horiz-adv-x="284" 
d="M103 691q12 -4 18 -15t3 -22q-4 -12 -14.5 -18.5t-22.5 -2.5q-12 3 -18 13.5t-2 22.5q3 12 13.5 18.5t22.5 3.5zM198 665q12 -3 17.5 -14t2.5 -23t-13.5 -18t-22.5 -3q-11 3 -17 13.5t-3 23.5q3 11 14 17.5t22 3.5z" />
    <glyph glyph-name="acute" unicode="&#xb4;" horiz-adv-x="156" 
d="M87 678q8 5 17 6q8 1 15.5 -1.5t14.5 -11.5q4 -6 -1.5 -17.5t-19.5 -22t-36 -16.5t-51 0q-7 1 -11 4q-4 2 -6 5t1 8q4 6 14.5 4.5t22.5 7.5q13 9 21 18.5t19 15.5z" />
    <glyph glyph-name="Agrave" unicode="&#xc0;" 
d="M1102 232q8 -4 4 -11l-4.5 -9t-12.5 -23.5t-18.5 -33t-23.5 -37.5q-38 -61 -73 -93q-7 -8 -15 -13q-7 -5 -16 -8.5t-19 -2.5q-31 3 -47.5 20.5t-23.5 42.5t-6 53t6 54q-23 8 -48 17.5t-50 19.5q-53 -50 -112 -97t-121 -84q-77 -46 -136.5 -76.5t-107.5 -43.5t-88 -7.5
t-77 32.5q-37 26 -48.5 65.5t-6 83.5t23 87.5t38.5 76.5q28 46 68 86.5t84.5 68t90.5 37.5t86 -5q15 -8 22 -27q6 -17 6 -47t-16 -81q33 6 70.5 5t79.5 -10q34 -8 69.5 -18t70.5 -21q17 16 52.5 52.5t76 84t79.5 101t62 103.5q0 3 3.5 12t11.5 9q5 0 15 -13.5t17.5 -35.5
t8 -50t-14.5 -58q-20 -35 -39 -70q-17 -30 -35 -66.5t-31 -68.5q-1 -6 -3 -12q-2 -5 -4.5 -12.5t-4.5 -16.5q33 1 57 15q3 2 6 -0.5t1 -5.5q-2 -6 -6.5 -14t-13 -15t-21.5 -12t-32 -5q-6 -27 -8 -54.5t4 -47.5q3 -13 9 -16.5t12 -1.5q7 1 14 7q27 25 66 85q12 19 22.5 37.5
t18.5 32.5q9 17 16 31q3 8 12 4zM163 -61q19 -20 60 -15.5t94.5 25.5t114.5 53.5t118.5 70t106 75.5t78.5 68q-39 16 -76 28.5t-66 15.5q-35 3 -71 1t-71 -12q-20 -52 -44 -89t-47 -60t-42 -31.5t-29 -3.5q-6 3 -13.5 15t-9.5 29.5t4.5 39.5t28.5 45q23 24 55 44.5t74 31.5
q16 30 21.5 54t5 41.5t-5 27.5t-9.5 12t-26.5 1t-55 -20t-77 -63t-94.5 -128q-30 -47 -44 -94q-6 -20 -10 -41.5t-2.5 -42.5t9 -41t23.5 -37zM405 232q-31 -14 -56 -36t-43 -53q13 3 29 14q14 9 31.5 26.5t38.5 48.5zM773 226q23 -7 44.5 -13t41.5 -11q2 9 4 17t4 13
q2 6 4 11q17 47 37 91t42 84q-26 -32 -72 -83.5t-105 -108.5zM1066 679q11 -6 18.5 -15.5t20.5 -18.5q12 -9 22.5 -7.5t15.5 -4.5q3 -5 1 -8t-6 -5q-4 -3 -11 -4q-29 -6 -51 0t-36 16.5t-19.5 22t-1.5 17.5q6 9 13.5 11.5t15.5 1.5q9 -1 18 -6z" />
    <glyph glyph-name="Aacute" unicode="&#xc1;" 
d="M1102 232q8 -4 4 -11l-4.5 -9t-12.5 -23.5t-18.5 -33t-23.5 -37.5q-38 -61 -73 -93q-7 -8 -15 -13q-7 -5 -16 -8.5t-19 -2.5q-31 3 -47.5 20.5t-23.5 42.5t-6 53t6 54q-23 8 -48 17.5t-50 19.5q-53 -50 -112 -97t-121 -84q-77 -46 -136.5 -76.5t-107.5 -43.5t-88 -7.5
t-77 32.5q-37 26 -48.5 65.5t-6 83.5t23 87.5t38.5 76.5q28 46 68 86.5t84.5 68t90.5 37.5t86 -5q15 -8 22 -27q6 -17 6 -47t-16 -81q33 6 70.5 5t79.5 -10q34 -8 69.5 -18t70.5 -21q17 16 52.5 52.5t76 84t79.5 101t62 103.5q0 3 3.5 12t11.5 9q5 0 15 -13.5t17.5 -35.5
t8 -50t-14.5 -58q-20 -35 -39 -70q-17 -30 -35 -66.5t-31 -68.5q-1 -6 -3 -12q-2 -5 -4.5 -12.5t-4.5 -16.5q33 1 57 15q3 2 6 -0.5t1 -5.5q-2 -6 -6.5 -14t-13 -15t-21.5 -12t-32 -5q-6 -27 -8 -54.5t4 -47.5q3 -13 9 -16.5t12 -1.5q7 1 14 7q27 25 66 85q12 19 22.5 37.5
t18.5 32.5q9 17 16 31q3 8 12 4zM163 -61q19 -20 60 -15.5t94.5 25.5t114.5 53.5t118.5 70t106 75.5t78.5 68q-39 16 -76 28.5t-66 15.5q-35 3 -71 1t-71 -12q-20 -52 -44 -89t-47 -60t-42 -31.5t-29 -3.5q-6 3 -13.5 15t-9.5 29.5t4.5 39.5t28.5 45q23 24 55 44.5t74 31.5
q16 30 21.5 54t5 41.5t-5 27.5t-9.5 12t-26.5 1t-55 -20t-77 -63t-94.5 -128q-30 -47 -44 -94q-6 -20 -10 -41.5t-2.5 -42.5t9 -41t23.5 -37zM405 232q-31 -14 -56 -36t-43 -53q13 3 29 14q14 9 31.5 26.5t38.5 48.5zM773 226q23 -7 44.5 -13t41.5 -11q2 9 4 17t4 13
q2 6 4 11q17 47 37 91t42 84q-26 -32 -72 -83.5t-105 -108.5zM1113 685q8 5 17 6q8 1 15.5 -1.5t14.5 -11.5q4 -6 -1.5 -17.5t-19.5 -22t-36 -16.5t-51 0q-7 1 -11 4q-4 2 -6 5t1 8q4 6 14.5 4.5t22.5 7.5q13 9 21 18.5t19 15.5z" />
    <glyph glyph-name="Acircumflex" unicode="&#xc2;" 
d="M1102 232q8 -4 4 -11l-4.5 -9t-12.5 -23.5t-18.5 -33t-23.5 -37.5q-38 -61 -73 -93q-7 -8 -15 -13q-7 -5 -16 -8.5t-19 -2.5q-31 3 -47.5 20.5t-23.5 42.5t-6 53t6 54q-23 8 -48 17.5t-50 19.5q-53 -50 -112 -97t-121 -84q-77 -46 -136.5 -76.5t-107.5 -43.5t-88 -7.5
t-77 32.5q-37 26 -48.5 65.5t-6 83.5t23 87.5t38.5 76.5q28 46 68 86.5t84.5 68t90.5 37.5t86 -5q15 -8 22 -27q6 -17 6 -47t-16 -81q33 6 70.5 5t79.5 -10q34 -8 69.5 -18t70.5 -21q17 16 52.5 52.5t76 84t79.5 101t62 103.5q0 3 3.5 12t11.5 9q5 0 15 -13.5t17.5 -35.5
t8 -50t-14.5 -58q-20 -35 -39 -70q-17 -30 -35 -66.5t-31 -68.5q-1 -6 -3 -12q-2 -5 -4.5 -12.5t-4.5 -16.5q33 1 57 15q3 2 6 -0.5t1 -5.5q-2 -6 -6.5 -14t-13 -15t-21.5 -12t-32 -5q-6 -27 -8 -54.5t4 -47.5q3 -13 9 -16.5t12 -1.5q7 1 14 7q27 25 66 85q12 19 22.5 37.5
t18.5 32.5q9 17 16 31q3 8 12 4zM163 -61q19 -20 60 -15.5t94.5 25.5t114.5 53.5t118.5 70t106 75.5t78.5 68q-39 16 -76 28.5t-66 15.5q-35 3 -71 1t-71 -12q-20 -52 -44 -89t-47 -60t-42 -31.5t-29 -3.5q-6 3 -13.5 15t-9.5 29.5t4.5 39.5t28.5 45q23 24 55 44.5t74 31.5
q16 30 21.5 54t5 41.5t-5 27.5t-9.5 12t-26.5 1t-55 -20t-77 -63t-94.5 -128q-30 -47 -44 -94q-6 -20 -10 -41.5t-2.5 -42.5t9 -41t23.5 -37zM405 232q-31 -14 -56 -36t-43 -53q13 3 29 14q14 9 31.5 26.5t38.5 48.5zM773 226q23 -7 44.5 -13t41.5 -11q2 9 4 17t4 13
q2 6 4 11q17 47 37 91t42 84q-26 -32 -72 -83.5t-105 -108.5zM1163 595q1 -8 -9 -10q-4 -1 -11 -1q-25 3 -41.5 13.5t-24.5 23.5q-15 -5 -34.5 -3.5t-39.5 15.5q-5 3 -8 7q-8 8 -1 14q3 2 6 1l7.5 -2.5t10 -2t11.5 2.5q14 5 23.5 11.5t20.5 8.5q2 1 5 1q7 0 12 -1
q1 0 2 -0.5t2 -0.5t2 -1t2 -1q6 -3 10 -7l3 -3q8 -9 11.5 -20.5t11.5 -23.5q8 -11 17 -12.5t12 -8.5z" />
    <glyph glyph-name="Atilde" unicode="&#xc3;" 
d="M1102 232q8 -4 4 -11l-4.5 -9t-12.5 -23.5t-18.5 -33t-23.5 -37.5q-38 -61 -73 -93q-7 -8 -15 -13q-7 -5 -16 -8.5t-19 -2.5q-31 3 -47.5 20.5t-23.5 42.5t-6 53t6 54q-23 8 -48 17.5t-50 19.5q-53 -50 -112 -97t-121 -84q-77 -46 -136.5 -76.5t-107.5 -43.5t-88 -7.5
t-77 32.5q-37 26 -48.5 65.5t-6 83.5t23 87.5t38.5 76.5q28 46 68 86.5t84.5 68t90.5 37.5t86 -5q15 -8 22 -27q6 -17 6 -47t-16 -81q33 6 70.5 5t79.5 -10q34 -8 69.5 -18t70.5 -21q17 16 52.5 52.5t76 84t79.5 101t62 103.5q0 3 3.5 12t11.5 9q5 0 15 -13.5t17.5 -35.5
t8 -50t-14.5 -58q-20 -35 -39 -70q-17 -30 -35 -66.5t-31 -68.5q-1 -6 -3 -12q-2 -5 -4.5 -12.5t-4.5 -16.5q33 1 57 15q3 2 6 -0.5t1 -5.5q-2 -6 -6.5 -14t-13 -15t-21.5 -12t-32 -5q-6 -27 -8 -54.5t4 -47.5q3 -13 9 -16.5t12 -1.5q7 1 14 7q27 25 66 85q12 19 22.5 37.5
t18.5 32.5q9 17 16 31q3 8 12 4zM163 -61q19 -20 60 -15.5t94.5 25.5t114.5 53.5t118.5 70t106 75.5t78.5 68q-39 16 -76 28.5t-66 15.5q-35 3 -71 1t-71 -12q-20 -52 -44 -89t-47 -60t-42 -31.5t-29 -3.5q-6 3 -13.5 15t-9.5 29.5t4.5 39.5t28.5 45q23 24 55 44.5t74 31.5
q16 30 21.5 54t5 41.5t-5 27.5t-9.5 12t-26.5 1t-55 -20t-77 -63t-94.5 -128q-30 -47 -44 -94q-6 -20 -10 -41.5t-2.5 -42.5t9 -41t23.5 -37zM405 232q-31 -14 -56 -36t-43 -53q13 3 29 14q14 9 31.5 26.5t38.5 48.5zM773 226q23 -7 44.5 -13t41.5 -11q2 9 4 17t4 13
q2 6 4 11q17 47 37 91t42 84q-26 -32 -72 -83.5t-105 -108.5zM1134 631q4 -4 8 -4t7.5 0.5t6 0t2.5 -5.5q0 -9 -8 -15q-4 -3 -7 -5q-14 -7 -25 -8t-19.5 0.5t-14.5 5.5t-9 8q-8 10 -24.5 13t-33.5 -2q-6 -2 -9 0t-4 5q-1 4 0 9q0 8 13 16.5t39 13.5q15 3 27.5 0t22.5 -9
t17 -12.5t11 -10.5z" />
    <glyph glyph-name="Adieresis" unicode="&#xc4;" 
d="M1102 232q8 -4 4 -11l-4.5 -9t-12.5 -23.5t-18.5 -33t-23.5 -37.5q-38 -61 -73 -93q-7 -8 -15 -13q-7 -5 -16 -8.5t-19 -2.5q-31 3 -47.5 20.5t-23.5 42.5t-6 53t6 54q-23 8 -48 17.5t-50 19.5q-53 -50 -112 -97t-121 -84q-77 -46 -136.5 -76.5t-107.5 -43.5t-88 -7.5
t-77 32.5q-37 26 -48.5 65.5t-6 83.5t23 87.5t38.5 76.5q28 46 68 86.5t84.5 68t90.5 37.5t86 -5q15 -8 22 -27q6 -17 6 -47t-16 -81q33 6 70.5 5t79.5 -10q34 -8 69.5 -18t70.5 -21q17 16 52.5 52.5t76 84t79.5 101t62 103.5q0 3 3.5 12t11.5 9q5 0 15 -13.5t17.5 -35.5
t8 -50t-14.5 -58q-20 -35 -39 -70q-17 -30 -35 -66.5t-31 -68.5q-1 -6 -3 -12q-2 -5 -4.5 -12.5t-4.5 -16.5q33 1 57 15q3 2 6 -0.5t1 -5.5q-2 -6 -6.5 -14t-13 -15t-21.5 -12t-32 -5q-6 -27 -8 -54.5t4 -47.5q3 -13 9 -16.5t12 -1.5q7 1 14 7q27 25 66 85q12 19 22.5 37.5
t18.5 32.5q9 17 16 31q3 8 12 4zM163 -61q19 -20 60 -15.5t94.5 25.5t114.5 53.5t118.5 70t106 75.5t78.5 68q-39 16 -76 28.5t-66 15.5q-35 3 -71 1t-71 -12q-20 -52 -44 -89t-47 -60t-42 -31.5t-29 -3.5q-6 3 -13.5 15t-9.5 29.5t4.5 39.5t28.5 45q23 24 55 44.5t74 31.5
q16 30 21.5 54t5 41.5t-5 27.5t-9.5 12t-26.5 1t-55 -20t-77 -63t-94.5 -128q-30 -47 -44 -94q-6 -20 -10 -41.5t-2.5 -42.5t9 -41t23.5 -37zM405 232q-31 -14 -56 -36t-43 -53q13 3 29 14q14 9 31.5 26.5t38.5 48.5zM773 226q23 -7 44.5 -13t41.5 -11q2 9 4 17t4 13
q2 6 4 11q17 47 37 91t42 84q-26 -32 -72 -83.5t-105 -108.5zM1042 679q12 -4 18 -15t3 -22q-4 -12 -14.5 -18.5t-22.5 -2.5q-12 3 -18 13.5t-2 22.5q3 12 13.5 18.5t22.5 3.5zM1137 653q12 -3 17.5 -14t2.5 -23t-13.5 -18t-22.5 -3q-11 3 -17 13.5t-3 23.5q3 11 14 17.5
t22 3.5z" />
    <glyph glyph-name="Aring" unicode="&#xc5;" 
d="M1102 232q8 -4 4 -11l-4.5 -9t-12.5 -23.5t-18.5 -33t-23.5 -37.5q-38 -61 -73 -93q-7 -8 -15 -13q-7 -5 -16 -8.5t-19 -2.5q-31 3 -47.5 20.5t-23.5 42.5t-6 53t6 54q-23 8 -48 17.5t-50 19.5q-53 -50 -112 -97t-121 -84q-77 -46 -136.5 -76.5t-107.5 -43.5t-88 -7.5
t-77 32.5q-37 26 -48.5 65.5t-6 83.5t23 87.5t38.5 76.5q28 46 68 86.5t84.5 68t90.5 37.5t86 -5q15 -8 22 -27q6 -17 6 -47t-16 -81q33 6 70.5 5t79.5 -10q34 -8 69.5 -18t70.5 -21q17 16 52.5 52.5t76 84t79.5 101t62 103.5q0 3 3.5 12t11.5 9q5 0 15 -13.5t17.5 -35.5
t8 -50t-14.5 -58q-20 -35 -39 -70q-17 -30 -35 -66.5t-31 -68.5q-1 -6 -3 -12q-2 -5 -4.5 -12.5t-4.5 -16.5q33 1 57 15q3 2 6 -0.5t1 -5.5q-2 -6 -6.5 -14t-13 -15t-21.5 -12t-32 -5q-6 -27 -8 -54.5t4 -47.5q3 -13 9 -16.5t12 -1.5q7 1 14 7q27 25 66 85q12 19 22.5 37.5
t18.5 32.5q9 17 16 31q3 8 12 4zM163 -61q19 -20 60 -15.5t94.5 25.5t114.5 53.5t118.5 70t106 75.5t78.5 68q-39 16 -76 28.5t-66 15.5q-35 3 -71 1t-71 -12q-20 -52 -44 -89t-47 -60t-42 -31.5t-29 -3.5q-6 3 -13.5 15t-9.5 29.5t4.5 39.5t28.5 45q23 24 55 44.5t74 31.5
q16 30 21.5 54t5 41.5t-5 27.5t-9.5 12t-26.5 1t-55 -20t-77 -63t-94.5 -128q-30 -47 -44 -94q-6 -20 -10 -41.5t-2.5 -42.5t9 -41t23.5 -37zM405 232q-31 -14 -56 -36t-43 -53q13 3 29 14q14 9 31.5 26.5t38.5 48.5zM773 226q23 -7 44.5 -13t41.5 -11q2 9 4 17t4 13
q2 6 4 11q17 47 37 91t42 84q-26 -32 -72 -83.5t-105 -108.5zM1086 673q16 0 27 -10.5t11 -25.5q0 -16 -11 -26.5t-27 -10.5t-27 10.5t-11 26.5q0 15 11 25.5t27 10.5zM1086 620q7 0 11.5 5t4.5 12q0 16 -16 16q-17 0 -17 -16q0 -7 4.5 -12t12.5 -5z" />
    <glyph glyph-name="AE" unicode="&#xc6;" horiz-adv-x="1545" 
d="M1490 232q8 -4 4 -11l-4.5 -9t-12.5 -23.5t-18.5 -33t-22.5 -37.5q-20 -32 -39 -54.5t-35 -38.5q-42 -44 -78.5 -69.5t-66 -38t-52.5 -15.5t-38 -3q-27 0 -46.5 5.5t-33.5 12.5q-16 8 -27 18q-9 7 -19 18q-8 9 -17 23.5t-15 34.5q-7 -5 -15.5 -8t-18.5 -2
q-31 3 -47.5 20.5t-23.5 42.5t-6 53t6 54q-23 8 -48 17.5t-50 19.5q-53 -50 -112 -97t-121 -84q-77 -46 -136.5 -76.5t-107.5 -43.5t-88 -7.5t-77 32.5q-37 26 -48.5 65.5t-6 83.5t23 87.5t38.5 76.5q28 46 68 86.5t84.5 68t90.5 37.5t86 -5q15 -8 22 -27q6 -17 6 -47
t-16 -81q33 6 70.5 5t79.5 -10q34 -8 69.5 -18t70.5 -21q17 16 52.5 52.5t76 84t79.5 101t62 103.5q0 3 3.5 12t11.5 9q5 0 15 -13.5t17.5 -35.5t8 -50t-14.5 -58q-20 -35 -39 -70q-17 -30 -35 -66.5t-31 -68.5q-1 -6 -3 -12q-2 -5 -4.5 -12.5t-4.5 -16.5q9 1 17 2t16 3
q12 25 30 54t40.5 50.5t46 36t47.5 24t47 14.5q53 12 107 8q-26 13 -37 30t-13 34l-4 -2l5 24q2 11 5.5 21.5t7.5 18.5q4 9 10 17q21 32 45 47t44 20q24 5 47 1q9 -2 21 -8t21.5 -22.5t12.5 -45.5t-7 -76q-12 -54 -21.5 -82.5t-16.5 -41.5q-4 -7 -12 -8t-13 6
q-14 17 -15.5 39t0.5 31q0 4 1 6q2 5 7.5 18.5t11 31t11 37.5t7.5 38t0.5 31.5t-9.5 19.5q-18 7 -38 4q-17 -2 -38.5 -13.5t-42.5 -40.5q-20 -27 -21 -49t8 -39t23.5 -28t25.5 -16q2 -1 4 -3l3.5 -3.5t2.5 -3.5q3 -14 -4 -22.5t-21 -10.5q-20 -2 -50.5 -9.5t-64.5 -26
t-66 -51t-55 -83.5q-30 -67 -32 -110.5t8 -69.5q11 -31 36 -47q33 -15 74 -11q18 1 38.5 7t44.5 18t50 32t55 49q13 13 29 33.5t36 51.5q12 19 22.5 37.5t18.5 32.5q9 17 16 31q5 8 12 4zM174 -61q18 -20 59.5 -15.5t95 25.5t114.5 53.5t118.5 70t106 75.5t78.5 68
q-39 16 -76 28.5t-66 15.5q-35 3 -71 1t-71 -12q-20 -52 -44 -89t-47 -60t-42 -31.5t-29 -3.5q-6 3 -13.5 15t-9.5 29.5t4.5 39.5t28.5 45q23 24 55 44.5t74 31.5q16 30 21.5 54t5 41.5t-5 27.5t-9.5 12t-26.5 1t-55 -20t-77 -63t-94.5 -128q-30 -47 -44 -94
q-6 -20 -10 -41.5t-2.5 -42.5t9 -41t23.5 -37zM416 232q-31 -14 -56 -36t-43 -53q13 3 29 14q14 9 31.5 26.5t38.5 48.5zM882 243q17 47 37 91t42 84q-26 -32 -72 -83.5t-105 -108.5q23 -7 44.5 -13t41.5 -11q2 9 4 17t4 13q2 6 4 11zM943 53q3 -12 8.5 -15.5t11.5 -3.5
q-5 25 -3.5 56t14.5 69q-11 -4 -27 -4q-6 -27 -8 -54.5t4 -47.5z" />
    <glyph glyph-name="Ccedilla" unicode="&#xc7;" horiz-adv-x="1260" 
d="M946 -123q4 -5 7 -13t1 -20q0 -2 -0.5 -3.5t-0.5 -3.5q0 -1 -2 -5.5t-6 -10t-10.5 -11t-16.5 -8.5q-8 -3 -19 -3h-3q-11 1 -16.5 3.5t-8.5 4.5q-5 5 -7.5 10t-2.5 7q-2 8 0 14q3 12 13 14q4 0 7 -1q5 -2 9 -8q0 -2 0.5 -2.5t0.5 -2.5l1 -2v-1q2 -8 5 -8t8 7q8 10 9 16
t1 7v1q-3 -1 -6 -1q-24 -2 -26 14q0 4 4 10q4 3 8 3.5t7 0.5q9 -1 11 5l2 4q0 1 0.5 1.5t0.5 1.5v2q-1 0 -1 1q-17 2 -31 8.5t-25 14.5q-12 8 -22 18q-21 22 -30.5 50.5t-10.5 60t5.5 64.5t15.5 64q22 73 65 152q19 32 37.5 59.5t36.5 50.5q-10 -3 -23.5 -3.5t-34.5 1
t-50.5 5.5t-70.5 10q-54 8 -97 10.5t-73 2.5q-35 0 -62 -2q-60 -3 -109 -16.5t-89 -33.5t-70.5 -45.5t-53.5 -53.5q-27 -32 -44.5 -63t-27.5 -57q-12 -30 -18 -57q-9 -46 -8 -81.5t8.5 -62.5t20 -45.5t27.5 -31.5q34 -30 84 -38q55 -7 101 4.5t81 33.5t59.5 51t38.5 56
q18 38 15.5 65t-8.5 41q-2 5 1.5 10t9.5 3q15 -3 31.5 -14t24.5 -31t1.5 -49t-37.5 -68q-46 -56 -101 -81t-103 -32q-56 -9 -114 -2q-45 5 -79.5 21.5t-60 40t-42 52.5t-25.5 60q-14 45 -11.5 86t11.5 73q10 37 28 70q32 63 85.5 104t118 65t135.5 34t138.5 11t126.5 -4
t101 -10q40 -6 76 -8q31 -2 63 -0.5t52 10.5q48 54 89.5 79t73.5 35q36 11 67 8q9 -2 21 -8t21.5 -22.5t12.5 -45.5t-7 -76q-12 -54 -21.5 -82.5t-16.5 -41.5q-4 -7 -12 -8t-13 6q-14 17 -15.5 39t0.5 31q0 4 1 6q3 7 12 30t16 48.5t8.5 48t-10.5 30.5q-13 9 -43 -4.5
t-68.5 -51.5t-82 -101.5t-83.5 -154.5q-28 -67 -44 -125q-7 -25 -12 -50t-5.5 -47.5t3.5 -40.5t15 -28q33 -15 74 -11q18 1 38.5 7t44.5 18t50 32t55 49q13 13 29 33.5t36 51.5q12 19 22.5 37.5t18.5 32.5q9 17 16 31q5 8 12 4q8 -4 4 -11l-4.5 -9t-12.5 -23.5t-18.5 -33
t-22.5 -37.5q-20 -32 -39 -54.5t-35 -38.5q-34 -35 -64.5 -58.5t-56.5 -37.5t-47.5 -20.5t-38.5 -8.5v-3q1 -2 0.5 -5t-0.5 -5v-1q-2 -6 -4 -9z" />
    <glyph glyph-name="Egrave" unicode="&#xc8;" horiz-adv-x="1181" 
d="M1205 232q7 -3 3 -11l-4.5 -9t-12 -23.5t-18.5 -33t-23 -37.5q-20 -32 -38.5 -54.5t-34.5 -38.5q-42 -44 -78.5 -69.5t-66.5 -38t-53 -15.5t-38 -3q-26 0 -45.5 5.5t-33.5 12.5q-16 8 -27 18q-37 31 -52 77q-6 19 -8.5 43.5t2 54.5t18 65t39.5 76q18 29 40.5 50.5t46 36
t47.5 24t47 14.5q53 12 107 8q-26 13 -37 30t-13 34q-1 -1 -2 -1t-2 -1q-9 -4 -22 -6t-34.5 -1t-54 5t-80.5 11q-54 8 -97 10.5t-73 2.5q-35 0 -62 -2q-60 -3 -109 -16.5t-89 -33.5t-71 -45.5t-54 -53.5q-27 -32 -44 -63t-27 -57q-11 -30 -18 -57q-9 -46 -8 -81.5t8.5 -62.5
t20 -45.5t27.5 -31.5q34 -30 84 -38q55 -7 100.5 4.5t81 33.5t60 51t38.5 56q18 38 15.5 65t-8.5 41q-2 5 1.5 10t9.5 3q15 -3 31.5 -14t24.5 -31t1.5 -49t-37.5 -68q-46 -56 -101 -81t-103 -32q-56 -9 -114 -2q-45 5 -79.5 21.5t-60 40t-42 52.5t-25.5 60q-14 45 -11.5 86
t11.5 73q10 37 28 70q32 63 85.5 104t118 65t135.5 34t138.5 11t126.5 -4t101 -10q36 -5 69 -7q29 -2 60 -1.5t53 7.5q2 11 5.5 21.5t7.5 18.5q4 9 10 17q21 32 45 47t44 20q24 5 47 1q9 -2 21 -8t21.5 -22.5t12 -45.5t-7.5 -76q-11 -54 -21 -82.5t-16 -41.5q-4 -7 -12 -8
t-13 6q-14 17 -15.5 39t-0.5 31q1 2 1 3t1 3q2 5 7.5 18.5t11 31t11 37.5t7.5 38t0.5 31.5t-9.5 19.5q-19 7 -39 4q-17 -2 -38.5 -13.5t-42.5 -40.5q-20 -27 -21 -49t8 -39t23.5 -28t26.5 -16q2 -1 4 -3q4 -4 5 -7q4 -14 -3 -22.5t-21 -10.5q-20 -2 -51 -9.5t-64.5 -26
t-66 -51t-54.5 -83.5q-30 -67 -32 -110.5t8 -69.5q11 -31 35 -47q34 -15 75 -11q18 1 38.5 7t44.5 18t50 32t54 49q13 13 29.5 33.5t36.5 51.5q12 19 22 37.5t18 32.5q9 17 17 31q3 8 12 4zM1153 684q11 -6 18.5 -15.5t20.5 -18.5q12 -9 22.5 -7.5t15.5 -4.5q3 -5 1 -8
t-6 -5q-4 -3 -11 -4q-29 -6 -51 0t-36 16.5t-19.5 22t-1.5 17.5q6 9 13.5 11.5t15.5 1.5q9 -1 18 -6z" />
    <glyph glyph-name="Eacute" unicode="&#xc9;" horiz-adv-x="1181" 
d="M1205 232q7 -3 3 -11l-4.5 -9t-12 -23.5t-18.5 -33t-23 -37.5q-20 -32 -38.5 -54.5t-34.5 -38.5q-42 -44 -78.5 -69.5t-66.5 -38t-53 -15.5t-38 -3q-26 0 -45.5 5.5t-33.5 12.5q-16 8 -27 18q-37 31 -52 77q-6 19 -8.5 43.5t2 54.5t18 65t39.5 76q18 29 40.5 50.5t46 36
t47.5 24t47 14.5q53 12 107 8q-26 13 -37 30t-13 34q-1 -1 -2 -1t-2 -1q-9 -4 -22 -6t-34.5 -1t-54 5t-80.5 11q-54 8 -97 10.5t-73 2.5q-35 0 -62 -2q-60 -3 -109 -16.5t-89 -33.5t-71 -45.5t-54 -53.5q-27 -32 -44 -63t-27 -57q-11 -30 -18 -57q-9 -46 -8 -81.5t8.5 -62.5
t20 -45.5t27.5 -31.5q34 -30 84 -38q55 -7 100.5 4.5t81 33.5t60 51t38.5 56q18 38 15.5 65t-8.5 41q-2 5 1.5 10t9.5 3q15 -3 31.5 -14t24.5 -31t1.5 -49t-37.5 -68q-46 -56 -101 -81t-103 -32q-56 -9 -114 -2q-45 5 -79.5 21.5t-60 40t-42 52.5t-25.5 60q-14 45 -11.5 86
t11.5 73q10 37 28 70q32 63 85.5 104t118 65t135.5 34t138.5 11t126.5 -4t101 -10q36 -5 69 -7q29 -2 60 -1.5t53 7.5q2 11 5.5 21.5t7.5 18.5q4 9 10 17q21 32 45 47t44 20q24 5 47 1q9 -2 21 -8t21.5 -22.5t12 -45.5t-7.5 -76q-11 -54 -21 -82.5t-16 -41.5q-4 -7 -12 -8
t-13 6q-14 17 -15.5 39t-0.5 31q1 2 1 3t1 3q2 5 7.5 18.5t11 31t11 37.5t7.5 38t0.5 31.5t-9.5 19.5q-19 7 -39 4q-17 -2 -38.5 -13.5t-42.5 -40.5q-20 -27 -21 -49t8 -39t23.5 -28t26.5 -16q2 -1 4 -3q4 -4 5 -7q4 -14 -3 -22.5t-21 -10.5q-20 -2 -51 -9.5t-64.5 -26
t-66 -51t-54.5 -83.5q-30 -67 -32 -110.5t8 -69.5q11 -31 35 -47q34 -15 75 -11q18 1 38.5 7t44.5 18t50 32t54 49q13 13 29.5 33.5t36.5 51.5q12 19 22 37.5t18 32.5q9 17 17 31q3 8 12 4zM1175 683q8 5 17 6q8 1 15.5 -1.5t14.5 -11.5q4 -6 -1.5 -17.5t-19.5 -22
t-36 -16.5t-51 0q-7 1 -11 4q-4 2 -6 5t1 8q4 6 14.5 4.5t22.5 7.5q13 9 21 18.5t19 15.5z" />
    <glyph glyph-name="Ecircumflex" unicode="&#xca;" horiz-adv-x="1181" 
d="M1205 232q7 -3 3 -11l-4.5 -9t-12 -23.5t-18.5 -33t-23 -37.5q-20 -32 -38.5 -54.5t-34.5 -38.5q-42 -44 -78.5 -69.5t-66.5 -38t-53 -15.5t-38 -3q-26 0 -45.5 5.5t-33.5 12.5q-16 8 -27 18q-37 31 -52 77q-6 19 -8.5 43.5t2 54.5t18 65t39.5 76q18 29 40.5 50.5t46 36
t47.5 24t47 14.5q53 12 107 8q-26 13 -37 30t-13 34q-1 -1 -2 -1t-2 -1q-9 -4 -22 -6t-34.5 -1t-54 5t-80.5 11q-54 8 -97 10.5t-73 2.5q-35 0 -62 -2q-60 -3 -109 -16.5t-89 -33.5t-71 -45.5t-54 -53.5q-27 -32 -44 -63t-27 -57q-11 -30 -18 -57q-9 -46 -8 -81.5t8.5 -62.5
t20 -45.5t27.5 -31.5q34 -30 84 -38q55 -7 100.5 4.5t81 33.5t60 51t38.5 56q18 38 15.5 65t-8.5 41q-2 5 1.5 10t9.5 3q15 -3 31.5 -14t24.5 -31t1.5 -49t-37.5 -68q-46 -56 -101 -81t-103 -32q-56 -9 -114 -2q-45 5 -79.5 21.5t-60 40t-42 52.5t-25.5 60q-14 45 -11.5 86
t11.5 73q10 37 28 70q32 63 85.5 104t118 65t135.5 34t138.5 11t126.5 -4t101 -10q36 -5 69 -7q29 -2 60 -1.5t53 7.5q2 11 5.5 21.5t7.5 18.5q4 9 10 17q21 32 45 47t44 20q24 5 47 1q9 -2 21 -8t21.5 -22.5t12 -45.5t-7.5 -76q-11 -54 -21 -82.5t-16 -41.5q-4 -7 -12 -8
t-13 6q-14 17 -15.5 39t-0.5 31q1 2 1 3t1 3q2 5 7.5 18.5t11 31t11 37.5t7.5 38t0.5 31.5t-9.5 19.5q-19 7 -39 4q-17 -2 -38.5 -13.5t-42.5 -40.5q-20 -27 -21 -49t8 -39t23.5 -28t26.5 -16q2 -1 4 -3q4 -4 5 -7q4 -14 -3 -22.5t-21 -10.5q-20 -2 -51 -9.5t-64.5 -26
t-66 -51t-54.5 -83.5q-30 -67 -32 -110.5t8 -69.5q11 -31 35 -47q34 -15 75 -11q18 1 38.5 7t44.5 18t50 32t54 49q13 13 29.5 33.5t36.5 51.5q12 19 22 37.5t18 32.5q9 17 17 31q3 8 12 4zM1243 603q1 -8 -9 -10q-4 -1 -11 -1q-25 3 -41.5 13.5t-24.5 23.5
q-15 -5 -34.5 -3.5t-39.5 15.5q-5 3 -8 7q-8 8 -1 14q3 2 6 1l7.5 -2.5t10 -2t11.5 2.5q14 5 23.5 11.5t20.5 8.5q2 1 5 1q7 0 12 -1q1 0 2 -0.5t2 -0.5t2 -1t2 -1q6 -3 10 -7l3 -3q8 -9 11.5 -20.5t11.5 -23.5q8 -11 17 -12.5t12 -8.5z" />
    <glyph glyph-name="Edieresis" unicode="&#xcb;" horiz-adv-x="1181" 
d="M1205 232q7 -3 3 -11l-4.5 -9t-12 -23.5t-18.5 -33t-23 -37.5q-20 -32 -38.5 -54.5t-34.5 -38.5q-42 -44 -78.5 -69.5t-66.5 -38t-53 -15.5t-38 -3q-26 0 -45.5 5.5t-33.5 12.5q-16 8 -27 18q-37 31 -52 77q-6 19 -8.5 43.5t2 54.5t18 65t39.5 76q18 29 40.5 50.5t46 36
t47.5 24t47 14.5q53 12 107 8q-26 13 -37 30t-13 34q-1 -1 -2 -1t-2 -1q-9 -4 -22 -6t-34.5 -1t-54 5t-80.5 11q-54 8 -97 10.5t-73 2.5q-35 0 -62 -2q-60 -3 -109 -16.5t-89 -33.5t-71 -45.5t-54 -53.5q-27 -32 -44 -63t-27 -57q-11 -30 -18 -57q-9 -46 -8 -81.5t8.5 -62.5
t20 -45.5t27.5 -31.5q34 -30 84 -38q55 -7 100.5 4.5t81 33.5t60 51t38.5 56q18 38 15.5 65t-8.5 41q-2 5 1.5 10t9.5 3q15 -3 31.5 -14t24.5 -31t1.5 -49t-37.5 -68q-46 -56 -101 -81t-103 -32q-56 -9 -114 -2q-45 5 -79.5 21.5t-60 40t-42 52.5t-25.5 60q-14 45 -11.5 86
t11.5 73q10 37 28 70q32 63 85.5 104t118 65t135.5 34t138.5 11t126.5 -4t101 -10q36 -5 69 -7q29 -2 60 -1.5t53 7.5q2 11 5.5 21.5t7.5 18.5q4 9 10 17q21 32 45 47t44 20q24 5 47 1q9 -2 21 -8t21.5 -22.5t12 -45.5t-7.5 -76q-11 -54 -21 -82.5t-16 -41.5q-4 -7 -12 -8
t-13 6q-14 17 -15.5 39t-0.5 31q1 2 1 3t1 3q2 5 7.5 18.5t11 31t11 37.5t7.5 38t0.5 31.5t-9.5 19.5q-19 7 -39 4q-17 -2 -38.5 -13.5t-42.5 -40.5q-20 -27 -21 -49t8 -39t23.5 -28t26.5 -16q2 -1 4 -3q4 -4 5 -7q4 -14 -3 -22.5t-21 -10.5q-20 -2 -51 -9.5t-64.5 -26
t-66 -51t-54.5 -83.5q-30 -67 -32 -110.5t8 -69.5q11 -31 35 -47q34 -15 75 -11q18 1 38.5 7t44.5 18t50 32t54 49q13 13 29.5 33.5t36.5 51.5q12 19 22 37.5t18 32.5q9 17 17 31q3 8 12 4zM1135 692q12 -4 18 -15t3 -22q-4 -12 -14.5 -18.5t-22.5 -2.5q-12 3 -18 13.5
t-2 22.5q3 12 13.5 18.5t22.5 3.5zM1230 666q12 -3 17.5 -14t2.5 -23t-13.5 -18t-22.5 -3q-11 3 -17 13.5t-3 23.5q3 11 14 17.5t22 3.5z" />
    <glyph glyph-name="Igrave" unicode="&#xcc;" horiz-adv-x="574" 
d="M691 629q5 0 7 -4t-2 -8q-14 -15 -29 -43t-31.5 -66t-34.5 -85t-37 -100q-26 -71 -52 -124.5t-48 -90.5q-26 -43 -49 -74q-49 -66 -101 -96t-101 -37q-8 -1 -11 7t4 12q38 23 76 70t74 107t68 126t59.5 126.5t48.5 109.5t35 75q18 35 39 55q-11 -2 -19.5 -2.5t-14.5 -1.5
q-17 -3 -38 -5.5t-48 -6.5t-61.5 -9.5t-77.5 -15.5q-56 -13 -97.5 -38t-69.5 -57t-42 -68.5t-14 -72.5q0 -25 5.5 -44t13.5 -33t17 -23t17 -15q5 -3 3.5 -8.5t-7.5 -6.5q-19 -4 -37 0.5t-33 14t-26 23.5t-17 30q-5 13 -10.5 35t-3 50t17.5 61.5t51 69.5q37 37 86.5 59
t106.5 35t120 20.5t129 17.5q51 6 92 22q12 5 23 7t19 2zM659 720q11 -6 18.5 -15.5t20.5 -18.5q12 -9 22.5 -7.5t15.5 -4.5q3 -5 1 -8t-6 -5q-4 -3 -11 -4q-29 -6 -51 0t-36 16.5t-19.5 22t-1.5 17.5q6 9 13.5 11.5t15.5 1.5q9 -1 18 -6z" />
    <glyph glyph-name="Iacute" unicode="&#xcd;" horiz-adv-x="574" 
d="M691 629q5 0 7 -4t-2 -8q-14 -15 -29 -43t-31.5 -66t-34.5 -85t-37 -100q-26 -71 -52 -124.5t-48 -90.5q-26 -43 -49 -74q-49 -66 -101 -96t-101 -37q-8 -1 -11 7t4 12q38 23 76 70t74 107t68 126t59.5 126.5t48.5 109.5t35 75q18 35 39 55q-11 -2 -19.5 -2.5t-14.5 -1.5
q-17 -3 -38 -5.5t-48 -6.5t-61.5 -9.5t-77.5 -15.5q-56 -13 -97.5 -38t-69.5 -57t-42 -68.5t-14 -72.5q0 -25 5.5 -44t13.5 -33t17 -23t17 -15q5 -3 3.5 -8.5t-7.5 -6.5q-19 -4 -37 0.5t-33 14t-26 23.5t-17 30q-5 13 -10.5 35t-3 50t17.5 61.5t51 69.5q37 37 86.5 59
t106.5 35t120 20.5t129 17.5q51 6 92 22q12 5 23 7t19 2zM681 722q8 5 17 6q8 1 15.5 -1.5t14.5 -11.5q4 -6 -1.5 -17.5t-19.5 -22t-36 -16.5t-51 0q-7 1 -11 4q-4 2 -6 5t1 8q4 6 14.5 4.5t22.5 7.5q13 9 21 18.5t19 15.5z" />
    <glyph glyph-name="Icircumflex" unicode="&#xce;" horiz-adv-x="574" 
d="M691 629q5 0 7 -4t-2 -8q-14 -15 -29 -43t-31.5 -66t-34.5 -85t-37 -100q-26 -71 -52 -124.5t-48 -90.5q-26 -43 -49 -74q-49 -66 -101 -96t-101 -37q-8 -1 -11 7t4 12q38 23 76 70t74 107t68 126t59.5 126.5t48.5 109.5t35 75q18 35 39 55q-11 -2 -19.5 -2.5t-14.5 -1.5
q-17 -3 -38 -5.5t-48 -6.5t-61.5 -9.5t-77.5 -15.5q-56 -13 -97.5 -38t-69.5 -57t-42 -68.5t-14 -72.5q0 -25 5.5 -44t13.5 -33t17 -23t17 -15q5 -3 3.5 -8.5t-7.5 -6.5q-19 -4 -37 0.5t-33 14t-26 23.5t-17 30q-5 13 -10.5 35t-3 50t17.5 61.5t51 69.5q37 37 86.5 59
t106.5 35t120 20.5t129 17.5q51 6 92 22q12 5 23 7t19 2zM758 662q1 -8 -9 -10q-4 -1 -11 -1q-25 3 -41.5 13.5t-24.5 23.5q-15 -5 -34.5 -3.5t-39.5 15.5q-5 3 -8 7q-8 8 -1 14q3 2 6 1l7.5 -2.5t10 -2t11.5 2.5q14 5 23.5 11.5t20.5 8.5q2 1 5 1q7 0 12 -1q1 0 2 -0.5
t2 -0.5t2 -1t2 -1q6 -3 10 -7l3 -3q8 -9 11.5 -20.5t11.5 -23.5q8 -11 17 -12.5t12 -8.5z" />
    <glyph glyph-name="Idieresis" unicode="&#xcf;" horiz-adv-x="574" 
d="M691 629q5 0 7 -4t-2 -8q-14 -15 -29 -43t-31.5 -66t-34.5 -85t-37 -100q-26 -71 -52 -124.5t-48 -90.5q-26 -43 -49 -74q-49 -66 -101 -96t-101 -37q-8 -1 -11 7t4 12q38 23 76 70t74 107t68 126t59.5 126.5t48.5 109.5t35 75q18 35 39 55q-11 -2 -19.5 -2.5t-14.5 -1.5
q-17 -3 -38 -5.5t-48 -6.5t-61.5 -9.5t-77.5 -15.5q-56 -13 -97.5 -38t-69.5 -57t-42 -68.5t-14 -72.5q0 -25 5.5 -44t13.5 -33t17 -23t17 -15q5 -3 3.5 -8.5t-7.5 -6.5q-19 -4 -37 0.5t-33 14t-26 23.5t-17 30q-5 13 -10.5 35t-3 50t17.5 61.5t51 69.5q37 37 86.5 59
t106.5 35t120 20.5t129 17.5q51 6 92 22q12 5 23 7t19 2zM630 735q12 -4 18 -15t3 -22q-4 -12 -14.5 -18.5t-22.5 -2.5q-12 3 -18 13.5t-2 22.5q3 12 13.5 18.5t22.5 3.5zM725 709q12 -3 17.5 -14t2.5 -23t-13.5 -18t-22.5 -3q-11 3 -17 13.5t-3 23.5q3 11 14 17.5t22 3.5z
" />
    <glyph glyph-name="Ntilde" unicode="&#xd1;" horiz-adv-x="1168" 
d="M1447 551q1 -5 -1 -8.5t-5 -1.5q-6 4 -21.5 6.5t-28.5 0.5q-14 -2 -33.5 -10t-42 -24.5t-47 -42.5t-49.5 -64q-39 -63 -72 -129q-28 -57 -54 -123.5t-34 -129.5q-2 -6 -5.5 -12.5t-11.5 -10.5q-8 -3 -16.5 -2.5t-16.5 3.5q-17 6 -28 18.5t-18.5 28.5t-11.5 35t-6 37
q-4 43 2 95q7 53 19.5 104.5t28.5 97.5q3 10 6 21q2 10 5 22.5t7 26.5l-22 -33q-66 -83 -141 -162q-32 -34 -69 -70t-78 -71t-84.5 -67.5t-87.5 -58.5q-77 -46 -136.5 -76.5t-107.5 -43.5t-88 -7.5t-77 32.5q-37 26 -48.5 65.5t-6 83.5t23 87.5t38.5 76.5q28 46 68 86.5
t84.5 68t90.5 37.5t86 -5q16 -8 23 -28q6 -17 5 -50t-19 -87q-20 -57 -45 -97.5t-49 -65.5t-44.5 -35t-30.5 -4q-5 2 -10 9.5t-9 18.5t-4.5 25t5.5 30q1 4 4.5 4.5t5.5 -2.5q3 -4 9 -6.5t16 -0.5q14 4 32 16q15 11 34 31.5t42 55.5q22 35 31 63.5t9.5 49t-4.5 32.5t-10 14
t-26.5 1t-55 -19.5t-77 -63t-94.5 -128.5q-30 -47 -44 -94q-6 -20 -10 -41.5t-2.5 -42.5t9 -41t23.5 -37q19 -20 61.5 -15t97 26.5t116 55t119.5 71.5t106.5 76t76.5 68q55 53 106 110q22 24 45 51.5t45 56t41.5 58t34.5 58.5q4 8 5.5 13.5t1.5 7.5q0 5 2.5 11.5t8.5 7.5
q5 0 17.5 -11t24 -31.5t17.5 -48t-3 -59.5q-14 -37 -25 -76q-10 -33 -20.5 -72t-16.5 -73q-8 -51 -11 -91q-2 -35 1.5 -63.5t20.5 -30.5q14 74 39.5 141.5t51.5 120.5q30 62 63 115q12 19 32.5 49.5t46 59t54.5 49t58 20.5q33 0 44.5 -15t13.5 -28zM1264 650q4 -4 8 -4
t7.5 0.5t6 0t2.5 -5.5q0 -9 -8 -15q-4 -3 -7 -5q-14 -7 -25 -8t-19.5 0.5t-14.5 5.5t-9 8q-8 10 -24.5 13t-33.5 -2q-6 -2 -9 0t-4 5q-1 4 0 9q0 8 13 16.5t39 13.5q15 3 27.5 0t22.5 -9t17 -12.5t11 -10.5z" />
    <glyph glyph-name="Ograve" unicode="&#xd2;" horiz-adv-x="783" 
d="M301 229q-17 -8 -31 -16t-25 -16q-12 -9 -22 -17q-61 -51 -83 -113t-9 -119q5 -24 14.5 -41t20 -29t21.5 -19t20 -11q5 -2 5 -8t-5 -8q-18 -8 -36.5 -7.5t-35 6.5t-31 17t-23.5 25q-8 12 -18 32t-13.5 48.5t4 64t35.5 79.5q35 55 91.5 91t126.5 65q9 36 19 61q5 13 10 24
q39 85 83.5 139t88.5 86t84 46t70 19q29 4 48 -3t30 -18q12 -12 19 -29q6 -20 4 -39t-7 -35q19 -30 22.5 -80.5t-8.5 -107.5t-38 -115t-65.5 -104t-93 -73t-118.5 -23q-62 4 -96.5 26.5t-49.5 55.5t-15 71.5t7 74.5zM488 438q-15 -22 -28 -47t-22 -47q-11 -26 -20 -50
q18 7 36.5 13.5t37.5 13.5q49 18 85.5 40t62 43.5t40.5 40t22 28.5q-22 21 -55 25q-5 2 -7 6t1 8q6 9 18 17.5t33 9.5q20 1 37 -8q4 16 4 28t-1 20q-2 10 -4 16q-9 11 -33.5 7.5t-58 -22t-72.5 -54t-76 -88.5zM727 253q16 56 16.5 106t-18.5 85q-24 -32 -55.5 -54.5t-62 -38
t-57 -25t-41.5 -15.5q-19 -8 -42.5 -15.5t-55.5 -19.5q-6 -17 -12.5 -41t-11 -51.5t-5 -55t6 -50t21.5 -38.5t43 -20q39 -6 73.5 4.5t63 30.5t52 47t40.5 54.5t28.5 53t16.5 43.5zM691 735q11 -6 18.5 -15.5t20.5 -18.5q12 -9 22.5 -7.5t15.5 -4.5q3 -5 1 -8t-6 -5
q-4 -3 -11 -4q-29 -6 -51 0t-36 16.5t-19.5 22t-1.5 17.5q6 9 13.5 11.5t15.5 1.5q9 -1 18 -6z" />
    <glyph glyph-name="Oacute" unicode="&#xd3;" horiz-adv-x="783" 
d="M301 229q-17 -8 -31 -16t-25 -16q-12 -9 -22 -17q-61 -51 -83 -113t-9 -119q5 -24 14.5 -41t20 -29t21.5 -19t20 -11q5 -2 5 -8t-5 -8q-18 -8 -36.5 -7.5t-35 6.5t-31 17t-23.5 25q-8 12 -18 32t-13.5 48.5t4 64t35.5 79.5q35 55 91.5 91t126.5 65q9 36 19 61q5 13 10 24
q39 85 83.5 139t88.5 86t84 46t70 19q29 4 48 -3t30 -18q12 -12 19 -29q6 -20 4 -39t-7 -35q19 -30 22.5 -80.5t-8.5 -107.5t-38 -115t-65.5 -104t-93 -73t-118.5 -23q-62 4 -96.5 26.5t-49.5 55.5t-15 71.5t7 74.5zM488 438q-15 -22 -28 -47t-22 -47q-11 -26 -20 -50
q18 7 36.5 13.5t37.5 13.5q49 18 85.5 40t62 43.5t40.5 40t22 28.5q-22 21 -55 25q-5 2 -7 6t1 8q6 9 18 17.5t33 9.5q20 1 37 -8q4 16 4 28t-1 20q-2 10 -4 16q-9 11 -33.5 7.5t-58 -22t-72.5 -54t-76 -88.5zM727 253q16 56 16.5 106t-18.5 85q-24 -32 -55.5 -54.5t-62 -38
t-57 -25t-41.5 -15.5q-19 -8 -42.5 -15.5t-55.5 -19.5q-6 -17 -12.5 -41t-11 -51.5t-5 -55t6 -50t21.5 -38.5t43 -20q39 -6 73.5 4.5t63 30.5t52 47t40.5 54.5t28.5 53t16.5 43.5zM743 731q8 5 17 6q8 1 15.5 -1.5t14.5 -11.5q4 -6 -1.5 -17.5t-19.5 -22t-36 -16.5t-51 0
q-7 1 -11 4q-4 2 -6 5t1 8q4 6 14.5 4.5t22.5 7.5q13 9 21 18.5t19 15.5z" />
    <glyph glyph-name="Ocircumflex" unicode="&#xd4;" horiz-adv-x="783" 
d="M301 229q-17 -8 -31 -16t-25 -16q-12 -9 -22 -17q-61 -51 -83 -113t-9 -119q5 -24 14.5 -41t20 -29t21.5 -19t20 -11q5 -2 5 -8t-5 -8q-18 -8 -36.5 -7.5t-35 6.5t-31 17t-23.5 25q-8 12 -18 32t-13.5 48.5t4 64t35.5 79.5q35 55 91.5 91t126.5 65q9 36 19 61q5 13 10 24
q39 85 83.5 139t88.5 86t84 46t70 19q29 4 48 -3t30 -18q12 -12 19 -29q6 -20 4 -39t-7 -35q19 -30 22.5 -80.5t-8.5 -107.5t-38 -115t-65.5 -104t-93 -73t-118.5 -23q-62 4 -96.5 26.5t-49.5 55.5t-15 71.5t7 74.5zM488 438q-15 -22 -28 -47t-22 -47q-11 -26 -20 -50
q18 7 36.5 13.5t37.5 13.5q49 18 85.5 40t62 43.5t40.5 40t22 28.5q-22 21 -55 25q-5 2 -7 6t1 8q6 9 18 17.5t33 9.5q20 1 37 -8q4 16 4 28t-1 20q-2 10 -4 16q-9 11 -33.5 7.5t-58 -22t-72.5 -54t-76 -88.5zM727 253q16 56 16.5 106t-18.5 85q-24 -32 -55.5 -54.5t-62 -38
t-57 -25t-41.5 -15.5q-19 -8 -42.5 -15.5t-55.5 -19.5q-6 -17 -12.5 -41t-11 -51.5t-5 -55t6 -50t21.5 -38.5t43 -20q39 -6 73.5 4.5t63 30.5t52 47t40.5 54.5t28.5 53t16.5 43.5zM805 651q1 -8 -9 -10q-4 -1 -11 -1q-25 3 -41.5 13.5t-24.5 23.5q-15 -5 -34.5 -3.5
t-39.5 15.5q-5 3 -8 7q-8 8 -1 14q3 2 6 1l7.5 -2.5t10 -2t11.5 2.5q14 5 23.5 11.5t20.5 8.5q2 1 5 1q7 0 12 -1q1 0 2 -0.5t2 -0.5t2 -1t2 -1q6 -3 10 -7l3 -3q8 -9 11.5 -20.5t11.5 -23.5q8 -11 17 -12.5t12 -8.5z" />
    <glyph glyph-name="Otilde" unicode="&#xd5;" horiz-adv-x="783" 
d="M301 229q-17 -8 -31 -16t-25 -16q-12 -9 -22 -17q-61 -51 -83 -113t-9 -119q5 -24 14.5 -41t20 -29t21.5 -19t20 -11q5 -2 5 -8t-5 -8q-18 -8 -36.5 -7.5t-35 6.5t-31 17t-23.5 25q-8 12 -18 32t-13.5 48.5t4 64t35.5 79.5q35 55 91.5 91t126.5 65q9 36 19 61q5 13 10 24
q39 85 83.5 139t88.5 86t84 46t70 19q29 4 48 -3t30 -18q12 -12 19 -29q6 -20 4 -39t-7 -35q19 -30 22.5 -80.5t-8.5 -107.5t-38 -115t-65.5 -104t-93 -73t-118.5 -23q-62 4 -96.5 26.5t-49.5 55.5t-15 71.5t7 74.5zM488 438q-15 -22 -28 -47t-22 -47q-11 -26 -20 -50
q18 7 36.5 13.5t37.5 13.5q49 18 85.5 40t62 43.5t40.5 40t22 28.5q-22 21 -55 25q-5 2 -7 6t1 8q6 9 18 17.5t33 9.5q20 1 37 -8q4 16 4 28t-1 20q-2 10 -4 16q-9 11 -33.5 7.5t-58 -22t-72.5 -54t-76 -88.5zM727 253q16 56 16.5 106t-18.5 85q-24 -32 -55.5 -54.5t-62 -38
t-57 -25t-41.5 -15.5q-19 -8 -42.5 -15.5t-55.5 -19.5q-6 -17 -12.5 -41t-11 -51.5t-5 -55t6 -50t21.5 -38.5t43 -20q39 -6 73.5 4.5t63 30.5t52 47t40.5 54.5t28.5 53t16.5 43.5zM801 692q4 -4 8 -4t7.5 0.5t6 0t2.5 -5.5q0 -9 -8 -15q-4 -3 -7 -5q-14 -7 -25 -8t-19.5 0.5
t-14.5 5.5t-9 8q-8 10 -24.5 13t-33.5 -2q-6 -2 -9 0t-4 5q-1 4 0 9q0 8 13 16.5t39 13.5q15 3 27.5 0t22.5 -9t17 -12.5t11 -10.5z" />
    <glyph glyph-name="Odieresis" unicode="&#xd6;" horiz-adv-x="783" 
d="M301 229q-17 -8 -31 -16t-25 -16q-12 -9 -22 -17q-61 -51 -83 -113t-9 -119q5 -24 14.5 -41t20 -29t21.5 -19t20 -11q5 -2 5 -8t-5 -8q-18 -8 -36.5 -7.5t-35 6.5t-31 17t-23.5 25q-8 12 -18 32t-13.5 48.5t4 64t35.5 79.5q35 55 91.5 91t126.5 65q9 36 19 61q5 13 10 24
q39 85 83.5 139t88.5 86t84 46t70 19q29 4 48 -3t30 -18q12 -12 19 -29q6 -20 4 -39t-7 -35q19 -30 22.5 -80.5t-8.5 -107.5t-38 -115t-65.5 -104t-93 -73t-118.5 -23q-62 4 -96.5 26.5t-49.5 55.5t-15 71.5t7 74.5zM488 438q-15 -22 -28 -47t-22 -47q-11 -26 -20 -50
q18 7 36.5 13.5t37.5 13.5q49 18 85.5 40t62 43.5t40.5 40t22 28.5q-22 21 -55 25q-5 2 -7 6t1 8q6 9 18 17.5t33 9.5q20 1 37 -8q4 16 4 28t-1 20q-2 10 -4 16q-9 11 -33.5 7.5t-58 -22t-72.5 -54t-76 -88.5zM727 253q16 56 16.5 106t-18.5 85q-24 -32 -55.5 -54.5t-62 -38
t-57 -25t-41.5 -15.5q-19 -8 -42.5 -15.5t-55.5 -19.5q-6 -17 -12.5 -41t-11 -51.5t-5 -55t6 -50t21.5 -38.5t43 -20q39 -6 73.5 4.5t63 30.5t52 47t40.5 54.5t28.5 53t16.5 43.5zM692 719q12 -4 18 -15t3 -22q-4 -12 -14.5 -18.5t-22.5 -2.5q-12 3 -18 13.5t-2 22.5
q3 12 13.5 18.5t22.5 3.5zM787 693q12 -3 17.5 -14t2.5 -23t-13.5 -18t-22.5 -3q-11 3 -17 13.5t-3 23.5q3 11 14 17.5t22 3.5z" />
    <glyph glyph-name="multiply" unicode="&#xd7;" horiz-adv-x="195" 
d="M127 275q1 -2 1 -4.5t1 -5.5q3 -11 4.5 -27t-9.5 -31q-12 -16 -20.5 -10t-13.5 15q-4 7 -7 19q-5 -4 -8.5 -8t-7.5 -8q-8 -8 -19.5 -12t-14.5 10q-4 12 0 24.5t12 22.5q10 13 22 25q-2 5 -3 9.5t-3 9.5q-2 10 -1.5 25.5t12.5 26.5q10 9 17.5 7.5t12.5 -9.5q5 -10 10 -25
q2 2 4 3.5t4 3.5q4 4 9.5 9t11 8t11 3t8.5 -6q8 -13 0 -28.5t-16 -26.5q-4 -5 -8 -9.5t-8 -9.5q-1 0 -1 -1z" />
    <glyph glyph-name="Oslash" unicode="&#xd8;" horiz-adv-x="783" 
d="M301 229q-17 -8 -31 -16t-25 -16q-12 -9 -22 -17q-61 -51 -83 -113t-9 -119q5 -24 14.5 -41t20 -29t21.5 -19t20 -11q5 -2 5 -8t-5 -8q-18 -8 -36.5 -7.5t-35 6.5t-31 17t-23.5 25q-8 12 -18 32t-13.5 48.5t4 64t35.5 79.5q35 55 91.5 91t126.5 65q9 36 19 61q5 13 10 24
q39 85 83.5 139t88.5 86t84 46t70 19q29 4 48 -3t30 -18q12 -12 19 -29q4 -15 4 -33l27 25q12 10 23 17.5t16 2.5q11 -11 -6 -41q-5 -8 -11 -16.5t-15 -19.5q-4 -6 -9 -11l-10 -11l-11 -12q12 -36 11 -86.5t-15 -105t-41 -107.5t-65.5 -94t-89.5 -65t-112 -20q-29 2 -51 7.5
t-39 15.5q-17 -18 -28 -28.5t-18 -15.5t-11.5 -5.5t-7.5 1.5l-2 2q-1 1 0 8t7 19.5t28 42.5q-17 17 -26 39t-12 45.5t-1 48.5t7 48zM727 253q15 53 16 101t-15 83l-14 -16l-20 -24l-53 -60q-14 -17 -29.5 -35.5t-32.5 -37.5q-17 -20 -33.5 -39t-33.5 -38q-12 -15 -27 -31.5
t-30.5 -33t-30.5 -33t-28 -31.5q8 -15 22 -25t35 -13q39 -6 73.5 4.5t63 30.5t52 47t40.5 54.5t28.5 53t16.5 43.5zM488 438q-15 -22 -28 -47t-22 -47q-11 -26 -20 -50l74 27q36 13 65.5 28.5t52.5 31.5l31 35l14 15l12 15l25 26l5 5q-11 8 -23.5 13.5t-26.5 7.5q-5 2 -7 6
t1 8q6 9 18 17.5t33 9.5q20 1 37 -8q4 16 4 28t-1 20q-2 10 -4 16q-9 11 -33.5 7.5t-58 -22t-72.5 -54t-76 -88.5zM567 333q-18 -8 -33 -13t-25 -9q-19 -8 -42.5 -15.5t-55.5 -19.5q-5 -14 -10.5 -33.5t-10 -41t-7 -45t-0.5 -44.5l16 20q11 14 27 33.5t34 40.5t35.5 42
t31.5 38z" />
    <glyph glyph-name="Ugrave" unicode="&#xd9;" horiz-adv-x="1119" 
d="M694 416q6 10 10 18.5t7 14.5q4 7 6 13q13 25 27 57t22 58q0 7 3 12q2 5 5.5 8.5t8.5 3.5t16.5 -14.5t19.5 -39t8 -55.5t-16 -64q-22 -38 -43 -77q-18 -33 -38 -73t-34 -75q-24 -53 -37 -97q-6 -19 -10 -37.5t-5 -34t2 -26.5t12 -15q27 -13 55 -2.5t55 36t51.5 60
t44.5 69t34 64t21 44.5q17 45 37.5 87.5t42.5 80.5q13 25 25 51q10 22 20.5 46t16.5 44q1 6 3 11q2 4 5 7.5t8 3.5t15 -13.5t17.5 -35.5t8 -50t-14.5 -58q-20 -36 -38 -72q-16 -32 -34 -68.5t-31 -68.5q-13 -34 -21 -67q-7 -28 -10.5 -58t4.5 -51q3 -13 9 -16.5t12 -1.5
q7 1 14 7q13 13 29.5 33t36.5 52q12 19 22 37.5t18 32.5q9 17 17 31q3 8 11 4q8 -3 4 -11l-4.5 -9t-12 -23.5t-18.5 -33t-23 -37.5q-40 -63 -73 -94q-8 -7 -16 -12q-7 -5 -16 -8.5t-18 -2.5q-30 3 -46.5 19t-23.5 39t-7 50t4 52q-27 -52 -52.5 -88t-49.5 -59t-46 -35
t-40 -16q-44 -11 -81 11q-17 10 -26.5 25.5t-14 34.5t-5 39.5t1.5 40.5q4 47 22 100q14 38 30 75t33 72q-35 -12 -67 -19t-48 -11q-17 -5 -38 -9t-47.5 -10.5t-60 -15.5t-76.5 -23q-54 -18 -93 -47t-63.5 -63.5t-35 -72.5t-7.5 -74q5 -49 26 -74t37 -34q5 -3 4.5 -9t-6.5 -8
q-19 -5 -37 -2.5t-34 11t-28.5 21t-19.5 27.5q-6 13 -14 34.5t-8 49.5t12 62.5t45 74.5q33 41 80 67t102.5 44.5t118 32t126.5 29.5q54 14 94.5 33.5t67.5 40.5zM958 708q11 -6 18.5 -15.5t20.5 -18.5q12 -9 22.5 -7.5t15.5 -4.5q3 -5 1 -8t-6 -5q-4 -3 -11 -4q-29 -6 -51 0
t-36 16.5t-19.5 22t-1.5 17.5q6 9 13.5 11.5t15.5 1.5q9 -1 18 -6z" />
    <glyph glyph-name="Uacute" unicode="&#xda;" horiz-adv-x="1119" 
d="M694 416q6 10 10 18.5t7 14.5q4 7 6 13q13 25 27 57t22 58q0 7 3 12q2 5 5.5 8.5t8.5 3.5t16.5 -14.5t19.5 -39t8 -55.5t-16 -64q-22 -38 -43 -77q-18 -33 -38 -73t-34 -75q-24 -53 -37 -97q-6 -19 -10 -37.5t-5 -34t2 -26.5t12 -15q27 -13 55 -2.5t55 36t51.5 60
t44.5 69t34 64t21 44.5q17 45 37.5 87.5t42.5 80.5q13 25 25 51q10 22 20.5 46t16.5 44q1 6 3 11q2 4 5 7.5t8 3.5t15 -13.5t17.5 -35.5t8 -50t-14.5 -58q-20 -36 -38 -72q-16 -32 -34 -68.5t-31 -68.5q-13 -34 -21 -67q-7 -28 -10.5 -58t4.5 -51q3 -13 9 -16.5t12 -1.5
q7 1 14 7q13 13 29.5 33t36.5 52q12 19 22 37.5t18 32.5q9 17 17 31q3 8 11 4q8 -3 4 -11l-4.5 -9t-12 -23.5t-18.5 -33t-23 -37.5q-40 -63 -73 -94q-8 -7 -16 -12q-7 -5 -16 -8.5t-18 -2.5q-30 3 -46.5 19t-23.5 39t-7 50t4 52q-27 -52 -52.5 -88t-49.5 -59t-46 -35
t-40 -16q-44 -11 -81 11q-17 10 -26.5 25.5t-14 34.5t-5 39.5t1.5 40.5q4 47 22 100q14 38 30 75t33 72q-35 -12 -67 -19t-48 -11q-17 -5 -38 -9t-47.5 -10.5t-60 -15.5t-76.5 -23q-54 -18 -93 -47t-63.5 -63.5t-35 -72.5t-7.5 -74q5 -49 26 -74t37 -34q5 -3 4.5 -9t-6.5 -8
q-19 -5 -37 -2.5t-34 11t-28.5 21t-19.5 27.5q-6 13 -14 34.5t-8 49.5t12 62.5t45 74.5q33 41 80 67t102.5 44.5t118 32t126.5 29.5q54 14 94.5 33.5t67.5 40.5zM1005 691q8 5 17 6q8 1 15.5 -1.5t14.5 -11.5q4 -6 -1.5 -17.5t-19.5 -22t-36 -16.5t-51 0q-7 1 -11 4
q-4 2 -6 5t1 8q4 6 14.5 4.5t22.5 7.5q13 9 21 18.5t19 15.5z" />
    <glyph glyph-name="Ucircumflex" unicode="&#xdb;" horiz-adv-x="1119" 
d="M694 416q6 10 10 18.5t7 14.5q4 7 6 13q13 25 27 57t22 58q0 7 3 12q2 5 5.5 8.5t8.5 3.5t16.5 -14.5t19.5 -39t8 -55.5t-16 -64q-22 -38 -43 -77q-18 -33 -38 -73t-34 -75q-24 -53 -37 -97q-6 -19 -10 -37.5t-5 -34t2 -26.5t12 -15q27 -13 55 -2.5t55 36t51.5 60
t44.5 69t34 64t21 44.5q17 45 37.5 87.5t42.5 80.5q13 25 25 51q10 22 20.5 46t16.5 44q1 6 3 11q2 4 5 7.5t8 3.5t15 -13.5t17.5 -35.5t8 -50t-14.5 -58q-20 -36 -38 -72q-16 -32 -34 -68.5t-31 -68.5q-13 -34 -21 -67q-7 -28 -10.5 -58t4.5 -51q3 -13 9 -16.5t12 -1.5
q7 1 14 7q13 13 29.5 33t36.5 52q12 19 22 37.5t18 32.5q9 17 17 31q3 8 11 4q8 -3 4 -11l-4.5 -9t-12 -23.5t-18.5 -33t-23 -37.5q-40 -63 -73 -94q-8 -7 -16 -12q-7 -5 -16 -8.5t-18 -2.5q-30 3 -46.5 19t-23.5 39t-7 50t4 52q-27 -52 -52.5 -88t-49.5 -59t-46 -35
t-40 -16q-44 -11 -81 11q-17 10 -26.5 25.5t-14 34.5t-5 39.5t1.5 40.5q4 47 22 100q14 38 30 75t33 72q-35 -12 -67 -19t-48 -11q-17 -5 -38 -9t-47.5 -10.5t-60 -15.5t-76.5 -23q-54 -18 -93 -47t-63.5 -63.5t-35 -72.5t-7.5 -74q5 -49 26 -74t37 -34q5 -3 4.5 -9t-6.5 -8
q-19 -5 -37 -2.5t-34 11t-28.5 21t-19.5 27.5q-6 13 -14 34.5t-8 49.5t12 62.5t45 74.5q33 41 80 67t102.5 44.5t118 32t126.5 29.5q54 14 94.5 33.5t67.5 40.5zM1073 640q1 -8 -9 -10q-4 -1 -11 -1q-25 3 -41.5 13.5t-24.5 23.5q-15 -5 -34.5 -3.5t-39.5 15.5q-5 3 -8 7
q-8 8 -1 14q3 2 6 1l7.5 -2.5t10 -2t11.5 2.5q14 5 23.5 11.5t20.5 8.5q2 1 5 1q7 0 12 -1q1 0 2 -0.5t2 -0.5t2 -1t2 -1q6 -3 10 -7l3 -3q8 -9 11.5 -20.5t11.5 -23.5q8 -11 17 -12.5t12 -8.5z" />
    <glyph glyph-name="Udieresis" unicode="&#xdc;" horiz-adv-x="1119" 
d="M694 416q6 10 10 18.5t7 14.5q4 7 6 13q13 25 27 57t22 58q0 7 3 12q2 5 5.5 8.5t8.5 3.5t16.5 -14.5t19.5 -39t8 -55.5t-16 -64q-22 -38 -43 -77q-18 -33 -38 -73t-34 -75q-24 -53 -37 -97q-6 -19 -10 -37.5t-5 -34t2 -26.5t12 -15q27 -13 55 -2.5t55 36t51.5 60
t44.5 69t34 64t21 44.5q17 45 37.5 87.5t42.5 80.5q13 25 25 51q10 22 20.5 46t16.5 44q1 6 3 11q2 4 5 7.5t8 3.5t15 -13.5t17.5 -35.5t8 -50t-14.5 -58q-20 -36 -38 -72q-16 -32 -34 -68.5t-31 -68.5q-13 -34 -21 -67q-7 -28 -10.5 -58t4.5 -51q3 -13 9 -16.5t12 -1.5
q7 1 14 7q13 13 29.5 33t36.5 52q12 19 22 37.5t18 32.5q9 17 17 31q3 8 11 4q8 -3 4 -11l-4.5 -9t-12 -23.5t-18.5 -33t-23 -37.5q-40 -63 -73 -94q-8 -7 -16 -12q-7 -5 -16 -8.5t-18 -2.5q-30 3 -46.5 19t-23.5 39t-7 50t4 52q-27 -52 -52.5 -88t-49.5 -59t-46 -35
t-40 -16q-44 -11 -81 11q-17 10 -26.5 25.5t-14 34.5t-5 39.5t1.5 40.5q4 47 22 100q14 38 30 75t33 72q-35 -12 -67 -19t-48 -11q-17 -5 -38 -9t-47.5 -10.5t-60 -15.5t-76.5 -23q-54 -18 -93 -47t-63.5 -63.5t-35 -72.5t-7.5 -74q5 -49 26 -74t37 -34q5 -3 4.5 -9t-6.5 -8
q-19 -5 -37 -2.5t-34 11t-28.5 21t-19.5 27.5q-6 13 -14 34.5t-8 49.5t12 62.5t45 74.5q33 41 80 67t102.5 44.5t118 32t126.5 29.5q54 14 94.5 33.5t67.5 40.5zM934 719q12 -4 18 -15t3 -22q-4 -12 -14.5 -18.5t-22.5 -2.5q-12 3 -18 13.5t-2 22.5q3 12 13.5 18.5t22.5 3.5
zM1029 693q12 -3 17.5 -14t2.5 -23t-13.5 -18t-22.5 -3q-11 3 -17 13.5t-3 23.5q3 11 14 17.5t22 3.5z" />
    <glyph glyph-name="Yacute" unicode="&#xdd;" horiz-adv-x="1117" 
d="M695 416q5 8 9.5 17l8.5 17l8 18q12 25 25 55t21 54q0 7 3 12q2 5 5.5 8.5t8.5 3.5t16.5 -14.5t19.5 -39t8 -55.5t-16 -64q-22 -38 -43 -77q-18 -33 -38 -73t-34 -75q-24 -53 -37 -97q-6 -19 -10 -37.5t-5 -34t2 -26.5t12 -15q27 -13 55 -2.5t55 36t51.5 60t44 69t34 64
t21.5 44.5q17 45 37.5 87.5t42.5 80.5q13 25 25 51q10 22 20.5 46t16.5 44q1 6 3 11q2 4 5 7.5t8 3.5t15 -13.5t17.5 -35.5t7.5 -50t-15 -58q-19 -36 -37 -73q-16 -32 -33 -69t-30 -69q-13 -34 -22 -66q-8 -28 -11.5 -57.5t3.5 -50.5q4 -13 10 -16.5t12 -1.5q7 1 14 7
q13 13 29 33t36 52q12 19 22.5 37.5t18.5 32.5q9 17 17 31q3 8 11 4t4 -11l-4.5 -9t-12 -23.5t-18.5 -33t-23 -37.5q-20 -32 -38.5 -55t-35.5 -39q-7 -7 -15 -12q-7 -5 -16 -8.5t-18 -2.5q-10 1 -17.5 3.5t-14.5 5.5q-6 -14 -12.5 -29t-13.5 -32q43 -10 86 -26t85 -34
t81.5 -35t74.5 -29t64 -18t51 0q4 1 5 -2t-2 -5q-11 -8 -30.5 -14.5t-49.5 -5.5t-72 12t-98 39q-20 9 -42 20q-19 8 -42.5 18.5t-46.5 20.5q-14 5 -33.5 12.5t-45.5 14.5q-29 -62 -67.5 -126.5t-83 -118t-94.5 -89.5t-103 -40q-16 -1 -32 1q-14 2 -29.5 6t-28.5 14
q-20 15 -31 41q-9 22 -10.5 57.5t18.5 88.5q21 54 62.5 94.5t95 66.5t112.5 38.5t114 11.5q12 27 24.5 58.5t23 60t18 49.5t10.5 29q-27 -52 -52.5 -87.5t-49.5 -58t-45.5 -34.5t-39.5 -16q-43 -11 -81 11q-17 10 -26.5 25.5t-14 34.5t-5 39.5t1.5 40.5q4 47 22 100
q28 78 63 146q-35 -11 -67 -18t-48 -11q-17 -5 -38 -9t-47.5 -10.5t-60 -15.5t-76.5 -23q-54 -18 -93 -47t-63.5 -63.5t-35 -72.5t-7.5 -74q5 -49 26 -74t37 -34q5 -3 4.5 -9t-6.5 -8q-19 -5 -37 -2.5t-34 11t-28.5 21t-19.5 27.5q-6 13 -14 34.5t-8 49.5t12 62.5t45 74.5
q33 41 80 67t102.5 44.5t118 32t126.5 29.5q54 14 94.5 33.5t67.5 40.5zM491 -434q6 -1 20 -1t34.5 8.5t47.5 30t59.5 62.5t70.5 105.5t80 160.5q-59 5 -126.5 -8t-136.5 -58q-23 -15 -42 -37q-17 -19 -34 -46.5t-26 -64.5q-11 -42 -8 -70.5t13 -46t23.5 -26t24.5 -9.5z
M986 700q8 5 17 6q8 1 15.5 -1.5t14.5 -11.5q4 -6 -1.5 -17.5t-19.5 -22t-36 -16.5t-51 0q-7 1 -11 4q-4 2 -6 5t1 8q4 6 14.5 4.5t22.5 7.5q13 9 21 18.5t19 15.5z" />
    <glyph glyph-name="germandbls" unicode="&#xdf;" horiz-adv-x="648" 
d="M477 601q22 1 47 -4t44 -20.5t29 -42.5t4 -69q-7 -47 -39.5 -76t-69.5 -46q-43 -19 -95 -28q54 -7 93 -28q16 -9 31 -22t24 -31.5t11 -42.5t-7 -54q-11 -40 -35 -69t-54 -47.5t-63.5 -26.5t-64 -6.5t-55.5 12t-38 28.5q-10 13 -12.5 27.5t0.5 29t11 27t19 22.5
q24 21 55.5 26.5t52.5 -8.5q4 -4 8 -9q3 -5 4.5 -12t-1.5 -16q-2 -5 -6 -6t-8 1q-5 2 -13 4.5t-19 2.5q-14 0 -29.5 -6t-26.5 -21t-11 -30t7 -27t20 -20t28 -10q25 -3 51 8q22 9 46.5 32t46.5 71q17 39 12 71.5t-22 57.5t-40.5 42t-42.5 24q-7 3 -9 10t3 13l1 1q2 2 5 2
q7 0 28 6t46 18t49 32t36 49q9 20 9 41.5t-8 41t-23.5 34t-37.5 19.5q-18 3 -36 2q-30 -42 -68 -111.5t-79 -154.5q-47 -97 -70.5 -166t-32 -116t-5.5 -74.5t10 -41.5q3 -7 -2 -13t-13 -4q-30 9 -43.5 33t-15.5 57.5t5 73t19 80.5q28 94 84 209q13 28 23 48.5t18.5 37
t15.5 29.5t15 27l13 19q12 19 31 36q17 14 43.5 28.5t67.5 22.5l14 2t15 1z" />
    <glyph glyph-name="agrave" unicode="&#xe0;" horiz-adv-x="328" 
d="M181 -2q-5 -2 -10.5 -1.5t-10.5 1.5t-11 3q-14 5 -25.5 25t-5.5 58q-28 -36 -51.5 -55t-43.5 -24q-8 -2 -14 0q-4 0 -7 1q-13 2 -23 13q-8 9 -14 26.5t-4 49.5q2 27 16.5 64.5t37.5 75.5t52.5 73.5t61 59.5t62.5 32t57 -8q22 -14 34 -33q11 -17 14 -43t-14 -61
q-12 -25 -30.5 -60.5t-35 -71t-26 -64t-3.5 -40.5q14 8 37.5 31.5t57.5 76.5q12 19 22 37.5t18 32.5q9 17 17 31q4 8 11 4q8 -3 4 -11l-4.5 -9t-12 -23.5t-18.5 -33t-23 -37.5q-67 -106 -115 -120zM134 137q13 30 29.5 55.5t31.5 51t26.5 55t15.5 68.5q0 2 -1 7.5t-6 7.5
q-9 2 -19 -4q-8 -6 -26.5 -28.5t-41 -55.5t-46.5 -73t-44 -81q-18 -36 -26 -58.5t-9.5 -35t1 -17.5t7.5 -6q13 4 28 17t29.5 29.5t27.5 34.5t23 33zM245 495q11 -6 18.5 -15.5t20.5 -18.5q12 -9 22.5 -7.5t15.5 -4.5q3 -5 1 -8t-6 -5q-4 -3 -11 -4q-29 -6 -51 0t-36 16.5
t-19.5 22t-1.5 17.5q6 9 13.5 11.5t15.5 1.5q9 -1 18 -6z" />
    <glyph glyph-name="aacute" unicode="&#xe1;" horiz-adv-x="328" 
d="M181 -2q-5 -2 -10.5 -1.5t-10.5 1.5t-11 3q-14 5 -25.5 25t-5.5 58q-28 -36 -51.5 -55t-43.5 -24q-8 -2 -14 0q-4 0 -7 1q-13 2 -23 13q-8 9 -14 26.5t-4 49.5q2 27 16.5 64.5t37.5 75.5t52.5 73.5t61 59.5t62.5 32t57 -8q22 -14 34 -33q11 -17 14 -43t-14 -61
q-12 -25 -30.5 -60.5t-35 -71t-26 -64t-3.5 -40.5q14 8 37.5 31.5t57.5 76.5q12 19 22 37.5t18 32.5q9 17 17 31q4 8 11 4q8 -3 4 -11l-4.5 -9t-12 -23.5t-18.5 -33t-23 -37.5q-67 -106 -115 -120zM134 137q13 30 29.5 55.5t31.5 51t26.5 55t15.5 68.5q0 2 -1 7.5t-6 7.5
q-9 2 -19 -4q-8 -6 -26.5 -28.5t-41 -55.5t-46.5 -73t-44 -81q-18 -36 -26 -58.5t-9.5 -35t1 -17.5t7.5 -6q13 4 28 17t29.5 29.5t27.5 34.5t23 33zM285 493q8 5 17 6q8 1 15.5 -1.5t14.5 -11.5q4 -6 -1.5 -17.5t-19.5 -22t-36 -16.5t-51 0q-7 1 -11 4q-4 2 -6 5t1 8
q4 6 14.5 4.5t22.5 7.5q13 9 21 18.5t19 15.5z" />
    <glyph glyph-name="acircumflex" unicode="&#xe2;" horiz-adv-x="328" 
d="M181 -2q-5 -2 -10.5 -1.5t-10.5 1.5t-11 3q-14 5 -25.5 25t-5.5 58q-28 -36 -51.5 -55t-43.5 -24q-8 -2 -14 0q-4 0 -7 1q-13 2 -23 13q-8 9 -14 26.5t-4 49.5q2 27 16.5 64.5t37.5 75.5t52.5 73.5t61 59.5t62.5 32t57 -8q22 -14 34 -33q11 -17 14 -43t-14 -61
q-12 -25 -30.5 -60.5t-35 -71t-26 -64t-3.5 -40.5q14 8 37.5 31.5t57.5 76.5q12 19 22 37.5t18 32.5q9 17 17 31q4 8 11 4q8 -3 4 -11l-4.5 -9t-12 -23.5t-18.5 -33t-23 -37.5q-67 -106 -115 -120zM134 137q13 30 29.5 55.5t31.5 51t26.5 55t15.5 68.5q0 2 -1 7.5t-6 7.5
q-9 2 -19 -4q-8 -6 -26.5 -28.5t-41 -55.5t-46.5 -73t-44 -81q-18 -36 -26 -58.5t-9.5 -35t1 -17.5t7.5 -6q13 4 28 17t29.5 29.5t27.5 34.5t23 33zM348 411q1 -8 -9 -10q-4 -1 -11 -1q-25 3 -41.5 13.5t-24.5 23.5q-15 -5 -34.5 -3.5t-39.5 15.5q-5 3 -8 7q-8 8 -1 14
q3 2 6 1l7.5 -2.5t10 -2t11.5 2.5q14 5 23.5 11.5t20.5 8.5q2 1 5 1q7 0 12 -1q1 0 2 -0.5t2 -0.5t2 -1t2 -1q6 -3 10 -7l3 -3q8 -9 11.5 -20.5t11.5 -23.5q8 -11 17 -12.5t12 -8.5z" />
    <glyph glyph-name="atilde" unicode="&#xe3;" horiz-adv-x="328" 
d="M181 -2q-5 -2 -10.5 -1.5t-10.5 1.5t-11 3q-14 5 -25.5 25t-5.5 58q-28 -36 -51.5 -55t-43.5 -24q-8 -2 -14 0q-4 0 -7 1q-13 2 -23 13q-8 9 -14 26.5t-4 49.5q2 27 16.5 64.5t37.5 75.5t52.5 73.5t61 59.5t62.5 32t57 -8q22 -14 34 -33q11 -17 14 -43t-14 -61
q-12 -25 -30.5 -60.5t-35 -71t-26 -64t-3.5 -40.5q14 8 37.5 31.5t57.5 76.5q12 19 22 37.5t18 32.5q9 17 17 31q4 8 11 4q8 -3 4 -11l-4.5 -9t-12 -23.5t-18.5 -33t-23 -37.5q-67 -106 -115 -120zM134 137q13 30 29.5 55.5t31.5 51t26.5 55t15.5 68.5q0 2 -1 7.5t-6 7.5
q-9 2 -19 -4q-8 -6 -26.5 -28.5t-41 -55.5t-46.5 -73t-44 -81q-18 -36 -26 -58.5t-9.5 -35t1 -17.5t7.5 -6q13 4 28 17t29.5 29.5t27.5 34.5t23 33zM329 450q4 -4 8 -4t7.5 0.5t6 0t2.5 -5.5q0 -9 -8 -15q-4 -3 -7 -5q-14 -7 -25 -8t-19.5 0.5t-14.5 5.5t-9 8
q-8 10 -24.5 13t-33.5 -2q-6 -2 -9 0t-4 5q-1 4 0 9q0 8 13 16.5t39 13.5q15 3 27.5 0t22.5 -9t17 -12.5t11 -10.5z" />
    <glyph glyph-name="adieresis" unicode="&#xe4;" horiz-adv-x="328" 
d="M181 -2q-5 -2 -10.5 -1.5t-10.5 1.5t-11 3q-14 5 -25.5 25t-5.5 58q-28 -36 -51.5 -55t-43.5 -24q-8 -2 -14 0q-4 0 -7 1q-13 2 -23 13q-8 9 -14 26.5t-4 49.5q2 27 16.5 64.5t37.5 75.5t52.5 73.5t61 59.5t62.5 32t57 -8q22 -14 34 -33q11 -17 14 -43t-14 -61
q-12 -25 -30.5 -60.5t-35 -71t-26 -64t-3.5 -40.5q14 8 37.5 31.5t57.5 76.5q12 19 22 37.5t18 32.5q9 17 17 31q4 8 11 4q8 -3 4 -11l-4.5 -9t-12 -23.5t-18.5 -33t-23 -37.5q-67 -106 -115 -120zM134 137q13 30 29.5 55.5t31.5 51t26.5 55t15.5 68.5q0 2 -1 7.5t-6 7.5
q-9 2 -19 -4q-8 -6 -26.5 -28.5t-41 -55.5t-46.5 -73t-44 -81q-18 -36 -26 -58.5t-9.5 -35t1 -17.5t7.5 -6q13 4 28 17t29.5 29.5t27.5 34.5t23 33zM229 498q12 -4 18 -15t3 -22q-4 -12 -14.5 -18.5t-22.5 -2.5q-12 3 -18 13.5t-2 22.5q3 12 13.5 18.5t22.5 3.5zM324 472
q12 -3 17.5 -14t2.5 -23t-13.5 -18t-22.5 -3q-11 3 -17 13.5t-3 23.5q3 11 14 17.5t22 3.5z" />
    <glyph glyph-name="aring" unicode="&#xe5;" horiz-adv-x="328" 
d="M181 -2q-5 -2 -10.5 -1.5t-10.5 1.5t-11 3q-14 5 -25.5 25t-5.5 58q-28 -36 -51.5 -55t-43.5 -24q-8 -2 -14 0q-4 0 -7 1q-13 2 -23 13q-8 9 -14 26.5t-4 49.5q2 27 16.5 64.5t37.5 75.5t52.5 73.5t61 59.5t62.5 32t57 -8q22 -14 34 -33q11 -17 14 -43t-14 -61
q-12 -25 -30.5 -60.5t-35 -71t-26 -64t-3.5 -40.5q14 8 37.5 31.5t57.5 76.5q12 19 22 37.5t18 32.5q9 17 17 31q4 8 11 4q8 -3 4 -11l-4.5 -9t-12 -23.5t-18.5 -33t-23 -37.5q-67 -106 -115 -120zM134 137q13 30 29.5 55.5t31.5 51t26.5 55t15.5 68.5q0 2 -1 7.5t-6 7.5
q-9 2 -19 -4q-8 -6 -26.5 -28.5t-41 -55.5t-46.5 -73t-44 -81q-18 -36 -26 -58.5t-9.5 -35t1 -17.5t7.5 -6q13 4 28 17t29.5 29.5t27.5 34.5t23 33zM266 496q16 0 27 -10.5t11 -25.5q0 -16 -11 -26.5t-27 -10.5t-27 10.5t-11 26.5q0 15 11 25.5t27 10.5zM266 443q7 0 11.5 5
t4.5 12q0 16 -16 16q-17 0 -17 -16q0 -7 4.5 -12t12.5 -5z" />
    <glyph glyph-name="ae" unicode="&#xe6;" horiz-adv-x="603" 
d="M564 232q8 -3 4 -11l-4.5 -9t-12 -23.5t-18.5 -33t-23 -37.5q-67 -106 -115 -120q-12 -3 -25 0q-11 2 -25.5 8.5t-28.5 22.5q-4 4 -5 7q-8 -11 -22.5 -23.5t-32.5 -14.5q-6 -1 -11.5 -0.5t-10.5 1.5l-10 2q-14 5 -25.5 25t-5.5 58q-28 -36 -51.5 -55t-43.5 -24
q-8 -2 -14 0q-4 0 -7 1q-13 2 -23 13q-8 9 -14 26.5t-4 49.5q2 27 16.5 64.5t37.5 75.5t52.5 73.5t61 59.5t62.5 32t57 -8q15 -9 26 -22q10 -11 17 -28t5 -40q33 36 59.5 56t46 28.5t32.5 6t20 -11.5q5 -7 9 -21t3.5 -32t-8 -38t-26 -39.5t-50 -36t-79.5 -27.5
q-3 -14 -7 -27q-3 -11 -6 -24t-4 -23q-4 -33 0 -53t11.5 -29.5t16 -11.5t12.5 0q14 8 37.5 31.5t57.5 76.5q12 19 22 37.5t18 32.5q9 17 17 31q4 8 11 4zM483 355q-17 -13 -34 -32q-14 -17 -31 -44t-32 -68q9 4 22 11.5t27 19.5t26 29t19 40q2 9 3 18q1 8 1.5 14.5
t-1.5 11.5zM209 137q13 30 29.5 55.5t31.5 51t26.5 55t15.5 68.5q0 2 -1 7.5t-6 7.5q-9 2 -19 -4q-8 -6 -26.5 -28.5t-41 -55.5t-46.5 -73t-44 -81q-18 -36 -26 -58.5t-9.5 -35t1 -17.5t7.5 -6q13 4 28 17t29.5 29.5t27.5 34.5t23 33zM262 19q7 2 14 6q6 3 13.5 8.5
t13.5 13.5q-16 26 -19 61q-14 -30 -21 -54t-1 -35z" />
    <glyph glyph-name="ccedilla" unicode="&#xe7;" horiz-adv-x="237" 
d="M180 323q2 7 3 15.5t-2 16.5q-21 -15 -41 -41q-17 -22 -36.5 -57t-33.5 -88q-15 -53 -14 -84t9 -46.5t18 -19t15 -0.5q15 8 38 31.5t57 76.5q12 19 22.5 37.5t18.5 32.5q9 17 16 31q4 7 12 4q8 -4 4 -11l-4.5 -9t-12.5 -23.5t-18.5 -33t-23.5 -37.5q-67 -106 -115 -120
h-2q-1 0 -1.5 -0.5t-2.5 -0.5v-4q0 -6 -1 -9q0 -3 -2 -7q3 -4 5.5 -11t0.5 -17q0 -4 -1 -6t-7 -13t-22 -16q-3 -2 -7 -2h-8h-3q-8 0 -13 2t-7 4q-5 4 -7 8.5t-2 5.5q-2 7 0 12q1 6 4.5 8.5t6.5 2.5q1 1 6 0q5 -2 7 -7q0 -1 0.5 -2t0.5 -2l1 -2q0 -7 4 -7q2 0 7 6q6 8 7 13
t1 6h-5q-21 -2 -21 11q-1 4 3 8q3 3 6.5 3.5t5.5 0.5q6 -1 9 4l2 3v4q-1 2 -2 2.5t-1 2.5l-1 3q-9 3 -19 9.5t-20 17.5q-15 16 -25 42t-8.5 60t18 73t53.5 81t66.5 66t50.5 34t35 8t22 -12q4 -8 6 -17q1 -8 -1 -17.5t-12 -19.5q-4 -4 -12 -7.5t-19 -5.5q-4 0 -7 2.5t-1 6.5z
" />
    <glyph glyph-name="egrave" unicode="&#xe8;" horiz-adv-x="237" 
d="M75 187q-3 -14 -7 -27q-3 -11 -6 -24t-4 -23q-4 -33 0 -53t11.5 -29.5t16 -11.5t12.5 0q14 8 37.5 31.5t57.5 76.5q12 19 22 37.5t18 32.5q9 17 17 31q4 8 11 4q8 -3 4 -11l-4.5 -9t-12 -23.5t-18.5 -33t-23 -37.5q-67 -106 -115 -120q-12 -3 -25 0q-11 2 -25.5 8.5
t-28.5 22.5q-15 16 -24.5 42t-8 60t18 73t53.5 81t66.5 66t50.5 34t35 8t22 -12q5 -7 9.5 -21t4 -32t-8 -38t-26 -39.5t-50 -36t-80.5 -27.5zM181 355q-17 -13 -34 -32q-15 -17 -32 -44t-32 -68q9 4 22.5 11.5t27 19.5t25.5 29t19 40q2 9 3 18q1 8 1.5 14.5t-0.5 11.5z
M208 489q11 -6 18.5 -15.5t20.5 -18.5q12 -9 22.5 -7.5t15.5 -4.5q3 -5 1 -8t-6 -5q-4 -3 -11 -4q-29 -6 -51 0t-36 16.5t-19.5 22t-1.5 17.5q6 9 13.5 11.5t15.5 1.5q9 -1 18 -6z" />
    <glyph glyph-name="eacute" unicode="&#xe9;" horiz-adv-x="237" 
d="M75 187q-3 -14 -7 -27q-3 -11 -6 -24t-4 -23q-4 -33 0 -53t11.5 -29.5t16 -11.5t12.5 0q14 8 37.5 31.5t57.5 76.5q12 19 22 37.5t18 32.5q9 17 17 31q4 8 11 4q8 -3 4 -11l-4.5 -9t-12 -23.5t-18.5 -33t-23 -37.5q-67 -106 -115 -120q-12 -3 -25 0q-11 2 -25.5 8.5
t-28.5 22.5q-15 16 -24.5 42t-8 60t18 73t53.5 81t66.5 66t50.5 34t35 8t22 -12q5 -7 9.5 -21t4 -32t-8 -38t-26 -39.5t-50 -36t-80.5 -27.5zM181 355q-17 -13 -34 -32q-15 -17 -32 -44t-32 -68q9 4 22.5 11.5t27 19.5t25.5 29t19 40q2 9 3 18q1 8 1.5 14.5t-0.5 11.5z
M237 495q8 5 17 6q8 1 15.5 -1.5t14.5 -11.5q4 -6 -1.5 -17.5t-19.5 -22t-36 -16.5t-51 0q-7 1 -11 4q-4 2 -6 5t1 8q4 6 14.5 4.5t22.5 7.5q13 9 21 18.5t19 15.5z" />
    <glyph glyph-name="ecircumflex" unicode="&#xea;" horiz-adv-x="237" 
d="M75 187q-3 -14 -7 -27q-3 -11 -6 -24t-4 -23q-4 -33 0 -53t11.5 -29.5t16 -11.5t12.5 0q14 8 37.5 31.5t57.5 76.5q12 19 22 37.5t18 32.5q9 17 17 31q4 8 11 4q8 -3 4 -11l-4.5 -9t-12 -23.5t-18.5 -33t-23 -37.5q-67 -106 -115 -120q-12 -3 -25 0q-11 2 -25.5 8.5
t-28.5 22.5q-15 16 -24.5 42t-8 60t18 73t53.5 81t66.5 66t50.5 34t35 8t22 -12q5 -7 9.5 -21t4 -32t-8 -38t-26 -39.5t-50 -36t-80.5 -27.5zM181 355q-17 -13 -34 -32q-15 -17 -32 -44t-32 -68q9 4 22.5 11.5t27 19.5t25.5 29t19 40q2 9 3 18q1 8 1.5 14.5t-0.5 11.5z
M302 416q1 -8 -9 -10q-4 -1 -11 -1q-25 3 -41.5 13.5t-24.5 23.5q-15 -5 -34.5 -3.5t-39.5 15.5q-5 3 -8 7q-8 8 -1 14q3 2 6 1l7.5 -2.5t10 -2t11.5 2.5q14 5 23.5 11.5t20.5 8.5q2 1 5 1q7 0 12 -1q1 0 2 -0.5t2 -0.5t2 -1t2 -1q6 -3 10 -7l3 -3q8 -9 11.5 -20.5
t11.5 -23.5q8 -11 17 -12.5t12 -8.5z" />
    <glyph glyph-name="edieresis" unicode="&#xeb;" horiz-adv-x="237" 
d="M75 187q-3 -14 -7 -27q-3 -11 -6 -24t-4 -23q-4 -33 0 -53t11.5 -29.5t16 -11.5t12.5 0q14 8 37.5 31.5t57.5 76.5q12 19 22 37.5t18 32.5q9 17 17 31q4 8 11 4q8 -3 4 -11l-4.5 -9t-12 -23.5t-18.5 -33t-23 -37.5q-67 -106 -115 -120q-12 -3 -25 0q-11 2 -25.5 8.5
t-28.5 22.5q-15 16 -24.5 42t-8 60t18 73t53.5 81t66.5 66t50.5 34t35 8t22 -12q5 -7 9.5 -21t4 -32t-8 -38t-26 -39.5t-50 -36t-80.5 -27.5zM181 355q-17 -13 -34 -32q-15 -17 -32 -44t-32 -68q9 4 22.5 11.5t27 19.5t25.5 29t19 40q2 9 3 18q1 8 1.5 14.5t-0.5 11.5z
M186 489q12 -4 18 -15t3 -22q-4 -12 -14.5 -18.5t-22.5 -2.5q-12 3 -18 13.5t-2 22.5q3 12 13.5 18.5t22.5 3.5zM281 463q12 -3 17.5 -14t2.5 -23t-13.5 -18t-22.5 -3q-11 3 -17 13.5t-3 23.5q3 11 14 17.5t22 3.5z" />
    <glyph glyph-name="igrave" unicode="&#xec;" horiz-adv-x="152" 
d="M174 232q8 -3 4 -11l-4.5 -9t-12 -23.5t-18.5 -33t-23 -37.5q-67 -106 -115 -120q-4 -1 -7 -1.5t-6 -0.5q-10 0 -18 5q-9 3 -17.5 12.5t-13 25t-2.5 38t14 52.5q14 33 31.5 60t33 55t28 59.5t15.5 75.5q0 2 1 4q2 4 5 6q5 2 11 -3q5 -5 14.5 -16t16 -27.5t7 -38.5
t-11.5 -49q-11 -26 -29.5 -61.5t-35 -70.5t-26.5 -63.5t-4 -40.5q14 8 37.5 31.5t57.5 76.5q12 19 22 37.5t18 32.5q9 17 17 31q4 8 11 4zM105 470q11 -6 18.5 -15.5t20.5 -18.5q12 -9 22.5 -7.5t15.5 -4.5q3 -5 1 -8t-6 -5q-4 -3 -11 -4q-29 -6 -51 0t-36 16.5t-19.5 22
t-1.5 17.5q6 9 13.5 11.5t15.5 1.5q9 -1 18 -6z" />
    <glyph glyph-name="iacute" unicode="&#xed;" horiz-adv-x="152" 
d="M174 232q-7 4 -11 -4q-8 -14 -17 -31q-8 -14 -18 -32.5t-22 -37.5q-34 -53 -57.5 -76.5t-37.5 -31.5q-6 12 4 40.5t26.5 63.5t35 70.5t29.5 61.5q12 27 11.5 49t-7 38.5t-16 27.5t-14.5 16q-6 5 -11 3q-3 -2 -5 -6q-1 -2 -1 -4q-3 -44 -15.5 -75.5t-28 -59.5t-33 -55
t-31.5 -60q-12 -30 -14 -52.5t2.5 -38t13 -25t17.5 -12.5q8 -5 18 -5q3 0 6 0.5t7 1.5q48 14 115 120q12 19 23 37.5t18.5 33t12 23.5l4.5 9q4 8 -4 11zM144 485q8 5 17 6q8 1 15.5 -1.5t14.5 -11.5q4 -6 -1.5 -17.5t-19.5 -22t-36 -16.5t-51 0q-7 1 -11 4q-4 2 -6 5t1 8
q4 6 14.5 4.5t22.5 7.5q13 9 21 18.5t19 15.5z" />
    <glyph glyph-name="icircumflex" unicode="&#xee;" horiz-adv-x="152" 
d="M174 232q8 -3 4 -11l-4.5 -9t-12 -23.5t-18.5 -33t-23 -37.5q-67 -106 -115 -120q-4 -1 -7 -1.5t-6 -0.5q-10 0 -18 5q-9 3 -17.5 12.5t-13 25t-2.5 38t14 52.5q14 33 31.5 60t33 55t28 59.5t15.5 75.5q0 2 1 4q2 4 5 6q5 2 11 -3q5 -5 14.5 -16t16 -27.5t7 -38.5
t-11.5 -49q-11 -26 -29.5 -61.5t-35 -70.5t-26.5 -63.5t-4 -40.5q14 8 37.5 31.5t57.5 76.5q12 19 22 37.5t18 32.5q9 17 17 31q4 8 11 4zM198 399q1 -8 -9 -10q-4 -1 -11 -1q-25 3 -41.5 13.5t-24.5 23.5q-15 -5 -34.5 -3.5t-39.5 15.5q-5 3 -8 7q-8 8 -1 14q3 2 6 1
l7.5 -2.5t10 -2t11.5 2.5q14 5 23.5 11.5t20.5 8.5q2 1 5 1q7 0 12 -1q1 0 2 -0.5t2 -0.5t2 -1t2 -1q6 -3 10 -7l3 -3q8 -9 11.5 -20.5t11.5 -23.5q8 -11 17 -12.5t12 -8.5z" />
    <glyph glyph-name="idieresis" unicode="&#xef;" horiz-adv-x="152" 
d="M174 232q8 -3 4 -11l-4.5 -9t-12 -23.5t-18.5 -33t-23 -37.5q-67 -106 -115 -120q-4 -1 -7 -1.5t-6 -0.5q-10 0 -18 5q-9 3 -17.5 12.5t-13 25t-2.5 38t14 52.5q14 33 31.5 60t33 55t28 59.5t15.5 75.5q0 2 1 4q2 4 5 6q5 2 11 -3q5 -5 14.5 -16t16 -27.5t7 -38.5
t-11.5 -49q-11 -26 -29.5 -61.5t-35 -70.5t-26.5 -63.5t-4 -40.5q14 8 37.5 31.5t57.5 76.5q12 19 22 37.5t18 32.5q9 17 17 31q4 8 11 4zM81 475q12 -4 18 -15t3 -22q-4 -12 -14.5 -18.5t-22.5 -2.5q-12 3 -18 13.5t-2 22.5q3 12 13.5 18.5t22.5 3.5zM176 449
q12 -3 17.5 -14t2.5 -23t-13.5 -18t-22.5 -3q-11 3 -17 13.5t-3 23.5q3 11 14 17.5t22 3.5z" />
    <glyph glyph-name="ntilde" unicode="&#xf1;" horiz-adv-x="320" 
d="M343 232q8 -4 4 -11l-4.5 -9t-12 -23.5t-18.5 -33t-23 -37.5q-67 -106 -116 -120q-8 -2 -12 -2q-9 0 -19 5q-9 3 -17.5 12.5t-12.5 25t-2 38t14 52.5q9 23 20.5 42.5t23 38.5t22.5 38t20 40q10 20 14 37q4 14 2.5 25.5t-12.5 13.5q-15 1 -34.5 -17t-38 -43.5t-33.5 -51
t-22 -37.5q-14 -27 -29.5 -57.5t-28.5 -59.5q-9 -18 -15 -36q-5 -15 -9.5 -30.5t-3.5 -25.5q1 -3 -0.5 -6t-5.5 -3q-12 0 -24 6q-8 4 -16 12t-11.5 22.5t-1 35.5t14.5 51q14 33 31 60.5t32 56.5t27 61.5t15 76.5q0 2 1 4q1 3 6 6q4 2 11 -3q4 -3 11 -11t13 -19.5t10 -27
t3 -34.5q13 18 30 37.5t34 34.5t34.5 24t32.5 6q32 -8 41 -30.5t6 -47.5q-4 -29 -19 -63q-11 -26 -29.5 -61.5t-35.5 -70.5t-27 -63.5t-4 -40.5q15 8 38.5 31.5t57.5 76.5q12 19 22 37.5t18 32.5q9 17 17 31q4 8 11 4zM275 465q4 -4 8 -4t7.5 0.5t6 0t2.5 -5.5q0 -9 -8 -15
q-4 -3 -7 -5q-14 -7 -25 -8t-19.5 0.5t-14.5 5.5t-9 8q-8 10 -24.5 13t-33.5 -2q-6 -2 -9 0t-4 5q-1 4 0 9q0 8 13 16.5t39 13.5q15 3 27.5 0t22.5 -9t17 -12.5t11 -10.5z" />
    <glyph glyph-name="ograve" unicode="&#xf2;" horiz-adv-x="294" 
d="M234 391q19 -16 29 -45q8 -25 6.5 -66t-24.5 -102q-25 -65 -53.5 -101.5t-53.5 -53.5q-29 -21 -59 -25q-11 -3 -23 0q-11 2 -23.5 8.5t-25.5 22.5t-20 46t-2.5 68t22.5 80.5t56 84.5q30 33 52.5 53t40.5 29.5t32 11.5t25 -1q13 -3 21 -10zM211 181q12 32 20 63.5
t10.5 57.5t0 43.5t-10.5 21.5q-8 3 -16 1.5t-16 -4.5q-9 -4 -17 -9q-21 -15 -41 -41q-17 -22 -37 -57t-37 -88q-16 -50 -17.5 -80.5t4.5 -46t16 -20t16 -3.5q21 2 38.5 16t32.5 35.5t28 50t26 60.5zM204 495q11 -6 18.5 -15.5t20.5 -18.5q12 -9 22.5 -7.5t15.5 -4.5
q3 -5 1 -8t-6 -5q-4 -3 -11 -4q-29 -6 -51 0t-36 16.5t-19.5 22t-1.5 17.5q6 9 13.5 11.5t15.5 1.5q9 -1 18 -6z" />
    <glyph glyph-name="oacute" unicode="&#xf3;" horiz-adv-x="294" 
d="M234 391q19 -16 29 -45q8 -25 6.5 -66t-24.5 -102q-25 -65 -53.5 -101.5t-53.5 -53.5q-29 -21 -59 -25q-11 -3 -23 0q-11 2 -23.5 8.5t-25.5 22.5t-20 46t-2.5 68t22.5 80.5t56 84.5q30 33 52.5 53t40.5 29.5t32 11.5t25 -1q13 -3 21 -10zM211 181q12 32 20 63.5
t10.5 57.5t0 43.5t-10.5 21.5q-8 3 -16 1.5t-16 -4.5q-9 -4 -17 -9q-21 -15 -41 -41q-17 -22 -37 -57t-37 -88q-16 -50 -17.5 -80.5t4.5 -46t16 -20t16 -3.5q21 2 38.5 16t32.5 35.5t28 50t26 60.5zM239 502q8 5 17 6q8 1 15.5 -1.5t14.5 -11.5q4 -6 -1.5 -17.5t-19.5 -22
t-36 -16.5t-51 0q-7 1 -11 4q-4 2 -6 5t1 8q4 6 14.5 4.5t22.5 7.5q13 9 21 18.5t19 15.5z" />
    <glyph glyph-name="ocircumflex" unicode="&#xf4;" horiz-adv-x="294" 
d="M234 391q19 -16 29 -45q8 -25 6.5 -66t-24.5 -102q-25 -65 -53.5 -101.5t-53.5 -53.5q-29 -21 -59 -25q-11 -3 -23 0q-11 2 -23.5 8.5t-25.5 22.5t-20 46t-2.5 68t22.5 80.5t56 84.5q30 33 52.5 53t40.5 29.5t32 11.5t25 -1q13 -3 21 -10zM211 181q12 32 20 63.5
t10.5 57.5t0 43.5t-10.5 21.5q-8 3 -16 1.5t-16 -4.5q-9 -4 -17 -9q-21 -15 -41 -41q-17 -22 -37 -57t-37 -88q-16 -50 -17.5 -80.5t4.5 -46t16 -20t16 -3.5q21 2 38.5 16t32.5 35.5t28 50t26 60.5zM308 420q1 -8 -9 -10q-4 -1 -11 -1q-25 3 -41.5 13.5t-24.5 23.5
q-15 -5 -34.5 -3.5t-39.5 15.5q-5 3 -8 7q-8 8 -1 14q3 2 6 1l7.5 -2.5t10 -2t11.5 2.5q14 5 23.5 11.5t20.5 8.5q2 1 5 1q7 0 12 -1q1 0 2 -0.5t2 -0.5t2 -1t2 -1q6 -3 10 -7l3 -3q8 -9 11.5 -20.5t11.5 -23.5q8 -11 17 -12.5t12 -8.5z" />
    <glyph glyph-name="otilde" unicode="&#xf5;" horiz-adv-x="294" 
d="M234 391q19 -16 29 -45q8 -25 6.5 -66t-24.5 -102q-25 -65 -53.5 -101.5t-53.5 -53.5q-29 -21 -59 -25q-11 -3 -23 0q-11 2 -23.5 8.5t-25.5 22.5t-20 46t-2.5 68t22.5 80.5t56 84.5q30 33 52.5 53t40.5 29.5t32 11.5t25 -1q13 -3 21 -10zM211 181q12 32 20 63.5
t10.5 57.5t0 43.5t-10.5 21.5q-8 3 -16 1.5t-16 -4.5q-9 -4 -17 -9q-21 -15 -41 -41q-17 -22 -37 -57t-37 -88q-16 -50 -17.5 -80.5t4.5 -46t16 -20t16 -3.5q21 2 38.5 16t32.5 35.5t28 50t26 60.5zM279 465q4 -4 8 -4t7.5 0.5t6 0t2.5 -5.5q0 -9 -8 -15q-4 -3 -7 -5
q-14 -7 -25 -8t-19.5 0.5t-14.5 5.5t-9 8q-8 10 -24.5 13t-33.5 -2q-6 -2 -9 0t-4 5q-1 4 0 9q0 8 13 16.5t39 13.5q15 3 27.5 0t22.5 -9t17 -12.5t11 -10.5z" />
    <glyph glyph-name="odieresis" unicode="&#xf6;" horiz-adv-x="294" 
d="M234 391q19 -16 29 -45q8 -25 6.5 -66t-24.5 -102q-25 -65 -53.5 -101.5t-53.5 -53.5q-29 -21 -59 -25q-11 -3 -23 0q-11 2 -23.5 8.5t-25.5 22.5t-20 46t-2.5 68t22.5 80.5t56 84.5q30 33 52.5 53t40.5 29.5t32 11.5t25 -1q13 -3 21 -10zM211 181q12 32 20 63.5
t10.5 57.5t0 43.5t-10.5 21.5q-8 3 -16 1.5t-16 -4.5q-9 -4 -17 -9q-21 -15 -41 -41q-17 -22 -37 -57t-37 -88q-16 -50 -17.5 -80.5t4.5 -46t16 -20t16 -3.5q21 2 38.5 16t32.5 35.5t28 50t26 60.5zM195 495q12 -4 18 -15t3 -22q-4 -12 -14.5 -18.5t-22.5 -2.5
q-12 3 -18 13.5t-2 22.5q3 12 13.5 18.5t22.5 3.5zM290 469q12 -3 17.5 -14t2.5 -23t-13.5 -18t-22.5 -3q-11 3 -17 13.5t-3 23.5q3 11 14 17.5t22 3.5z" />
    <glyph glyph-name="divide" unicode="&#xf7;" horiz-adv-x="214" 
d="M157 310q10 -1 23 -5t10 -22q-4 -20 -18 -28t-26 -10q-5 -1 -10.5 -1.5t-10.5 0.5q-19 0 -37.5 0.5t-36.5 0.5q-10 2 -19.5 8.5t-2.5 23.5q5 15 15 23.5t21 10.5q24 3 46.5 2t45.5 -3zM126 323q-14 0 -22.5 11.5t-6.5 28.5t12 29t24 12t22.5 -12t7.5 -29
q-2 -17 -12.5 -28.5t-24.5 -11.5zM91 231q14 0 22.5 -11.5t6.5 -28.5t-12 -29t-24 -12t-22.5 12t-6.5 29t12 28.5t24 11.5z" />
    <glyph glyph-name="oslash" unicode="&#xf8;" horiz-adv-x="294" 
d="M289 410q8 -5 -1 -27q-2 -5 -5.5 -11t-8.5 -14l-6 -8l-5 -7q8 -25 6.5 -64.5t-24.5 -100.5q-25 -65 -53.5 -101.5t-53.5 -53.5q-29 -21 -59 -25q-8 -1 -17 0q-8 1 -17.5 4t-20.5 11q-19 -26 -27.5 -32t-11.5 -4q-1 0 -2 1t-1 5q1 5 4 13.5t15 29.5q2 4 4 6
q-12 16 -18.5 46t-1.5 67.5t23 79.5t55 83q30 33 52.5 53t40.5 29.5t32 11.5t25 -1q13 -3 21 -10l4 -4q2 -2 4.5 -5t5.5 -7q4 6 17 19q8 8 14.5 13t9.5 3zM211 181q14 36 22 72t10 63l-9 -12l-9 -12l-12 -16q-6 -9 -13.5 -20t-16.5 -23l-36 -51l-38 -55l-57 -77
q5 -21 15.5 -27t18.5 -4q21 2 38.5 16t32.5 35.5t28 50t26 60.5zM67 169q-11 -37 -16 -65l61 89q17 23 33.5 47t32.5 45l8 11q2 2 3.5 4.5t3.5 5.5l15 18q1 2 5 7.5t8.5 11t8.5 10.5t6 7l1 1q-3 4 -6 6q-8 3 -16 1.5t-16 -4.5q-9 -4 -17 -9q-21 -15 -41 -41q-17 -22 -37 -57
t-37 -88z" />
    <glyph glyph-name="ugrave" unicode="&#xf9;" horiz-adv-x="312" 
d="M336 232q8 -4 4 -11l-4.5 -9t-12 -23.5t-18.5 -33t-23 -37.5q-69 -107 -116 -120q-8 -2 -12 -2q-9 0 -19 5q-14 5 -26 26.5t-5 59.5q-55 -78 -98 -89q-8 -2 -13 -2q-8 0 -18 5q-9 3 -17.5 12.5t-12.5 25t-2 38t14 52.5q13 33 30.5 60t33 55t28 59.5t15.5 75.5q0 2 1 4
q2 4 5 6q6 2 12 -3q5 -5 14 -16t15.5 -27.5t7.5 -38.5t-11 -49q-11 -26 -30 -61.5t-35.5 -70.5t-26.5 -63.5t-4 -40.5q15 8 40 31.5t59 76.5q8 13 15 25t13 23q13 23 27 44.5t26 45t20.5 51t11.5 63.5q0 2 1 4q2 4 5 6q6 2 12 -3q5 -5 14 -16t15.5 -27.5t7.5 -38.5t-11 -49
q-11 -26 -30 -61.5t-35.5 -70.5t-26.5 -63.5t-4 -40.5q15 8 38.5 31.5t56.5 76.5q12 19 22.5 37t18.5 32.5t12.5 23l4.5 8.5q4 8 11 4zM201 493q11 -6 18.5 -15.5t20.5 -18.5q12 -9 22.5 -7.5t15.5 -4.5q3 -5 1 -8t-6 -5q-4 -3 -11 -4q-29 -6 -51 0t-36 16.5t-19.5 22
t-1.5 17.5q6 9 13.5 11.5t15.5 1.5q9 -1 18 -6z" />
    <glyph glyph-name="uacute" unicode="&#xfa;" horiz-adv-x="312" 
d="M336 232q8 -4 4 -11l-4.5 -9t-12 -23.5t-18.5 -33t-23 -37.5q-69 -107 -116 -120q-8 -2 -12 -2q-9 0 -19 5q-14 5 -26 26.5t-5 59.5q-55 -78 -98 -89q-8 -2 -13 -2q-8 0 -18 5q-9 3 -17.5 12.5t-12.5 25t-2 38t14 52.5q13 33 30.5 60t33 55t28 59.5t15.5 75.5q0 2 1 4
q2 4 5 6q6 2 12 -3q5 -5 14 -16t15.5 -27.5t7.5 -38.5t-11 -49q-11 -26 -30 -61.5t-35.5 -70.5t-26.5 -63.5t-4 -40.5q15 8 40 31.5t59 76.5q8 13 15 25t13 23q13 23 27 44.5t26 45t20.5 51t11.5 63.5q0 2 1 4q2 4 5 6q6 2 12 -3q5 -5 14 -16t15.5 -27.5t7.5 -38.5t-11 -49
q-11 -26 -30 -61.5t-35.5 -70.5t-26.5 -63.5t-4 -40.5q15 8 38.5 31.5t56.5 76.5q12 19 22.5 37t18.5 32.5t12.5 23l4.5 8.5q4 8 11 4zM224 481q8 5 17 6q8 1 15.5 -1.5t14.5 -11.5q4 -6 -1.5 -17.5t-19.5 -22t-36 -16.5t-51 0q-7 1 -11 4q-4 2 -6 5t1 8q4 6 14.5 4.5
t22.5 7.5q13 9 21 18.5t19 15.5z" />
    <glyph glyph-name="ucircumflex" unicode="&#xfb;" horiz-adv-x="312" 
d="M336 232q8 -4 4 -11l-4.5 -9t-12 -23.5t-18.5 -33t-23 -37.5q-69 -107 -116 -120q-8 -2 -12 -2q-9 0 -19 5q-14 5 -26 26.5t-5 59.5q-55 -78 -98 -89q-8 -2 -13 -2q-8 0 -18 5q-9 3 -17.5 12.5t-12.5 25t-2 38t14 52.5q13 33 30.5 60t33 55t28 59.5t15.5 75.5q0 2 1 4
q2 4 5 6q6 2 12 -3q5 -5 14 -16t15.5 -27.5t7.5 -38.5t-11 -49q-11 -26 -30 -61.5t-35.5 -70.5t-26.5 -63.5t-4 -40.5q15 8 40 31.5t59 76.5q8 13 15 25t13 23q13 23 27 44.5t26 45t20.5 51t11.5 63.5q0 2 1 4q2 4 5 6q6 2 12 -3q5 -5 14 -16t15.5 -27.5t7.5 -38.5t-11 -49
q-11 -26 -30 -61.5t-35.5 -70.5t-26.5 -63.5t-4 -40.5q15 8 38.5 31.5t56.5 76.5q12 19 22.5 37t18.5 32.5t12.5 23l4.5 8.5q4 8 11 4zM298 422q1 -8 -9 -10q-4 -1 -11 -1q-25 3 -41.5 13.5t-24.5 23.5q-15 -5 -34.5 -3.5t-39.5 15.5q-5 3 -8 7q-8 8 -1 14q3 2 6 1l7.5 -2.5
t10 -2t11.5 2.5q14 5 23.5 11.5t20.5 8.5q2 1 5 1q7 0 12 -1q1 0 2 -0.5t2 -0.5t2 -1t2 -1q6 -3 10 -7l3 -3q8 -9 11.5 -20.5t11.5 -23.5q8 -11 17 -12.5t12 -8.5z" />
    <glyph glyph-name="udieresis" unicode="&#xfc;" horiz-adv-x="312" 
d="M336 232q8 -4 4 -11l-4.5 -9t-12 -23.5t-18.5 -33t-23 -37.5q-69 -107 -116 -120q-8 -2 -12 -2q-9 0 -19 5q-14 5 -26 26.5t-5 59.5q-55 -78 -98 -89q-8 -2 -13 -2q-8 0 -18 5q-9 3 -17.5 12.5t-12.5 25t-2 38t14 52.5q13 33 30.5 60t33 55t28 59.5t15.5 75.5q0 2 1 4
q2 4 5 6q6 2 12 -3q5 -5 14 -16t15.5 -27.5t7.5 -38.5t-11 -49q-11 -26 -30 -61.5t-35.5 -70.5t-26.5 -63.5t-4 -40.5q15 8 40 31.5t59 76.5q8 13 15 25t13 23q13 23 27 44.5t26 45t20.5 51t11.5 63.5q0 2 1 4q2 4 5 6q6 2 12 -3q5 -5 14 -16t15.5 -27.5t7.5 -38.5t-11 -49
q-11 -26 -30 -61.5t-35.5 -70.5t-26.5 -63.5t-4 -40.5q15 8 38.5 31.5t56.5 76.5q12 19 22.5 37t18.5 32.5t12.5 23l4.5 8.5q4 8 11 4zM167 498q12 -4 18 -15t3 -22q-4 -12 -14.5 -18.5t-22.5 -2.5q-12 3 -18 13.5t-2 22.5q3 12 13.5 18.5t22.5 3.5zM262 472q12 -3 17.5 -14
t2.5 -23t-13.5 -18t-22.5 -3q-11 3 -17 13.5t-3 23.5q3 11 14 17.5t22 3.5z" />
    <glyph glyph-name="yacute" unicode="&#xfd;" horiz-adv-x="314" 
d="M109 -92q14 -2 27 -5q11 -2 23 -5.5t22 -5.5q28 -7 56.5 -7.5t54.5 1.5q30 3 48.5 9t29 11t15 7t5.5 -4t-2.5 -16.5t-15.5 -19.5t-34 -15t-57 -3q-12 0 -27 3q-13 2 -30.5 5.5t-37.5 9.5q-11 3 -25 6.5t-28 6.5q-16 4 -32 7q-20 -39 -43 -76t-48.5 -66t-52.5 -47.5
t-54 -19.5h-11q-13 0 -25 4q-40 12 -49 47q-9 30 0 62q9 34 35 62q43 43 119 54q35 5 76 3q20 51 34 96.5t21 71.5q-27 -38 -51.5 -59.5t-44.5 -26.5q-8 -2 -12 -2q-9 0 -19 5q-9 3 -17.5 12.5t-12.5 25t-2 38t14 52.5q14 33 31 60t33 55t28 59.5t15 75.5q0 2 1 4q1 3 6 6
q4 2 11 -3q5 -5 14 -16t15.5 -27.5t7.5 -38.5t-11 -49q-11 -26 -29.5 -61.5t-35.5 -70.5t-27 -63.5t-4 -40.5q15 8 40 31.5t59 76.5q8 13 15 25t14 23q13 23 27 44.5t25.5 45t20 51t11.5 63.5q0 2 1 4q1 3 6 6q5 2 11 -3q5 -5 14.5 -16t16 -27.5t7 -38.5t-11.5 -49
q-11 -26 -29.5 -61.5t-35 -70.5t-26.5 -63.5t-4 -40.5q14 8 37.5 31.5t57.5 76.5q12 19 22 37.5t18 32.5q9 17 17 31q4 8 11 4q8 -3 4 -11l-4.5 -9t-12 -23.5t-18.5 -33t-23 -37.5q-67 -106 -115 -120q-4 -1 -7 -1.5t-6 -0.5q-2 0 -2.5 0.5t-2.5 0.5q-8 -20 -18.5 -43
t-22.5 -46zM-110 -299q21 -1 41.5 16t40 44.5t37.5 63.5t33 74q-38 2 -67 -2.5t-50 -12.5t-36 -18t-24 -19q-24 -25 -31 -54q-8 -28 0 -53q7 -26 37 -35q5 -2 10 -2.5t9 -1.5zM213 487q8 5 17 6q8 1 15.5 -1.5t14.5 -11.5q4 -6 -1.5 -17.5t-19.5 -22t-36 -16.5t-51 0
q-7 1 -11 4q-4 2 -6 5t1 8q4 6 14.5 4.5t22.5 7.5q13 9 21 18.5t19 15.5z" />
    <glyph glyph-name="ydieresis" unicode="&#xff;" horiz-adv-x="314" 
d="M109 -92q14 -2 27 -5q11 -2 23 -5.5t22 -5.5q28 -7 56.5 -7.5t54.5 1.5q30 3 48.5 9t29 11t15 7t5.5 -4t-2.5 -16.5t-15.5 -19.5t-34 -15t-57 -3q-12 0 -27 3q-13 2 -30.5 5.5t-37.5 9.5q-11 3 -25 6.5t-28 6.5q-16 4 -32 7q-20 -39 -43 -76t-48.5 -66t-52.5 -47.5
t-54 -19.5h-11q-13 0 -25 4q-40 12 -49 47q-9 30 0 62q9 34 35 62q43 43 119 54q35 5 76 3q20 51 34 96.5t21 71.5q-27 -38 -51.5 -59.5t-44.5 -26.5q-8 -2 -12 -2q-9 0 -19 5q-9 3 -17.5 12.5t-12.5 25t-2 38t14 52.5q14 33 31 60t33 55t28 59.5t15 75.5q0 2 1 4q1 3 6 6
q4 2 11 -3q5 -5 14 -16t15.5 -27.5t7.5 -38.5t-11 -49q-11 -26 -29.5 -61.5t-35.5 -70.5t-27 -63.5t-4 -40.5q15 8 40 31.5t59 76.5q8 13 15 25t14 23q13 23 27 44.5t25.5 45t20 51t11.5 63.5q0 2 1 4q1 3 6 6q5 2 11 -3q5 -5 14.5 -16t16 -27.5t7 -38.5t-11.5 -49
q-11 -26 -29.5 -61.5t-35 -70.5t-26.5 -63.5t-4 -40.5q14 8 37.5 31.5t57.5 76.5q12 19 22 37.5t18 32.5q9 17 17 31q4 8 11 4q8 -3 4 -11l-4.5 -9t-12 -23.5t-18.5 -33t-23 -37.5q-67 -106 -115 -120q-4 -1 -7 -1.5t-6 -0.5q-2 0 -2.5 0.5t-2.5 0.5q-8 -20 -18.5 -43
t-22.5 -46zM-110 -299q21 -1 41.5 16t40 44.5t37.5 63.5t33 74q-38 2 -67 -2.5t-50 -12.5t-36 -18t-24 -19q-24 -25 -31 -54q-8 -28 0 -53q7 -26 37 -35q5 -2 10 -2.5t9 -1.5zM153 500q12 -4 18 -15t3 -22q-4 -12 -14.5 -18.5t-22.5 -2.5q-12 3 -18 13.5t-2 22.5
q3 12 13.5 18.5t22.5 3.5zM248 474q12 -3 17.5 -14t2.5 -23t-13.5 -18t-22.5 -3q-11 3 -17 13.5t-3 23.5q3 11 14 17.5t22 3.5z" />
    <glyph glyph-name="OE" unicode="&#x152;" horiz-adv-x="1249" 
d="M1206 232q8 -4 4 -11l-4.5 -9t-12.5 -23.5t-18.5 -33t-23.5 -37.5q-20 -32 -38.5 -54.5t-34.5 -38.5q-42 -44 -78.5 -69.5t-66.5 -38t-52.5 -15.5t-37.5 -3q-27 0 -46.5 5.5t-33.5 12.5q-16 8 -27 18q-19 15 -33 38q-12 20 -21.5 49t-5.5 70q-40 -44 -91.5 -69.5
t-115.5 -21.5q-62 4 -96.5 26.5t-49.5 55.5t-15 71.5t7 74.5q-17 -8 -31.5 -16t-25.5 -16q-12 -9 -22 -17q-61 -51 -82.5 -113t-9.5 -119q5 -24 14.5 -41t20 -29t21.5 -19t20 -11q5 -2 5 -8t-5 -8q-18 -8 -36.5 -7.5t-35 6.5t-30.5 17t-23 25q-8 12 -18 32t-13.5 48.5t4 64
t34.5 79.5q35 55 92 91t126 65q5 18 10 34t10 27q5 13 10 24q39 85 83.5 139t88.5 86t84 46t70 19q29 4 48 -3t30 -18q12 -12 19 -29q6 -20 4 -39t-7 -35q20 -32 22.5 -84t-10.5 -112q38 35 80.5 51.5t78.5 21.5q41 6 82 3q-26 13 -37 30t-13 34q-1 4 -0.5 8t0.5 7q0 4 1 7
q2 11 5.5 21.5t7.5 18.5q4 9 10 17q21 32 45 47t44 20q24 5 47 1q9 -1 21 -7t21.5 -22.5t12.5 -46t-7 -76.5q-12 -54 -21.5 -82.5t-16.5 -41.5q-4 -7 -12 -8t-13 6q-14 17 -15.5 39t-0.5 31q1 2 1 3t1 3q2 5 7.5 18.5t11 31.5t11 38t7.5 37.5t0.5 31.5t-9.5 19q-18 7 -38 4
q-17 -2 -38.5 -13.5t-42.5 -40.5q-20 -27 -21 -49t8 -39t23.5 -28t25.5 -16q2 0 4 -2q5 -5 6 -8q3 -14 -4 -22.5t-21 -10.5q-20 -2 -50.5 -9.5t-64.5 -26t-66 -51t-55 -83.5q-30 -67 -32 -110.5t8 -69.5q11 -31 35 -47q34 -15 75 -11q18 1 38.5 7t44.5 18t50 32t55 49
q12 13 28.5 33.5t36.5 51.5q12 19 22.5 37.5t18.5 32.5q9 17 16 31q2 4 5.5 5t6.5 -1zM502 438q-16 -22 -28.5 -47t-22.5 -47q-11 -26 -20 -50q18 7 36.5 13.5t37.5 13.5q49 18 86 40t62.5 43.5t40.5 40t22 28.5q-24 21 -56 25q-5 2 -6.5 6t0.5 8q6 9 18.5 17.5t33.5 9.5
q20 1 36 -8q4 16 4.5 28t-0.5 20q-1 10 -4 16q-9 11 -34 7.5t-58.5 -22t-72 -54t-75.5 -88.5zM467 20q36 -5 68 3t59 25.5t49.5 41t40.5 49.5q7 25 19 52.5t32 59.5q2 4 4 7l4 6q14 52 13.5 99t-18.5 81q-24 -32 -55 -54.5t-61.5 -38t-57 -25t-41.5 -15.5
q-19 -8 -42.5 -15.5t-55.5 -19.5q-6 -17 -12.5 -41t-11.5 -51.5t-5.5 -55t6 -50t22 -38.5t43.5 -20z" />
    <glyph glyph-name="oe" unicode="&#x153;" horiz-adv-x="611" 
d="M559 232q8 -4 4 -11l-4.5 -9t-12 -23.5t-18.5 -33t-23 -37.5q-69 -106 -116 -120q-11 -3 -24 0q-11 2 -25.5 8.5t-28.5 22.5q-22 22 -30 62q-23 -33 -45 -52t-39 -28q-20 -11 -39 -13q-11 -3 -23 0q-11 2 -23.5 8.5t-25.5 22.5t-20 46t-2.5 68t22.5 80.5t56 84.5
q30 33 52.5 53t40.5 29.5t32 11.5t25 -1q13 -3 21 -10q10 -9 19 -24q7 -13 13 -33t4 -50l1 1q37 42 66 66t50.5 34t35.5 8t22 -12q5 -7 9 -21t3.5 -32t-8 -38t-26 -39.5t-50 -36t-80.5 -27.5q-3 -14 -7 -27q-3 -11 -6 -24t-4 -23q-4 -33 0.5 -53t12 -29.5t15.5 -11.5t12 0
q15 8 38.5 31.5t56.5 76.5q12 19 22.5 37t18.5 32.5t12.5 23l4.5 8.5q4 8 11 4zM478 355q-17 -13 -34 -32q-14 -17 -31 -44t-32 -68q9 4 22 11.5t26.5 19.5t26 29t19.5 40q2 9 3 18q2 16 0 26zM165 19q40 5 67 46.5t51 99.5q6 27 19 51q9 27 14 53t6 46.5t-2 34.5t-10 17
q-8 3 -16 1.5t-16 -4.5q-9 -4 -17 -9q-21 -15 -41 -41q-17 -22 -37 -57t-37 -88q-16 -50 -17.5 -80.5t4.5 -46t16 -20t16 -3.5z" />
    <glyph glyph-name="circumflex" unicode="&#x2c6;" horiz-adv-x="236" 
d="M196 613q1 -8 -9 -10q-4 -1 -11 -1q-25 3 -41.5 13.5t-24.5 23.5q-15 -5 -34.5 -3.5t-39.5 15.5q-5 3 -8 7q-8 8 -1 14q3 2 6 1l7.5 -2.5t10 -2t11.5 2.5q14 5 23.5 11.5t20.5 8.5q2 1 5 1q7 0 12 -1q1 0 2 -0.5t2 -0.5t2 -1t2 -1q6 -3 10 -7l3 -3q8 -9 11.5 -20.5
t11.5 -23.5q8 -11 17 -12.5t12 -8.5z" />
    <glyph glyph-name="ring" unicode="&#x2da;" horiz-adv-x="154" 
d="M78 710q16 0 27 -10.5t11 -25.5q0 -16 -11 -26.5t-27 -10.5t-27 10.5t-11 26.5q0 15 11 25.5t27 10.5zM78 657q7 0 11.5 5t4.5 12q0 16 -16 16q-17 0 -17 -16q0 -7 4.5 -12t12.5 -5z" />
    <glyph glyph-name="tilde" unicode="&#x2dc;" horiz-adv-x="190" 
d="M146 656q4 -4 8 -4t7.5 0.5t6 0t2.5 -5.5q0 -9 -8 -15q-4 -3 -7 -5q-14 -7 -25 -8t-19.5 0.5t-14.5 5.5t-9 8q-8 10 -24.5 13t-33.5 -2q-6 -2 -9 0t-4 5q-1 4 0 9q0 8 13 16.5t39 13.5q15 3 27.5 0t22.5 -9t17 -12.5t11 -10.5z" />
    <glyph glyph-name="Euro" unicode="&#x20ac;" horiz-adv-x="411" 
d="M346 542q11 -24 12 -52q1 -24 -7.5 -56.5t-34.5 -70.5q-9 -11 -15 -11.5t-9 1.5l-5 5t-5 7v1q-6 10 -4.5 22.5t5.5 23.5q4 13 12 26q11 20 19 38q6 15 9.5 29.5t-3.5 19.5q-12 9 -30.5 -1t-39.5 -33t-42.5 -57.5t-38.5 -73.5q-1 -1 -1 -2q-1 -1 -1 -2.5t-1 -3.5h28
q11 0 13 -16q0 -7 -3.5 -11.5t-8.5 -4.5h-41q-2 -6 -5 -13.5t-5 -15.5h39q5 0 8.5 -4.5t3.5 -11.5q0 -16 -12 -16h-48q-17 -67 -13 -113t22.5 -66t49.5 -11t69 51q2 2 5 3t5 -4q4 -9 5 -22t-5 -30q-2 -3 -3 -5l-2 -4t-2 -3q-17 -15 -36.5 -25.5t-41.5 -12.5v-1h-10h-2
q-15 1 -27 7.5t-21 15t-15 17t-9 14.5q-11 21 -15.5 40t-5.5 24q-1 2 -1 3.5t-1 3.5q-1 5 -1 8v4q-2 10 -2 14v5q-2 21 -1 41.5t3 40.5q1 1 1 4h-45q-5 0 -8 5t-4 11q0 16 12 16h50q3 16 6 31h-42q-11 0 -13 16q0 6 3.5 11t8.5 5h51q7 26 14.5 45t12.5 31q1 2 1.5 4.5
t1.5 4.5q3 7 6 13.5t7 12.5q7 15 13.5 25.5t9.5 15.5q7 11 18.5 25t25 26t29 21.5t32.5 11.5h6q19 0 35 -8q8 -5 17 -14.5t17 -24.5z" />
    <glyph glyph-name="minus" unicode="&#x2212;" horiz-adv-x="275" 
d="M208 218q-3 -20 -17.5 -28t-25.5 -10q-6 -1 -11.5 -1.5t-10.5 0.5q-18 0 -36.5 0.5t-37.5 0.5q-10 2 -19.5 8.5t-2.5 23.5q5 15 15.5 23.5t21.5 10.5q23 3 45.5 2t45.5 -3q11 -1 23.5 -5t9.5 -22z" />
    </font>
</defs>
</svg>
